<?xml version="1.0" encoding="UTF-8"?>
<svg id="_レイヤー_1" data-name="レイヤー 1" xmlns="http://www.w3.org/2000/svg" viewBox="0 0 500 500">
  <defs>
    <style>
      .cls-1 {
        fill: #fff;
      }
    </style>
  </defs>
  <path d="M355.86,427.78c-2.82,5.94-5.8,10.91-10.24,15.49l-15.15,15.6c-.04,3.48.13,7.57-1.01,10.67-10.36,7.18-14.16,8.5-25.15,3.09-1.38-.68-2.05-3.97-1.9-5.43l-.42-7.7-17.12-21.15-131.25-42.35-99.72-32.28-.16,15.8c-.01,1.07-1.21,3.29-2.16,3.73-12.01,5.55-12.19,6.73-23.26,1.37-1.26-.61-2.13-2.92-2.14-4.47l-.46-74.56-.73-144.96c-.04-7.24,4.76-12.42,11.77-13.16,8.19-.87,16.49,2.45,17.6,10.97,42.13-32.39,100.02-44.29,149.81-23.48-.09-4.74-.1-8.96,3.31-11.69,5.39-4.32,14.41-3.71,19.17,1.59,1.64,1.82,1.99,5.5,2,7.98l.14,58.22c4.46,2.35,6.76,6.29,6.83,11.29l15.54,3.77c8.44-3.55,17.41-6.27,26.72-4.82s18.79,4.53,27.97,7.7c3.54,1.22,6.13,4.22,8.27,6.84l20.45,6.98c7.53,2.57,12.64,8.77,19.54,12.37,6.08,3.17,13.72,3.5,20.45,5.08,22.68,5.32,48.5,12.11,68.22,24.06,7.02,4.26,12.27,10.12,15.84,17.55l8.29,21.09,10.17,39.5c1.37,5.31,1.69,10.68,1.63,16.1-.1,8.15-7.99,9.53-16.69,9.11l-.61,24.67c-7.77,6.72-14,8.26-23.17,3.33-1.36-3.3-.93-7.09-1.05-11.46l-81.33,43.55ZM213.26,140.11l.49-9.04c.19-3.56,2.74-6.14,6.15-7.49-3.66-.86-8.94-1.13-11.61,2.6-1.88,2.62-1.99,7.47-1.33,10.19l6.31,3.74ZM226.15,186.7v-54.1c-.25-2.08-.43-4.71-1.68-6.27-1.17-1.46-4.5-.81-5.85,0s-3.2,3.22-3.2,5.2l-.07,40.47c4.27,4.8,7.37,9.66,10.8,14.7ZM167.07,129.39l7.52.61,5.35.23c-42.92-9.78-91.08,4.09-125.54,31.52l.05,9.3c31.58-27.46,70.04-42.98,112.62-41.66ZM69.72,191.28l11.78-.37c34.9-15.32,71.8-24.44,110.03-27.05l7.77-4.75c4.32-2.64,9.56-.61,11.29,4.02l2.51,6.75v-27.03c-11.02-6.21-22.85-9.16-35.48-10.84-45.26-5.21-89.51,11.42-123.36,41.63l.27,95.89,11.33-4.79,19.33-6.46c-8.14-11.91-12.9-25.59-15.31-39.97-.61-3.61-1.19-7.18-2.9-10.24-1.52-2.73-2.9-5.22-3.66-8.22-1.01-4.01,1.78-8.44,6.38-8.59ZM42.06,324.35c.15-2.9,4.81-3.98,6.85-4.72-.7-1.98-1.85-4.54-1.96-6.69-.5-9.73-.61-19.05-.18-28.68.23-5.07,2.19-9.21,5.33-13.12l-.38-111.76c0-2.94-1.53-5.39-3.74-6.89-4.88-3.31-11.4-3.63-16.5-.42-2.49,1.56-3.95,4.66-3.93,7.94l.98,221.88c3.29,1.73,6.58,3.36,9.6,3.9,4.68-.97,9.03-3.06,13.14-5.42l.11-17.39-6.03-2.07c-1.17-.4-3.29-2.18-3.33-3.69-.29-11.03-.55-21.48.02-32.85ZM148.31,239.18c-2.48,1.67-5.04,2.92-8.21,3.24-9.27.92-19.95-.9-19.96-9-.01-8.75,13.09-6.73,13.54-19.24-4.52-5.33-11.24-6.36-17.49-8.82,6.92-1.26,12.79,2.99,18.35,6.72,1.29-7.05,3.75-12.04,11.18-13.86,10.4-14.24,27.8-21.01,45.01-17.32,12.15-7.48,20.17,4.51,33.23,7.93-3.95-7.46-8.76-13.07-14.19-19.02-.9-2.72-1.07-6.86-3.7-8.59-4.8-3.16-8.61,4.65-17.67,5.41-36.66,3.05-72.2,11.76-105.76,26.73l-12.58.47c-1.12.04-3.07,1.17-3.65,1.97s-.98,3.08-.54,4.01l2.59,5.52c1.73,3.7,3.15,7.13,3.81,11.25,3.43,21.16,11.51,41.03,28.72,54.25,4.72,3.63,5.6,10.6,10.16,11.04,6.16.6,9.74-5.89,18.18-8.38,1.68-11.11,10.63-15.4,21.47-18.21-4.2-7.91.46-12.99-2.48-16.11ZM166.96,252.47c1.02,3.7,4.53,3.97,7.62,3.9,8.47-.2,15.73-4.63,17.54-13.13.33-1.55-.13-2.71-1.17-4.67.3-.4,2.63-1.32,3.52-1.07.76.21,1.86,1.11,2.48,1.68l-2.08,1.78c-.82,13.06-10.99,18.98-24.08,17.84-.85.83-2.02,2.96-2.28,4.11,9.53,4.76,19.65-2.46,26.24-10.41,5.21-6.28,10.26-12.13,16.9-17.56-4.7-3.73-7.57-8.49-9.11-14.05l-3.27-11.81c-1.38-4.98-4.73-8.53-8.3-12.96,8.3.51,11.44,14.02,13.61,22.64,1.76,7,5.63,12.89,12.23,15.98,2.21,1.03,5.22,1.42,7.24-.06.08-6.53,1.49-12.43,4.85-17.98,2.38-3.93,3.8-8.42,4.15-13,.42-5.32-2.54-9.42-7.45-11.22-6.83-2.5-13.26-5.38-19.5-9.16-4.91-2.97-10.82-3.14-15.29.65l-2.69-1.03c-16.15-2.5-32.4,4.59-41.25,18.31-.5.44-1.32,1.15-1.66.91l-1.19-.86c-10.92,5.72-3.08,21.52-18.22,27.37-1.97.76-3.51,3.34-3.21,5.2.28,1.71,1.8,3.86,3.61,4.53,6.4,2.36,15.49,2.87,20.74-1.39-5.06-7.35-6.79-15.73-4.21-23.99.44-.37,1.09-.91,1.23-.62l.54,1.08c-1.98,9.11.42,17.27,6.59,24.87l3.84-9.71c-3.38.05-6.52,3.56-6.76,1.93-.46-3.13,2.51-4.36,6.53-4.82l2.02-3.03c.96,2.61,1.03,5.59.08,8.12l-4.46,11.92c6.87-5.83,17.82-8.9,18.84-1.75.64,4.5-1.51,8.5-4.22,11.45ZM126.34,369.41l12.71,6.54c4.19,2.16,8.69,3.44,13.33,4.43l3.14-27.86c.94-8.32,2.73-16.26,5.12-24.26,3.24-10.85,9.1-20.12,17.45-27.69l14.79-11.39c9.19-6.19,17.93-12.73,25.29-21.05l14.16-15.99c18.5-20.89,41.58-37,69.52-41.81-7.98-2.61-15.18-4.7-22.98-6.23-16.59-3.25-37.85,8.35-50.56,19.94-2.41,6.44.29,13.7-6.03,14.24-2.83.24-5.58-.59-8.29-1.93-6.97,5.85-12.75,12.54-18.52,19.4-4.79,5.69-10.44,9.51-17.46,11.25l-25.26,17.39c-12.6,8.67-20.42,18.55-23.71,33.83-3.03,14.05-5.15,27.94-6.71,42.24-.41,3.7.59,7.18,4.03,8.96ZM247.2,207.82l-11.54-2.8c-.69,4.54-2.19,8.57-3.92,12.56l15.46-9.75ZM161.83,380.07l2.04-15.34c3.36-25.31,4.08-47.88,27.6-64.49l11.1-7.84c11.2-7.19,20.43-15.83,28.83-26.11,17.12-20.94,33.58-36.8,59.49-46.38,6.47-2.39,12.58-3.45,19.44-4.41-1.35-1.61-3.33-3.1-5.13-3.81-30.3,3.99-54.12,21.45-73.84,44.05l-9.18,10.52c-7.38,8.46-15.96,15.26-24.96,22.02l-17.2,12.92c-8.83,7.79-15.03,17.45-18.22,28.86-2.53,9.03-4.21,18.01-5.24,27.35l-2.54,23.02c2.45.7,5.26.76,7.8-.37ZM180.07,384.29c11.42,6.05,22.97,9.92,35.48,11.87l17,2.65c3.7-21.36,9.08-48.31,21.9-65.68,5.6-7.58,12.26-13.66,19.09-20.13l28.89-27.35c18.07-17.12,39.66-29.23,63.22-36.62-8.06-6.9-15.62-13.53-24.2-19.26-9.37-6.26-19.92-9.19-30.81-11.7-19.74,2-39.58,12.5-54.28,25.46-8.95,7.89-16.45,16.47-24.02,25.65-8.25,10-17.77,17.8-28.22,25.4l-15.5,11.28c-16.21,13.8-19.09,32.03-21.43,52.47l-2.17,18.92,15.06,7.05ZM380.89,244.53l-21.66-4.52,9.65,8.35,12.02-3.83ZM376.77,253.54l15.79-6.01-8.05-2.23-14.02,4.24,6.27,4.01ZM167.28,257.62l-2.85-3.96c-5.6.6-9.76-1.44-12.79-5.83-.02,8.06,8.64,17.06,13.43,14.14,1.08-.66,2.95-3.31,2.21-4.35ZM257.21,405.95c3.23-14.96,6.81-29.59,11.59-44.04,2.88-8.72,6.7-16.53,12.28-23.72,5.39-6.95,11.2-12.99,17.96-18.68l31.23-26.26c12.4-10.43,25.93-18.86,40.87-25.07l20.73-7.5,20.21-7.21c-5.43-1.53-10.96-4.8-16.35-4.5-5.96.34-11.07,3.87-16.95,5.53l7.02,4.15c-4.08,1.61-6.61-1.33-9.97-2.93-16.21,4.16-31.07,11.05-44.8,20.59-9.48,6.59-17.48,14.02-25.96,21.78l-18.78,17.18-16.01,15.38c-17.53,18.94-22.2,45.23-27,70.41l13.95,4.87ZM276.14,322.15l17.48-15.87,18-16.66c12.74-11.8,26.86-21.37,42.78-28.36l19.2-6.77-6.38-4.18c-22.57,7.08-43.79,18.09-61.17,34.42l-37.37,35.12c-11.29,10.61-19.55,22.47-24.44,37.17-4.6,13.82-7.74,27.5-9.99,42.05l7.4,1.65c5.88-30.73,10.48-56.77,34.49-78.56ZM268.02,412.9c4.18-23.16,9.65-47.06,22.39-66.67,6.63-10.2,14.95-18.28,23.95-26.43,23.16-20.95,49.54-36.94,78.27-49.11,10.88-4.6,20.81-9.27,32.52-12.39l-9.99-3.8c-9.14,2.27-17.42,5.82-26.23,9.1-8.24,3.07-16.35,5.21-24.25,9.23-12.76,6.5-24.46,14.08-35.41,23.33l-27.64,23.35-15.23,14.85c-7.29,8.21-12.52,17.39-15.99,27.89-4.87,14.71-8.45,29.27-11.68,44.53l9.29,6.1ZM147.43,272.48c-1.7,2.06-3.09,6.59-.3,8.37,2.32,1.47,6.21-.05,8.33-1.5l17.49-12-7-2.37c-1.51-.51-6.82,2.83-13.8-7.35-5.72,1.01-11.67,3.43-15.92,7.47-3.82,3.63-5.82,9.21-2.14,13.37.24-4.89,1.51-10.48,6.54-10.63-2.6,4.15-5.49,7.68-3.17,11.87.92,1.65,4.84,2.01,6.59,1.38-2.18-3.9.27-9.08,2.83-10.64.31-.19,1.74.57,1.53.82l-.99,1.2ZM308.99,338.62c11.78-13.07,25.07-23.67,39.64-33.58,15.55-10.58,31.69-19.08,48.7-27.08,12.73-5.98,25.21-10.16,39.13-14.23l-8.89-4.28c-12.72,3.21-23.86,8.44-35.88,13.55-30.96,13.15-59.07,31.25-83.25,54.57-26.1,25.17-32.65,51.67-38.84,86.51l7.49,3.53c5.85-31.41,10.24-54.94,31.9-78.98ZM148.08,284.56c-3.63-2.09-6.65,1.13-13.42-2.95-2.05-1.23-3.61-2.95-5.15-5.04-7.72,1.48-11.54,9.3-19.25,7.68-2.72-.57-5.08-2.86-6.72-5.62-.57-1.24-1.62-3.71-2.6-4.47-5.23-4.04-9.92-8.14-14.08-13.64l-27.48,9.5c-5.86,2.03-9.5,6.76-9.96,13.06-.75,10.14-.68,20.38.15,30.47.33,3.98,2.97,6.44,6.5,7.56l65.88,20.96,4.4-23.95c2.56-13.94,10.01-25.11,21.73-33.55ZM326.95,458.57l18.69-19.16c4.99-5.11,7.38-11.46,9.44-18.14,3.36-10.84,17.86-16.95,28.81-21.44,15.4-6.31,29.56-13.87,43.1-23.52,10.46-7.46,19.42-12.52,32.16-11.47,7.89.65,16.66.97,16.96-5.61.19-4.31.1-8.68-.89-12.91l-6.21-26.46c-2.91-12.39-6.81-24.07-12.07-35.59-3.89-8.51-9.78-15.03-18.35-19.24-11.37,3.12-22.27,6.49-33.2,11.23-35.03,15.19-70.51,36.13-96.06,64.64-8.13,9.08-14.3,18.94-18.94,30.16-4.34,12.72-8.17,25.02-9.82,38.9l17.73-42.46c1.09,1.01,1.18,3.14.55,4.73l-9.28,23.51-8.37,20.46c-.97,2.37-1.81,6.35-.99,8.75,1.91,5.59,5.24,10.17,8.86,14.64l12.03,14.84,9.48,9.36c4.5,4.44,11.42-.15,16.36-5.21ZM164.44,379.79c-2.98,7.68-20.86,1.5-28.16-2.38l-12-6.37c-2.66-1.41-4.69-4.71-4.47-7.85l.88-12.6-74.01-23.81.47-1.62,73.75,23.6.51-4.25-70.99-22.65c-2.12.14-4.69,1.71-6.16,3.31l.17,30.86c0,1.04,1.5,2.38,2.77,2.79l234.76,75.88c-2.71-4.86-4.93-9.28-4.58-14.52-12.39-3.69-19.4-13.66-33.71-16.31l-25.31-4.69c-14.56-2.09-28.02-6.34-40.88-13.33l-13.05-6.08ZM440.02,394c8.6,3.54,12.03,2.33,19.2-2.81l.28-23.86h-8.44s-.22,27.2-.22,27.2l-1.55-.13-.11-16.83-9.39,5.29.23,11.14ZM356.96,424.2l92.14-49.24.06-7.29c-6.75,2-12.32,4.92-17.94,8.93-15.09,10.76-30.79,19.46-48.04,26.36-10.33,4.14-24.42,10.3-26.21,21.23ZM305.39,470.43c10.55,5.12,13.19,3.06,22.21-2.62l.5-6.54-7.91,5.62c-2.51,1.79-6.78,1.72-9.29-.04l-6.15-4.31c-.13,2.05,0,5.38.63,7.88Z"/>
  <path d="M298.91,80.8l-2.87,3.43c10.17,11.37,26.09,12.55,39.61,4.39-1.47,7.5-6.53,12.32-11.77,16.57-15.6,12.67-37.73,11.47-52.59-2.24-12.43-11.48-16.56-28.98-10.02-45.37,5.51-13.8,20.27-25.27,37.23-24.82-10.1,9.38-15.05,21.07-11.38,33.53,1.55,5.25,4.76,8.94,10.19,10.21,1.56.37,2.58,3.13,1.59,4.3ZM298.18,88.82c-2.05-1.76-3.77-3.62-4.35-5.01l4.22-5c-6.94-1.9-10.73-5.92-12.61-12.22-3.38-11.31.23-23.21,9-32.08-14.74,1.57-27.76,12.3-32.18,25.48-5.28,15.73-.98,31.87,11.03,42.33,9.16,7.97,20.98,11.7,32.92,9.26,10.94-2.24,20.73-9.16,26.35-19.22-11.27,5.06-23.28,4.17-32.85-2.2-3.93,3.6-10.87,6.3-15.3,1.3,5.55,1.25,10.7,1.55,13.78-2.64Z"/>
  <path d="M325.3,61.82l-6.31,3.06,1.01-6.41-5.06-4.69,6.77-1.32,3.14-6.31,3.24,6.15,6.68,1.17-4.55,4.73,1.11,6.86-6.03-3.25ZM329.33,62.33l-.83-4.64,3.29-3.36c-1.66-.19-4.41-.03-4.9-.98l-1.97-3.82-1.8,3.72c-.33.67-2.35.7-3.24,1.02l-1.52.56c-.31.11,3.25,2.38,3.12,3.53l-.43,3.84,4.16-2.2,4.12,2.33Z"/>
  <path d="M220.81,85.67l-5.14,2.62.62-5.38-4.23-3.81,5.96-1.32,2.17-5.1,2.81,4.99,5.76.86-3.92,4.14.95,5.71-4.99-2.71ZM223.45,85.37c-.47-3.3.46-4.18,2.38-5.79-1.04-.17-3.28-.11-3.68-.76l-1.85-3.04c-.57,1.25-1.01,3.13-1.86,3.33l-3.58.85c1.14.94,2.87,1.76,2.79,2.64l-.28,3.24,2.92-1.64c.71-.4,2.45.86,3.17,1.16Z"/>
  <path d="M320.9,140.68c-.78-.42-2.13-1.65-2.94-1.57s-2.3,1.16-3.35,1.77l.4-3.44c.08-.72-1.07-1.49-2.22-2.75l3.49-.66,1.47-3.44,1.67,3.32c.36.7,2.75.52,3.61.58l-2.1,2.27c-.45.49-.23,1.54-.04,3.91Z"/>
  <path d="M242.54,49.35l-1.79-.98c-.48-.26-1.37.43-2.43,1.02l.06-2.25c.02-.63-1.22-1.6-1.66-2.02l2.48-.76c.5-.15.69-1.32,1.06-2.3l.98,1.99c.28.57,1.77.75,2.81.97l-1.43,1.45c-.37.38-.18,1.23-.09,2.88Z"/>
  <circle cx="252.94" cy="113.4" r="2.26"/>
  <path d="M193.49,69.37c0,1.16-.94,2.1-2.1,2.1s-2.1-.94-2.1-2.1.94-2.1,2.1-2.1,2.1.94,2.1,2.1ZM192.28,69.33c0-.51-.41-.92-.92-.92s-.92.41-.92.92.41.92.92.92.92-.41.92-.92Z"/>
  <path d="M355.01,101.55c0,1.16-.94,2.09-2.09,2.09s-2.09-.94-2.09-2.09.94-2.09,2.09-2.09,2.09.94,2.09,2.09ZM353.81,101.44c0-.52-.43-.95-.95-.95s-.95.43-.95.95.43.95.95.95.95-.43.95-.95Z"/>
  <path class="cls-1" d="M326.95,458.57c-4.94,5.06-11.86,9.66-16.36,5.21l-9.48-9.36-12.03-14.84c-3.62-4.47-6.95-9.05-8.86-14.64-.82-2.4.02-6.38.99-8.75l8.37-20.46,9.28-23.51c.63-1.59.54-3.72-.55-4.73l-17.73,42.46c1.65-13.88,5.48-26.18,9.82-38.9,4.64-11.23,10.8-21.08,18.94-30.16,25.55-28.51,61.03-49.45,96.06-64.64,10.93-4.74,21.83-8.11,33.2-11.23,8.57,4.21,14.47,10.72,18.35,19.24,5.26,11.52,9.17,23.2,12.07,35.59l6.21,26.46c.99,4.23,1.08,8.61.89,12.91-.3,6.58-9.07,6.26-16.96,5.61-12.74-1.05-21.7,4.01-32.16,11.47-13.54,9.65-27.7,17.22-43.1,23.52-10.95,4.48-25.45,10.6-28.81,21.44-2.07,6.68-4.45,13.03-9.44,18.14l-18.69,19.16ZM449.7,352.75c3.14-15.86,3.19-32.45-.37-48.51l.81,29.49c.9,6.37-2.33,12.33-.44,19.02ZM354.14,411.42l-6.25-21.45-5.72-24.73c-1.09,8.35,1.4,16.03,3.64,23.65l7.17,24.41c.78-.02,1.43.02,1.4-.22l-.23-1.66Z"/>
  <path class="cls-1" d="M180.07,384.29l-15.06-7.05,2.17-18.92c2.35-20.44,5.23-38.66,21.43-52.47l15.5-11.28c10.45-7.6,19.98-15.4,28.22-25.4,7.57-9.18,15.07-17.75,24.02-25.65,14.7-12.96,34.54-23.47,54.28-25.46,10.89,2.51,21.44,5.43,30.81,11.7,8.58,5.73,16.14,12.36,24.2,19.26-23.55,7.39-45.14,19.5-63.22,36.62l-28.89,27.35c-6.83,6.47-13.5,12.55-19.09,20.13-12.82,17.36-18.19,44.32-21.9,65.68l-17-2.65c-12.51-1.95-24.06-5.81-35.48-11.87ZM209.34,325.39c5.94-5.83,11.24-10.45,17.91-14.24,13.76-7.83,24.56-18.21,33.51-31.16,6.74-9.75,14.15-18.27,23.02-25.99,11.72-10.19,24.75-15.55,40.01-20.34-14.08.55-26.59,8.12-37.58,16.22-22.03,16.24-31.12,40.55-48.45,52.16l-14.5,9.72c-5.38,3.6-11.9,7.16-13.91,13.62ZM277.37,286.37l-1.48-1.11c-3.45,9.82-11.45,14.11-19.48,20.33,9.75-2.65,16.57-10.62,20.96-19.22ZM205.59,332.58c.27-.47-.17-1.76-.41-1.54-3.69,3.52-9.28,19.57-8.12,25.2,2.77-8.07,4.4-16.51,8.53-23.66Z"/>
  <path class="cls-1" d="M69.72,191.28c-4.6.15-7.39,4.58-6.38,8.59.75,3,2.13,5.48,3.66,8.22,1.71,3.06,2.3,6.63,2.9,10.24,2.41,14.38,7.17,28.07,15.31,39.97l-19.33,6.46-11.33,4.79-.27-95.89c33.85-30.21,78.1-46.84,123.36-41.63,12.64,1.68,24.46,4.63,35.48,10.84v27.03s-2.52-6.75-2.52-6.75c-1.72-4.63-6.97-6.66-11.29-4.02l-7.77,4.75c-38.23,2.61-75.13,11.73-110.03,27.05l-11.78.37Z"/>
  <path class="cls-1" d="M126.34,369.41c-3.44-1.77-4.44-5.26-4.03-8.96,1.57-14.3,3.69-28.19,6.71-42.24,3.29-15.27,11.11-25.15,23.71-33.83l25.26-17.39c7.02-1.74,12.67-5.56,17.46-11.25,5.77-6.86,11.55-13.54,18.52-19.4,2.71,1.35,5.47,2.18,8.29,1.93,6.32-.54,3.63-7.8,6.03-14.24,12.71-11.59,33.97-23.19,50.56-19.94,7.8,1.53,15,3.62,22.98,6.23-27.93,4.81-51.02,20.92-69.52,41.81l-14.16,15.99c-7.36,8.31-16.1,14.86-25.29,21.05l-14.79,11.39c-8.35,7.57-14.2,16.84-17.45,27.69-2.39,8-4.18,15.94-5.12,24.26l-3.14,27.86c-4.64-1-9.14-2.27-13.33-4.43l-12.71-6.54Z"/>
  <path class="cls-1" d="M148.31,239.18c2.94,3.11-1.72,8.2,2.48,16.11-10.84,2.81-19.79,7.09-21.47,18.21-8.45,2.49-12.02,8.98-18.18,8.38-4.56-.45-5.44-7.42-10.16-11.04-17.21-13.22-25.29-33.09-28.72-54.25-.67-4.12-2.08-7.55-3.81-11.25l-2.59-5.52c-.43-.93-.04-3.2.54-4.01s2.53-1.93,3.65-1.97l12.58-.47c33.56-14.97,69.1-23.68,105.76-26.73,9.06-.75,12.88-8.57,17.67-5.41,2.63,1.74,2.8,5.87,3.7,8.59,5.43,5.94,10.24,11.55,14.19,19.02-13.07-3.42-21.08-15.41-33.23-7.93-17.2-3.69-34.61,3.08-45.01,17.32-7.43,1.83-9.89,6.81-11.18,13.86-5.55-3.73-11.43-7.98-18.35-6.72,6.25,2.46,12.97,3.49,17.49,8.82-.45,12.52-13.55,10.5-13.54,19.24.01,8.1,10.7,9.92,19.96,9,3.16-.32,5.73-1.57,8.21-3.24ZM107.97,268.07c.62,2.28.46,4.49,2.86,5.77-4.49-25.75-17.92-52.18-37.92-70.1-.05,3.64,3.41,4.44,4.52,6.99.56,13.44,4.79,25.51,11.52,36.78,4.9,8.2,10.72,15.15,19.02,20.57Z"/>
  <path class="cls-1" d="M164.44,379.79l13.05,6.08c12.86,6.99,26.32,11.24,40.88,13.33l25.31,4.69c14.31,2.65,21.32,12.63,33.71,16.31-.34,5.24,1.87,9.65,4.58,14.52l-234.76-75.88c-1.27-.41-2.77-1.75-2.77-2.79l-.17-30.86c1.46-1.6,4.04-3.18,6.16-3.31l70.99,22.65-.51,4.25-73.75-23.6-.47,1.62,74.01,23.81-.88,12.6c-.22,3.13,1.81,6.44,4.47,7.85l12,6.37c7.3,3.88,25.18,10.06,28.16,2.38Z"/>
  <path class="cls-1" d="M166.96,252.47c2.71-2.95,4.86-6.95,4.22-11.45-1.02-7.15-11.97-4.09-18.84,1.75l4.46-11.92c.95-2.53.87-5.51-.08-8.12l-2.02,3.03c-4.02.46-6.99,1.69-6.53,4.82.24,1.63,3.38-1.88,6.76-1.93l-3.84,9.71c-6.17-7.6-8.58-15.76-6.59-24.87l-.54-1.08c-.15-.29-.79.25-1.23.62-2.58,8.26-.85,16.63,4.21,23.99-5.25,4.27-14.34,3.75-20.74,1.39-1.81-.67-3.34-2.82-3.61-4.53-.3-1.86,1.25-4.44,3.21-5.2,15.14-5.85,7.3-21.65,18.22-27.37l1.19.86c.34.24,1.15-.47,1.66-.91,8.85-13.72,25.1-20.81,41.25-18.31l2.69,1.03c4.47-3.79,10.39-3.63,15.29-.65,6.25,3.78,12.68,6.66,19.5,9.16,4.91,1.8,7.87,5.9,7.45,11.22-.36,4.58-1.77,9.07-4.15,13-3.36,5.54-4.76,11.45-4.85,17.98-2.02,1.48-5.03,1.09-7.24.06-6.6-3.09-10.47-8.98-12.23-15.98-2.17-8.62-5.31-22.13-13.61-22.64,3.57,4.42,6.92,7.97,8.3,12.96l3.27,11.81c1.54,5.56,4.41,10.32,9.11,14.05-6.64,5.43-11.69,11.28-16.9,17.56-6.59,7.95-16.72,15.17-26.24,10.41.26-1.15,1.43-3.28,2.28-4.11,13.09,1.14,23.26-4.78,24.08-17.84l2.08-1.78c-.62-.57-1.72-1.46-2.48-1.68-.89-.25-3.22.67-3.52,1.07,1.03,1.95,1.49,3.12,1.17,4.67-1.81,8.5-9.07,12.93-17.54,13.13-3.1.07-6.6-.2-7.62-3.9ZM187.65,213.75c.06-.47-.74-1.55-1.2-1.67-4.26-1.19-9.8.56-11.37,5.05-.16.47-.03,1.6.13,2.05s1.8-.17,2.1-.69c3.3-5.54,10.11-2.97,10.33-4.74Z"/>
  <path class="cls-1" d="M148.08,284.56c-11.72,8.44-19.17,19.61-21.73,33.55l-4.4,23.95-65.88-20.96c-3.53-1.12-6.18-3.58-6.5-7.56-.83-10.1-.9-20.33-.15-30.47.47-6.31,4.1-11.04,9.96-13.06l27.48-9.5c4.16,5.51,8.84,9.6,14.08,13.64.98.76,2.03,3.23,2.6,4.47,1.64,2.76,4,5.05,6.72,5.62,7.7,1.61,11.53-6.2,19.25-7.68,1.54,2.1,3.1,3.81,5.15,5.04,6.77,4.08,9.79.87,13.42,2.95ZM58.25,278.46l-.57,1.82,67.2,20.9.57-1.82-67.2-20.9Z"/>
  <path class="cls-1" d="M42.06,324.35c-.57,11.37-.31,21.82-.02,32.85.04,1.51,2.16,3.29,3.33,3.69l6.03,2.07-.11,17.39c-4.11,2.36-8.46,4.46-13.14,5.42-3.02-.54-6.32-2.17-9.6-3.9l-.98-221.88c-.01-3.28,1.45-6.38,3.93-7.94,5.1-3.21,11.62-2.89,16.5.42,2.21,1.5,3.73,3.95,3.74,6.89l.38,111.76c-3.14,3.91-5.1,8.06-5.33,13.12-.43,9.63-.33,18.95.18,28.68.11,2.15,1.25,4.71,1.96,6.69-2.05.73-6.71,1.82-6.85,4.72ZM38.32,204.41c0-14.59-.7-28.42.02-42.71.24-4.88,3.37-7.2,7.82-8.71-4.5-1.69-9.45,2.74-9.43,7.76l.55,163.09c.07,19.78-.72,38.95,1.04,57.98v-177.41Z"/>
  <path class="cls-1" d="M257.21,405.95l-13.95-4.87c4.8-25.18,9.47-51.47,27-70.41l16.01-15.38,18.78-17.18c8.48-7.76,16.48-15.19,25.96-21.78,13.73-9.54,28.59-16.43,44.8-20.59,3.35,1.6,5.89,4.53,9.97,2.93l-7.02-4.15c5.88-1.66,10.99-5.19,16.95-5.53,5.4-.31,10.93,2.97,16.35,4.5l-20.21,7.21-20.73,7.5c-14.93,6.21-28.46,14.64-40.87,25.07l-31.23,26.26c-6.76,5.68-12.57,11.73-17.96,18.68-5.57,7.19-9.4,15-12.28,23.72-4.77,14.46-8.35,29.08-11.59,44.04Z"/>
  <path class="cls-1" d="M268.02,412.9l-9.29-6.1c3.23-15.27,6.81-29.82,11.68-44.53,3.47-10.5,8.7-19.68,15.99-27.89l15.23-14.85,27.64-23.35c10.95-9.25,22.65-16.83,35.41-23.33,7.89-4.02,16.01-6.16,24.25-9.23,8.81-3.28,17.09-6.83,26.23-9.1l9.99,3.8c-11.71,3.11-21.64,7.78-32.52,12.39-28.73,12.16-55.11,28.16-78.27,49.11-9,8.14-17.32,16.23-23.95,26.43-12.75,19.61-18.21,43.51-22.39,66.67Z"/>
  <path class="cls-1" d="M308.99,338.62c-21.66,24.04-26.06,47.57-31.9,78.98l-7.49-3.53c6.19-34.84,12.74-61.34,38.84-86.51,24.18-23.32,52.29-41.42,83.25-54.57,12.02-5.11,23.15-10.34,35.88-13.55l8.89,4.28c-13.92,4.08-26.4,8.25-39.13,14.23-17.01,8-33.15,16.5-48.7,27.08-14.57,9.91-27.86,20.51-39.64,33.58Z"/>
  <path class="cls-1" d="M161.83,380.07c-2.54,1.14-5.35,1.07-7.8.37l2.54-23.02c1.03-9.34,2.71-18.31,5.24-27.35,3.19-11.41,9.39-21.08,18.22-28.86l17.2-12.92c9-6.76,17.57-13.55,24.96-22.02l9.18-10.52c19.72-22.6,43.54-40.06,73.84-44.05,1.8.7,3.78,2.2,5.13,3.81-6.86.96-12.97,2.02-19.44,4.41-25.9,9.57-42.36,25.44-59.49,46.38-8.4,10.28-17.63,18.92-28.83,26.11l-11.1,7.84c-23.52,16.61-24.24,39.18-27.6,64.49l-2.04,15.34Z"/>
  <path class="cls-1" d="M276.14,322.15c-24.01,21.79-28.61,47.82-34.49,78.56l-7.4-1.65c2.24-14.54,5.38-28.23,9.99-42.05,4.9-14.7,13.15-26.56,24.44-37.17l37.37-35.12c17.38-16.33,38.6-27.34,61.17-34.42l6.38,4.18-19.2,6.77c-15.92,6.99-30.04,16.57-42.78,28.36l-18,16.66-17.48,15.87Z"/>
  <path class="cls-1" d="M356.96,424.2c1.8-10.93,15.88-17.1,26.21-21.23,17.25-6.91,32.95-15.6,48.04-26.36,5.63-4.01,11.19-6.94,17.94-8.93l-.06,7.29-92.14,49.24Z"/>
  <path class="cls-1" d="M167.07,129.39c-42.58-1.32-81.04,14.2-112.62,41.66l-.05-9.3c34.46-27.43,82.63-41.31,125.54-31.52l-5.35-.23-7.52-.61Z"/>
  <path class="cls-1" d="M226.15,186.7c-3.43-5.04-6.53-9.9-10.8-14.7l.07-40.47c0-1.99,1.92-4.44,3.2-5.2,1.34-.81,4.68-1.45,5.85,0,1.26,1.57,1.44,4.19,1.69,6.27v54.1Z"/>
  <path class="cls-1" d="M147.43,272.48l.99-1.2c.21-.25-1.22-1.01-1.53-.82-2.56,1.56-5.01,6.74-2.83,10.64-1.76.63-5.68.27-6.59-1.38-2.32-4.19.57-7.72,3.17-11.87-5.04.15-6.31,5.74-6.54,10.63-3.68-4.16-1.68-9.75,2.14-13.37,4.26-4.04,10.2-6.47,15.92-7.47,6.98,10.18,12.3,6.84,13.8,7.35l7,2.37-17.49,12c-2.12,1.45-6.01,2.98-8.33,1.5-2.8-1.77-1.4-6.31.3-8.37Z"/>
  <path class="cls-1" d="M440.02,394l-.23-11.14,9.39-5.29.11,16.83,1.55.13.22-27.2h8.44s-.28,23.86-.28,23.86c-7.17,5.14-10.6,6.35-19.2,2.81Z"/>
  <path class="cls-1" d="M305.39,470.43c-.64-2.5-.77-5.83-.63-7.88l6.15,4.31c2.51,1.76,6.78,1.82,9.29.04l7.91-5.62-.5,6.54c-9.02,5.68-11.67,7.74-22.21,2.62Z"/>
  <path class="cls-1" d="M213.26,140.11l-6.31-3.74c-.65-2.72-.55-7.57,1.33-10.19,2.68-3.73,7.96-3.46,11.61-2.6-3.41,1.35-5.96,3.93-6.15,7.49l-.49,9.04Z"/>
  <path class="cls-1" d="M167.28,257.62c.74,1.03-1.13,3.69-2.21,4.35-4.79,2.93-13.45-6.08-13.43-14.14,3.03,4.39,7.19,6.43,12.79,5.83l2.85,3.96Z"/>
  <polygon class="cls-1" points="376.77 253.54 370.5 249.53 384.52 245.29 392.56 247.52 376.77 253.54"/>
  <polygon class="cls-1" points="380.89 244.53 368.87 248.36 359.23 240.01 380.89 244.53"/>
  <path class="cls-1" d="M247.2,207.82l-15.46,9.75c1.74-3.98,3.24-8.02,3.92-12.56l11.54,2.8Z"/>
  <path class="cls-1" d="M298.18,88.82c-3.08,4.19-8.23,3.89-13.78,2.64,4.43,5,11.37,2.3,15.3-1.3,9.57,6.37,21.57,7.26,32.85,2.2-5.63,10.06-15.41,16.98-26.35,19.22-11.94,2.44-23.76-1.29-32.92-9.26-12.01-10.45-16.31-26.6-11.03-42.33,4.42-13.18,17.44-23.9,32.18-25.48-8.77,8.87-12.38,20.76-9,32.08,1.88,6.3,5.68,10.32,12.61,12.22l-4.22,5c.58,1.39,2.3,3.25,4.35,5.01ZM282.28,72.01c-1.64,1.73-3.39,4.34-4.82,4.07l-6.19-1.15c.85,2.94,4.34,3.32,6.7,2.85s5.4-2.68,4.31-5.76Z"/>
  <path class="cls-1" d="M329.33,62.33l-4.12-2.33-4.16,2.2.43-3.84c.13-1.15-3.43-3.42-3.12-3.53l1.52-.56c.89-.32,2.91-.35,3.24-1.02l1.8-3.72,1.97,3.82c.49.94,3.24.79,4.9.98l-3.29,3.36.83,4.64Z"/>
  <path class="cls-1" d="M223.45,85.37c-.72-.3-2.46-1.55-3.17-1.16l-2.92,1.64.28-3.24c.08-.88-1.65-1.71-2.79-2.64l3.58-.85c.85-.2,1.29-2.08,1.86-3.33l1.85,3.04c.4.65,2.64.59,3.68.76-1.92,1.61-2.84,2.49-2.38,5.79Z"/>
  <circle class="cls-1" cx="191.36" cy="69.33" r=".92"/>
  <circle class="cls-1" cx="352.86" cy="101.44" r=".95"/>
  <path d="M354.14,411.42l.23,1.66c.03.25-.62.2-1.4.22l-7.17-24.41c-2.24-7.62-4.73-15.3-3.64-23.65l5.72,24.73,6.25,21.45Z"/>
  <path d="M449.7,352.75c-1.89-6.69,1.35-12.66.44-19.02l-.81-29.49c3.56,16.06,3.51,32.65.37,48.51Z"/>
  <path d="M209.34,325.39c2-6.46,8.53-10.02,13.91-13.62l14.5-9.72c17.33-11.61,26.42-35.93,48.45-52.16,10.99-8.1,23.5-15.67,37.58-16.22-15.26,4.79-28.29,10.14-40.01,20.34-8.87,7.71-16.28,16.23-23.02,25.99-8.95,12.95-19.74,23.33-33.51,31.16-6.67,3.8-11.97,8.41-17.91,14.24Z"/>
  <path d="M277.37,286.37c-4.39,8.6-11.21,16.56-20.96,19.22,8.03-6.22,16.03-10.5,19.48-20.33l1.48,1.11Z"/>
  <path d="M205.59,332.58c-4.13,7.15-5.75,15.59-8.53,23.66-1.16-5.62,4.43-21.67,8.12-25.2.24-.23.68,1.07.41,1.54Z"/>
  <path d="M107.97,268.07c-8.3-5.41-14.12-12.36-19.02-20.57-6.73-11.26-10.96-23.34-11.52-36.78-1.11-2.54-4.58-3.34-4.52-6.99,19.99,17.92,33.43,44.35,37.92,70.1-2.39-1.28-2.23-3.49-2.86-5.77ZM106.99,264.68c-5.28-20.14-14.54-37.42-27.71-52.17.82,11.75,4.52,22.15,10.04,32.02,4.59,7.68,9.69,15.43,17.68,20.15Z"/>
  <path d="M187.65,213.75c-.22,1.77-7.03-.8-10.33,4.74-.31.52-1.93,1.15-2.1.69s-.3-1.58-.13-2.05c1.56-4.49,7.1-6.24,11.37-5.05.46.13,1.26,1.2,1.2,1.67Z"/>
  <rect x="90.61" y="254.64" width="1.91" height="70.38" transform="translate(-212.38 291.18) rotate(-72.72)"/>
  <path d="M38.32,204.41v177.41c-1.76-19.03-.97-38.2-1.04-57.98l-.55-163.09c-.02-5.02,4.93-9.45,9.43-7.76-4.46,1.52-7.58,3.84-7.82,8.71-.72,14.29-.02,28.12-.02,42.71Z"/>
  <path d="M282.28,72.01c1.09,3.08-1.89,5.27-4.31,5.76s-5.85.09-6.7-2.85l6.19,1.15c1.43.27,3.18-2.34,4.82-4.07Z"/>
  <path class="cls-1" d="M106.99,264.68c-7.98-4.72-13.08-12.48-17.68-20.15-5.51-9.87-9.22-20.26-10.04-32.02,13.18,14.75,22.44,32.03,27.71,52.17Z"/>
</svg>