<?xml version="1.0" encoding="UTF-8"?>
<svg id="_レイヤー_1" data-name="レイヤー 1" xmlns="http://www.w3.org/2000/svg" viewBox="0 0 500 500">
  <defs>
    <style>
      .cls-1 {
        fill: #fff;
      }
    </style>
  </defs>
  <path d="M363.12,292.96l-21.28-5.18-.88-.71c-.16-.13-.25-.58-.06-.63l1.4-.35,24.63,5.96,22.87-6.17,1.63.47c.42.12-.51,1.55-1,1.69l-22.69,6.32-.08,9.89,26.38-7.64c.3-4.25.33-7.29-.25-10.95-4.19-1.05-8-3.01-12.03-3.17-8.13-.31-16.25.77-24.33.01-4.26-4.97-7.15,2.5-19.45-.96-1.66-.47-4.9,1.01-6.4,1.88-3.14,1.81-5.33,1.08-8.3.22-1.72-.5-3.52-.88-5.05-1.6l-2.51-1.18c-.72-.34-2.56-6.56-.03-9.55,4.1-4.85,9.54-8.64,16.03-9.67,2.58-.41,5.26.64,8.17.64l-5.48-15.25c-6.89,9.02-18.56,22.76-28.7,16.57-4.78-2.92-8.05-7.88-9.42-13.22l-5.58-21.76c-.63-2.45,4.21-3.45.88-9.81-3.02-2.5-6.4-4.67-8.62-8.04-1.88-3.88-2.28-11.94-1.51-13.76l2.75-6.45c.88-2.06,4.55-2.19,6.54-2.63,1.22-1.94,2.4-5.39,5.47-4.25,1.62.6,2.83.37,4.6-.24,9.74-3.4,25.97-1.46,26.73,3.49,1.27,8.29-2.52,19.91-8.48,22.52-4.28,1.87-9,1.12-13.17.19-1.16,4.39.68,8.03,3.85,10.6l4.4,8.75,14.24-22.97c9.48-15.3,23.15-15.94,24.99-18.31.43-.55-.47-2.64-1.19-2.82-14.16,2.26-26.27-10.22-27.18-23.42l-1.55-22.47c.61-7.23,4.05-13.49,9.82-17.85.41-.06,1.82-.01,1.69.34l-.51,1.47c-6.18,5.52-9.37,13.1-8.28,20.93,1.18-1.37,2.37-2.44,3.4-2.77,1.76-.57,3.98-.55,4.71,1.71l-4.52.71-3.58.77,1.11,15.45c.42,5.89,2.78,11.23,6.37,15.64,7.11,8.14,18.27,9.46,27.22,3.47l1.45-.34c.3-.07.86.51.84.82-.03.41-.59,1.51-.98,1.71l-6.49,3.24c.18,2.34.23,5.38-.13,7.44-2.02-.48-3.81-.46-4.78.69,5.65,10.34,23.71,5.77,32.38-2.17-7.72-3.55-9.2-8.07-10.18-16.16l-1.42.2c-.39.06-1.01-.66-1.26-1.06l6.87-11.12c2.38-.15,5.33-.47,6.8-2.1,1.75-1.93,2.57-4.52,1.93-7.39-.21-.93-1.59-2.37-2.45-2.84-.98-.54-2.99.9-4.06,1.08-4.92.8-9.17-4.21-9.49-9.1-8.48-1.74-15.01-7.04-17.4-15.23l.2-1.72c.06-.52,1.95.32,2.05.62,2.93,9.28,11.21,14.67,20.9,14.09l1.48.19c.4.05.55,1.68.15,1.74l-4.88.75c.3,2.56,3.17,6.49,6.06,5.89,2.24-.46,4.46-1.42,6.55-.41,4,1.92,5.22,8.48,1.46,13.43-1.74,2.29-4.72,3.35-7.88,3.47l-3.19,6.28c-.66,1.31,0,4.3.49,6.22l5.77,1.35c4.26.99,6.22-2.94,7.32-6.4,3.86,1.58,7.76,1.47,10.36-1.15,2.73-2.74,2.77-6.7.53-10.63,5.74-1.59,9.34-6.2,8.21-11.95-1.8-9.18-11.11-7.68-12.34-18.39-1.19-10.4-6.81-19.33-16.09-24.43-12.56-6.88-29.17-6.83-40.33,2.65-.33.28-1.39.54-1.77.44-.48-.12-.29-1.77.08-2.12,12.47-11.76,34.67-10.54,48.19.12,7.32,5.77,11.26,13.69,12.4,22.7,1.25,9.93,10.51,7.89,12.42,18.95,1.02,5.89-2.12,11.08-7.24,13.57,1.08,3.83.79,8.08-2.2,10.94-2.78,2.66-6.73,3.29-10.6,2.76-1.5,2.47-3.99,5.6-7.63,5.3l-6.09-.49c1.02,3.45,3.85,5.88,7.36,7.26,8.49,3.34,16.27,8.39,20.97,16.4,3.08,5.24,4.01,11.4,5.42,17.12l13.9,2.28,15.66,3.99c5.64,1.44,9.08,6.6,8.16,12.45l-4.92,31.41c-.64,4.06-4.04,6.01-7.64,6.42l-8.24,52.22c4.74,4.72,4.38,14.15-1.86,16.7l10.39,70.01c.37,2.49-3.89,3.39-5.39,3.07-1.97-.43-3.87-2.14-4.02-4.93l-11.77-64.06-29.62,9.14.02,78.25c0,.93-.58,3.26-1.39,3.58l-11.01,4.25c-2.75-.12-6.91-2.27-9.18-3.61-.6-.47-.91-2.67-.91-3.49l.28-55.23c.02-3.08.66-5.97-.25-8.76l-8.8,63.2c-.37,2.68-1.97,4.27-4.96,3.94-.93-.1-2.68-.72-3.39-1.25s-1.19-2.57-1.05-3.82l7.77-71.34-18.59-6.25-18.5,47.34-4.2,10.26c-2.37.05-4.27-.29-7.03-.85v14.09c2.11.26,3.71.8,4.32,1.9.77,1.41.24,3.97-.93,4.74l-3.33,2.2-.11,26.34c0,.96-.77,3.12-1.64,3.45-10.12,3.86-11.91,7.61-23.81.67l-.06-24.37c-8.35,1.15-19.31,2.19-25.19-2.52-3.55-2.85-2.43-7.55,1.07-10.65l-17.55.59c-3.27.11-7.1-1.72-8.95-4.36-2.38-3.39-.28-7.93,3.14-9.86,5.73-3.24,11.75-5.62,18.08-7.81,2.81,1,5.21.68,7.31-1.14,3.67-1.68,6.1-5.12,6.72-8.94-1.94-.86-3.71-2.09-4.71-4.02l16.03-56.48-48.39-12.46-.02,14.38-.35,52.14c-6.22,4.24-10.93,4.2-17.46,0l-.34-71.36-19.7-5.16c-.55-.14-1.42-1.31-1.24-1.72.23-.5,1.25-.75,2-.56l43.4,11.34,45.59,11.8v-11.9s-46.34-11.44-46.34-11.44l-57.58-14.09-1.56-1.28c-.39-.32,1.03-1.32,1.59-1.18l110.35,27.02c3.68.9,6.56.61,10-.37l24.86-7.13-.07-10.39-21.94,6.19c-6.13,1.73-11.4,1.28-17.58-.18l-89.42-21.14-73.31-17.48-1.49-.72c-.28-.13-.07-.86.1-1.12.23-.35,1.34-.6,1.86-.48l66.5,15.85,100.31,23.6c3.39.8,6.22,1.08,9.49.15l22.66-6.49-25.77-6.19-11.81-2.97-36.58-9.72c14.95.47,27.7,6.06,41.52,9.26l36.99,8.57,42.35-11.67ZM320.65,187.88c1.44,1.11,3.5.72,4.4-1.25-7.58-3.29-15.95-3.04-23.74-1.08-.31.23-1.93,1.55-1.49,1.73l2.03.87c6.23-2.18,12.56-2.03,18.8-.28ZM296.73,187.46c0-.81-.66-1.47-1.47-1.47s-1.47.66-1.47,1.47.66,1.47,1.47,1.47,1.47-.66,1.47-1.47ZM321.34,204.04c2.83-4.47,4.21-9.68,3.95-14.34-8.82,3.2-17.9,2.8-26.55-.15.85,10.14,3.24,18.56,13.67,18.57,3.63,0,6.71-.56,8.94-4.08ZM297.16,207.99c-5.79-2.32-12.87-.25-8.29-3.58l9.34.36c-2.49-3.74-6.06-2.98-9.31-3.47l-1.9-.29c-1.96-.3.68-3.94,10.96-.52-1.06-5.21-8.6-3.52-10.69-5.27-.34-.29.89-1.78,1.37-1.7l7.88,1.21c.22-.41-.46-2.67-1.21-3.06-2.41-1.24-6.59-1.83-8.95.04l-2.45,5.94c-.46,4.34-.46,7.39,1.12,11.75,2.21,3.04,5.57,5.54,8.8,7.88l2.14,9.14c3.93-.05,7.27-1.74,9.89-5.12l-2.95-6.7.65-6.27-3.6-3.75-1.36,6.07c-2.8,1.39-6.03,1.7-9.07.13,1.62-2.84,5.6-.02,7.6-2.81ZM336.28,235.22c-2.1,10.74,4.85,17.28,6.21,28.08,2.76,1.19,6.57,2.01,9.61,1.84,1-1.94,1.9-2.54,3.63-2.84l26.06-4.53,2.86-29.1c.52-.53,1.24-1.24,1.46-.89l.98,1.57-2.76,27.66c-.1,1.53-.96,2.7-2.36,3.26l-26.06,4.61c3.75,4.51,4.63,9.89,3.2,15.49l30.95-1.46c3.51-.85,7.63-1.38,9.99-4.32,6.92-8.65,8.56-34.25,8.2-47.08-.49-17.62-6.3-29.6-22.4-36.33-10.16,10.23-31.92,14.67-37.61,1.71-8.05,2.84-13.75,8.06-18.04,15.03l-14.78,24.02,2.95,6.52c.17.37-.45,2.02-.78,1.78l-1.46-1.1-8.25-16.69c-3.37,5.37-8.71,7.07-14.7,6.11l3.46,14.55c1.47,5.07,3.18,9.94,5.94,14.33,2.9,4.63,8.12,6.45,13.11,4.01s8.56-6.02,11.94-10.09l6.09-7.33c-.4-3.59-.57-6.92.2-10.34l2.73-12.12c.9-.21,2.02,1.3,1.86,2.12l-2.25,11.51ZM441.47,269.43l4.65-30.2c.04-4.33-1.78-8.05-6.06-9.28-9.39-2.71-18.96-5.02-28.75-6.55l4.87,46.61,17.17,4.93c4.06,1.17,7.11-1.37,8.13-5.5ZM395.8,298.21l-8.57,2.97c-.98.34-2.01,1.2-1.88,2.15.5,3.69,31.89,6.56,31.01-3.41l-5.29-60.28c-2,11.42-2.4,28.53-8.86,36.46-3.02,3.71-7.65,4.2-12.25,5.39,2.02.99,5.4,1.63,6.01,3.53,1.37,4.29.99,8.66-.16,13.18ZM335.15,276.22c-2.79,1.4-6.58,3.42-8.97,5.56,4.99.72,7.75-4.52,14.74-2.26,5.99,1.94,9.37-1.85,16.22-1.22.31-3.61-.32-8.4-2.81-11.06-8.33,1.51-15.58-3.57-21.62-3.08s-12.22,4.97-15.58,9.84c3.77-2.7,7.89-6.28,12.37-7.23.68-.14.45,1.9-.11,2.2-4.76,2.5-10.06,5.11-12.16,10.3,5.35-3.36,11.69-10.23,15.92-8.58,1.78.69-9.87,5.38-12.39,9.94,1.44.24,2.59-.27,3.82-1.12,11.41-7.88,13.26-4.64,10.57-3.29ZM413.58,325.41l5.48,1.34,7.9-50.83-10.53-3.15,2.33,27.25c.18,2.13-.83,4.3-2.38,5.76.64,6.88-.06,13.47-2.79,19.64ZM429.09,276.52l-8.15,51.77,4.49.71,8.15-51.77-4.49-.71ZM365.93,304.81l-.02-9.98-44.79,12.38.1,10.26,44.71-12.65ZM365.1,322.74l.42,27.02.08,45.43-.32,44.89c1.82,1.29,5.59,3.91,7.73,3.09l9.85-3.78.41-137.01-10.03,3.01.17,94.67c.02,13.77.99,26.72-.97,40.86-1.73-10.8-1.04-20.96-1.07-31.62l-.19-54.62-.03-33.96-6.04,2.02ZM329.08,330.54l42.09-12.31.1-12.31-66.97,18.85.24,13.13,24.54-7.36ZM413.85,315.98l.27-8.86c-9.84,3.2-19.31,2.44-28.55-.29l-.1,34.47c14.9-3.48,25.58-9.82,28.37-25.32ZM223.48,361.09l.3-34.29-13.62-3.6.48,69.13c3.89,3.21,9.26,3.01,12.82.02v-31.27ZM332.63,355.64c1.24-2.44,2.78-3.74,5.14-4.61l25.18-5.18-.06-22.6-32.07,9.28-26.27,7.82-.46,72.71c1.68,1.1,3.88,1.55,5.51,1.14l14.81-37.04,8.21-21.52ZM281.07,467.83l8.41,3.48,12.1-4.91.61-140.89-12.7,3.01c-2.77.66-6.03-.96-9.1-1.52l.38,79.84.29,60.99ZM385.41,350.59l.06,6.77,36.93-11.81c1.43-.46,3.68-1.68,4.63-2.87,1.68-2.1,2.03-7.74-.29-9.51-4.07-3.11-9.39-4.08-14.28-5.63-6.21,9.86-15.59,13.61-26.92,16.26l.05,4.31,39.25-12.78c0,2.11-1.68,3.12-3.45,3.69l-35.98,11.57ZM278.3,402.37l-.8-62.64-16.35,56.68c5.32,3.4,11.43,5.36,17.15,5.96ZM433.59,415.73l-10.12-67.92-6.23,2.13,12.18,65.78c.11.62,1.35,1.5,1.92,1.68s2.38-.77,2.25-1.67ZM363.01,354v-5.73s-16.49,3.37-16.49,3.37c5.72,2.55,10.54,3.51,16.49,2.36ZM363.02,363.26l.02-7.06c-7.47,1.69-13.6-.77-20.14-3.14-2.67-.97-6.45.92-8.09,3.82l15.87,5.6c3.98,1.4,7.83,1.34,12.34.78ZM351.54,438.19l10.03-72.47-6.94.19-7.39,70.38c-.15,1.4.3,2.75,1.07,3.17.84.46,3.03.13,3.23-1.26ZM278.38,417.24l-.16-12.46-12.53-2.99c-2.52,6.29-4.52,7.87-10.16,11.04,2.94,2.52,4.57,4.91,5.76,8.47l17.09-4.06ZM273.21,423.14c1.5.05,3.05.01,3.87-.32s1.33-2.07,1.07-3.5c-5.22,2.35-10.68,3.51-16.46,4.33-.37.24-1.37,1.13-1.59.8l-1.11-1.64c-1-5.21-4.52-9.02-9.76-9.82l-16.77,7.28c-1.92,1.45-4.24,4.06-2.43,6.44,4.22,5.55,22.29,3.48,30.65.94,4.21-1.28,7.75-4.67,12.53-4.5ZM278.6,442.56l-.2-14.11c-1.18-1.34-4.04-3-5.91-3.19-7.26,2.58-20.05,8.35-18.68,13.78,1.29,5.13,16.69,5.5,24.79,3.53ZM304.46,435.86c1.24-.95,2.32-2.47,1.82-2.75l-2.14-1.21.32,3.96Z"/>
  <path d="M91.39,432.12c-7.65,1.2-15.38.45-21.87-4.13-1.48-1.04-1.62-2.75-1.04-4.44-7.22-3.36-10.7-11.83-8.62-12.7l2.53-1.05c-2.45-4.63-3.72-10.08-1.92-15.24l2.92.43c-.01-5.01,1.29-9.41,5.21-12.71,1.11-.93,3.31-.55,4.82.24,5.81-6.51,15.14-5.26,14.97-3.71l-.29,2.61,6.71,2.72c.63.25,1.66,2.22,1.19,2.69l-1.99,1.99c-7.28,1.43-11.66,7.71-11.29,14.95.36,4.75,2.09,9.11,6.17,11.94,1.39-10.7,5.46-19.9,12.2-27.87l13.49-15.95c-1.4-4.04,1.87-5.9,4.7-8.87l-1.41-2.61c-.31-.57.92-1.77,1.4-2.24l3.2-3.1-3.18-1.69c-.61-.32-1.02-2.22-.82-2.89l2.38-8.19-2.5-1.81c-.62-.44-.08-2.7.23-3.4l3.62-8.19c-1.9-8.36-2.83-24.91,1.36-27.74,3.58-2.42,11.01,4.37,15.29,8.51,3.79-2.2,8.14-3.4,12.11-4.54l5.68-11.6c.43-.87,2.28-1.99,3.17-1.99,1.05,0,2.79,1.12,3.33,2.28l6.63,14.28c2.88,4.08,8.13,6.49,9.64,12,6.64.74,10.42,6.11,10.91,12.45.69,8.83-3.58,16.05-8.6,23.03-2.57,3.57,3.93,9.6,4.01,12.27.02.79-1.19,2.09-1.83,2.85l2.83,8.55c.54,1.62-1.35,3.37-2.67,3.82l.35,7.79c.05,1.09-2.09,2.49-3.51,2.74-1.93,12.07-3.03,24.28-2.53,36.6.26,6.45,7.23,6.36,5.65,12.51-.53,2.06-3,3.74-5.43,4.21-5.85,1.12-11.47-1.41-12.67-7.27l-4.05-19.87-3.61,2.68,1.35,14.93c.49,5.45,6.76,6.49,6.48,11.49-.09,1.61-1.4,3.71-3.18,4.52-4.2,1.91-10.04,1.99-13.36-1.62-2.85-3.1-4.11-7.69-5.68-11.37-4.81.55-8.37-2.49-11.55-.21,2.1,1.28,3.82,2.46,4.48,3.8,1.02,2.05.75,4.87-.95,6.31-2.67,2.27-6.73,2.9-10.24,2.05l-24.6-5.94c-3.45-.83-4.63-3.78-4.42-6.73-2.02-2.09-3.84-3.92-5.22-7.56ZM141.93,424.05c1.98,8.38,4.24,15.9,7.61,23.36,1.29,2.86,3.95,5.06,7.18,4.53.32-.6-.37-2.37-.97-3.6-.09-.4,1.99-.41,2.2.16l.97,2.66c.16.43,1.56.85,1.78.44s.18-1.1.06-1.65l-.76-3.4c1.78,1.25,2.03,1.56,3.32,2.82.68-3.85-4.69-4.45-5.93-10.42-1.67-10.73-1.98-21.27-.59-32.06.27-.45,1.42-1.48,1.61-1.06.14.31.4,1.32.39,1.76l-.47,11.58c6.98-4.82,12.12-10.56,14.82-18.24.27-.37,1.41-1.02,1.65-.64,1.62,2.65-5.04,13.4-10.64,17.27l4.07,21c.73,3.77,3.82,6.43,7.75,5.86l-1.45-3.31c-.03-.32,1.84-.67,2.06-.22l.92,1.85.7,1.62c.16.36,1.55.03,1.47-.36l-.26-1.36-.65-3.35,2.96,2.55c-.17-4.58-5.39-3.8-5.76-11.03-.69-13.66.7-27.08,2.92-40.35l3.49.49-1.6-10.76,3.83-.1-4.7-11.46,3.31-.95c-1.95-2.89-3.44-5.55-4.54-8.62l-2.69.15,6.95-9.92c3.37-4.8,5.16-10.89,4.8-16.65-.33-5.1-3.11-8.84-8.07-10-2.94-.68-4.35-6.14-8.89-9.93-.44,1.71-.8,3.04-1.55,3.56-.64.44-2.71.41-3.53.05s-1.03-2.8-.43-3.44,2.08-1.19,3.33-1.57l-1.59-1.8c-1.56-5.27-3.56-10.64-6.9-15.58-3.38,3.39-4.98,7.55-6.07,11.38,1.04.44,1.95,1.25,1.61,1.54-1.69,1.46-10.04.24-16.87,6.26-4.1-4.13-12.6-11.38-13.76-9.73l-1.21,1.72c-1.35,8-.96,15.63.99,23.8l-4.26,10.18,3.04.83c.62.17.12,2.21-.08,2.84l-2.79,8.94,3.53.45c1.25,3.63-.57,6.34-3.68,8.11l1.85,2.26c1.07,1.31-3.72,3.67-5.89,6.94l1.22,2c.18.3-.58,1.28-.81,1.56l-14.58,17.33c-9.82,11.68-14.84,29.66-7.31,43.51,1.02,1.88,3.07,3.64,4.79,5.21l-.64,3.22c.77.69,3.21,2.09,4.61,2.42l25.42,5.91-1.69-5.01c2.45-.2,3.29,2.03,3.58,4.22.54,0,1.98-.49,1.84-.91l-.69-1.96-.58-1.66c-.12-.34,1.05-.08,1.4-.08l1.48-.03c-1.8-2.25-4.81-2.95-7.92-3.8-5.52-1.51-9.11,2.86-9.88-.97,7.1-1,12.26-5.17,13.93-11.92s-.58-13.74-5.93-18.26c-2.58-2.18-7.41-2.64-9.84-2.08-.5.11-1.24-1.32-.9-1.46l1.2-.5c4.67-1.19,10.11.86,13.23,4.61,7.09,8.5,6.87,20.04-1.5,28.47,5.59-.75,10.19-3.53,14.68-6.29l-2.7-10.19c-3.9-.48-1.5-3.05-3.32-6.11-.16-3.45.38-7,1.53-10.51,2.12,2.77.43,5.43.91,8l1.01,5.44c.95.97,2.44,2.55,2.9,4.49ZM168.34,312.61l-2.25,1.53,1.04,1.54,2.25-1.53-1.04-1.54ZM70.93,425.75c5.01,3.87,12.48,5.35,19.23,3.93l-1.48-11.07c-5.64-3.25-8.7-9.43-8.5-16.04.26-8.17,5.2-14.31,13.16-16.36-3.11-1.54-5.7-2.05-8.89-2.65l1.41-3.63c-6.33-.26-10.3,3.01-13.75,8.33-.94-1.26-.89-2.66-.95-4.76-5.06,3.29-5.5,8.31-5.42,14-1.22-.2-2.23-.85-3.31-1.84-1.26,6.02.75,10.63,3.87,16.12l-4.7.67c1.66,5.03,6.04,8.04,10.82,10.31-.19.84-.83,2.04-1.5,2.98ZM143.24,438.55l-1.04-3.42-3.94,2.37,4.97,1.06Z"/>
  <path d="M331.31,89.24l-5.09-7.19-48.18-1.41-.29,12.02c-2.21,1.32-5.63,1.15-7.44-.59l-1.98-5.26-5.4-6.55-8.34-.35c-.9-.04-2.64-.69-3.14-1.37-1.16-1.55-1.28-5.81-.26-7.75.41-.78,2.4-1.48,3.36-1.45l14.37.32c-1.65-7.34-5.1-17.89-.22-19.37l-5.13-5.39c-.32-.33-.67-1.61-.72-2.04-.07-.53,1.14-1.67,1.73-1.67l5.81.08-1.01-6.56c-.11-.68.73-2.13,1.28-2.38,2.57-1.15,5.51,2.14,7.74,5.31,1.45-3.31,3.51-6.42,6.07-7.41.54-.21,2.15.74,2.25,1.33l1.16,7.22c1.38-.69,4.3-1.42,5.62-.74,2.79,1.45-.57,8.14-3.86,12.38,1.06-.06,3.84.65,3.93,1.8.45,5.89-.77,12.09-2.72,18.08l14.2.35,5.15-26.11,20.76.24c.85,0,2.83,1.28,2.67,2.17l-1.36,7.73,4.48,16.65,12.67-.18c1.12-.02,3.09,1.48,2.98,2.51l-.71,6.79-10.55,1.46-.34,12.43c-1.49,2.08-6.64,1.85-7.63-.59l-1.85-4.55ZM285.04,40.3l-.25-7.21c-3.78,2.85-4.82,6.92-4.3,11.5l4.55-4.29ZM278.16,45.69c-.37-5.23-2.6-8.6-6.35-11.22.33,3.08,1.05,5.78,2.07,8.35l4.28,2.87ZM292.26,40.05c-5.92,1.56-9.82,4.22-11.14,9.9,5.8,1.88,9.39-3.45,11.14-9.9ZM277.47,49.91c-2.27-4.55-6.65-6.46-11.9-6.49,3.14,4.13,7.03,7.91,11.9,6.49ZM326.5,71.39l4.55-23.96-18.85-.44-4.67,23.87,18.97.53ZM287.87,70.2c2.44-5.95,3.46-11.19,3.27-17.16l-22.57-.17c.36,6.11,1.32,11.21,3.28,16.83l16.02.49ZM334.2,71.25l-3.03-11.15-2.16,11.28,5.19-.13ZM253.16,71.69l-.17,5.86,81.61,2.33.17-5.86-81.61-2.33ZM349.78,78.41l-.08-4.79-12.82.36v5.8s12.9-1.37,12.9-1.37ZM275.55,90.91v-10.37s-9.48.06-9.48.06c3.68,3.52,5.6,5.66,6.02,10.22l3.46.09ZM338.65,92.78l.06-10.5-9.63.27c3.27,3.54,5.11,5.71,5.86,9.53.2.93,3,1.32,3.71.7Z"/>
  <path d="M96.49,220.67l-.24-90.7-66.33,10.97-1.56-.89c-.33-.19.73-1.2,1.13-1.51l71.5-11.87,1.93.31c.52.08.81,1.55.82,2.27l.25,89.55,6.49-1.37-.36-92.16,24.12-4.07,1.63.55c.44.15-.22,1.38-.57,1.74l-22.84,3.74.32,89.6,22.91-5.15,1.96.45c.52.12-.5,1.68-1.07,1.82l-106.09,24.45c-.45.1-1.75-.4-1.69-.8.08-.53.92-1.58,1.55-1.72l66.14-15.22ZM101.56,129.08h-3.12s.18,91.01.18,91.01h3.12s-.18-91.01-.18-91.01Z"/>
  <path d="M211.14,227.31l.37-7.52-4.76,1.67-65.06,15.96-111.19,26.88-1.8-.35c-.48-.09.32-1.79.82-1.91l150.09-36.37,28.1-7.1-26.97-5.05c-.38-.42-.93-1.18-1.1-1.6s1.27-.78,1.7-.76l30.14,5.47c1.08.33,2.46,1.83,2.45,2.83l-.06,7.37c-.01,1.19-1.46,2.75-2.96,3.13l-104.91,26.35-76.25,18.92c-.65.16-1.88-.21-2-.71s.75-1.5,1.47-1.68l141.95-35.33,39.98-10.2Z"/>
  <path d="M83.08,463.47l-1.39.39c-.33.09-.26-1.57.04-1.74l7.76-4.14-6.98-2.76-9.22,4.17c-.41.19-1.46.12-1.87.05s.41-1.62.81-1.8l7.4-3.29-4.24-1.97-8.49,4.84-.89-.95c-.24-.26.56-1.07.9-1.26l6.57-3.66-8.21-4.1-10.25,4.22c-.33.14-1.4-.14-1.68-.28-.36-.18.55-1.34.99-1.53l8.3-3.59-8.47-3.78-10.09,4.22c-.39.16-1.6-.39-1.44-.68s.76-1.13,1.1-1.28l7.84-3.48-5.25-2.29-10.82,3.74c-.52.18-.96-1.7-.47-1.87l8.37-2.9-.51-1.14-13.41,2.13-.34-1.42c-.06-.26.75-.56,1.07-.62l10.41-1.88c.42-1.66,1.31-3.09,2.86-3.89l18.86-5.35c.5.2,1.75.91,1.47,1.19l-1.19,1.22c-6.43,2.01-12.34,3.27-19.54,6.22l36.33,16.92,21.63,9.26,30.91,14.54c2.1.99,4.84,1.17,6.91.44l19.59-6.86,20-7.56,24.96-8.28,23.01-9-31.05-13.17-13.36-5.19c-.46-.18-1.03-1.18-1.03-1.51s.91-.93,1.23-.83l5.16,1.66c3.41-1.27,5.38-4.2,9.62-2.91l-7.08,3.87,4.1,1.53,6.5-2.94c.45-.2,1.92-.18,1.8.16s-.49,1.21-.81,1.37l-4.66,2.35c.41.57,2.66,1.74,3.54,1.38l6.96-2.86c.33-.14,1.88-.08,1.74.24s-.57,1.14-.87,1.28l-5.74,2.68,6.22,2.75,6.62-3.28c.3-.15,1.82-.05,1.7.26s-.5,1.16-.8,1.31l-4.93,2.62c7,5.09,10.68-2.02,15.38.3l-7.26,3.19,7.25,2.73c3.35-1.37,5.7-3.93,9.62-2.38l-7.24,3.56-.65,3.73-17.64,7.02-27.56,9.36-22.71,8.53-19.59,6.8c-2.7,1.12-5.41,1.07-8.57.73l-9.59,4.97c-.39.2-1.69-.02-2.07-.17s.54-1.37.94-1.57l8.35-4.34-7.5-3.34-9.53,4.37c-.45.21-1.68.03-2.05-.08s.44-1.45.87-1.65l8.29-3.69-5.91-2.88-9.23,4.7c-.4.2-1.97.14-1.86-.21s.51-1.25.86-1.43l7.91-4.08-10.55-5.18-10.96,4.62c-.26.11-1.24-.07-1.48-.11s.3-1.41.52-1.51l9.54-4.11-7.05-3.4-8.71,4.51Z"/>
  <path d="M255.09,222.25l-.51,23.08-1.08-.02-.24-9.25.55-38.64-.48-15.66-19.14-2.8-.2,61.41c-.05.46-.81,2.19-1.12,1.85l-1.38-1.5.31-61.64-1.52-2.79.08-10.55c.01-1.89,1.41-3.53,3.43-4.24l-.02-142.74c0-.68.63-1.75,1.06-1.81.53-.08,1.38.92,1.38,1.8v142.88s62.56,8.02,62.56,8.02c.42.15,1.85,1.42,1.43,1.6l-1.87.8-62.69-8.01c-1.1-.18-2.73.92-2.72,1.82l.14,10.51,48.57,6.83,1.22,1.48c.28.34-1.26.83-1.69.86l-25.9-3.51-.16,40.2Z"/>
  <path d="M465.26,151.3l1.26-114.15c.01-1.18-.72-2.49-1.9-2.51l-86.08-.96-.41,61.63-1.01,1.35c-.27.37-1.19-.87-1.35-1.37l.35-60.04c.07-2.67,2.04-4.1,4.51-4.06l28.26.4,9.74-9.37c.72-.7,1.24-3.04,2.31-3.15,1.24-.13,2.69.63,3.72,1.54l12.69,11.31,27.32.34c2.93.04,4.33,1.99,4.3,4.89l-1.14,112.84c-.02,2.1-1.76,3.83-3.79,3.66l-46.84-3.85c-.53-.04-1.74-.87-1.57-1.33s1.01-.86,1.83-1.09l47.81,3.94ZM412.43,31.42l20.9.24-8.5-7.71c-1.61,1.15-3.22,1.27-5.08.75l-7.32,6.71Z"/>
  <path d="M157.36,185.26c.37-8.32-1.58-16-5.05-23.11l-5.8.1c-6.81.12-12.44-3.61-15.55-9.56-3.56-6.81-8.22-10.11-7.75-11.42.77-2.11,12.02-3.05,19.79,0,8,3.13,12.51,10.62,11.38,19.36l3.44,8.37c.57-9.89-1.27-19.42-3.93-28.8-4.83-2.3-10.2-4.91-12.45-10.24-2.77-6.56-2.72-14.16-.47-21.21,5.75,1.87,10.35,5.26,13.87,9.67,4.8,6.02,4.95,13.97,1.54,20.87l3.21,16.04,2.29-7.89c-3.11-8.14-.76-16.98,6.01-22.73,4.34-3.68,9.5-6.04,15.79-6.1l-2.97,12.8c-1.9,8.21-7.54,14.19-16.21,15.85-1.47,4-2.4,7.9-3.29,12.12-1.11,8.61-1.62,16.96-1.76,25.65l-.65,1.07c-.16.26-.68-.19-1.44-.84ZM150.76,124.88l4.57,10.66c3.62-10.6-2.4-18.39-12.9-23.75-1.77,11.34-.68,21.52,11.08,25.34-1.31-5.43-6.5-14.98-4.28-13.49.26.17,1.39.95,1.52,1.25ZM165.42,144.36c6.87-1.46,11.1-6.35,12.63-12.48l2.68-10.77c-11.46,2.53-19.48,10.95-17.45,22.33,2.7-4.17,3.33-9.51,8.2-11.52-2.08,4.61-5.04,8.09-6.06,12.45ZM137.55,148.22c-.18-.43-.35-1.72.02-1.65l1.32.25c5.16,1.91,9.28,6.16,13.12,10.31-.35-12.51-13.94-17.46-25.41-14.79l6.43,8.96c1.87,4.54,5.54,7.09,10.17,8.4l7.71.26c-2.98-5.69-7.43-8.98-13.36-11.74Z"/>
  <path d="M146.73,291.5l2.21.89c.42.17-.39,1.96-.86,1.85l-12.86-2.99-.25,7.26c-.01.37-.83,1.59-1.03,1.36s-.89-1.09-.89-1.4l-.07-7.64-9.44-2.29-.15,5.86c-.01.48-.67,1.67-1.08,1.56s-1.03-1.08-1.04-1.55l-.15-6.44-8.33-2.17c-1.22-.32-3.14-2.34-3.15-3.48l-.09-8.84c-.02-2.21,1.92-4.08,4.09-4.63l52.31-13.31,46.42-11.98c3.46-.89,6.75-.63,10.33.02l73.21,16.14.93,1.33c.24.35-1.2.86-1.77.97l-72.54-15.95c-3.3-.61-6.38-.93-9.55-.12l-29.28,7.52c2.24,1.19,4.59-.02,5.21,2.96l-9.16-1.89-34.79,8.99,10.53,2.95c8.8,2.46,17.98,3.08,26.66,7.57-14.22-1.86-27.22-6.59-41.23-9.27-9.47,1.67-18.64,4.47-28.29,6.95-1.17,3.75-1.02,7.34-.2,11.37l34.3,8.38Z"/>
  <path d="M235.24,281.89c-11.3,8.42-43.07,5.49-45.45-2.2-1.03-3.31,1.95-5.08,4.99-6.27-5.06-2.62-7.69-8.07-4.95-13.14,1.28-2.38,4.61-2.47,6.88-3.07,1.06-1.57,2.4-3.76,4.71-4.42,7.74-2.23,15.86-2.34,23.53.05,6.81,2.12,4.63,11.68,2.01,19.43,3.16.22,6.22,1.25,8.54,3.2,2.04,1.72,1.95,4.76-.26,6.41ZM226.44,256.2c-8.23-3.55-17.94-3.84-26.19-.15.16.91,1.28,2.18,1.84,2.01l2.07-.62c13.6-4.08,21,3.68,22.28-1.24ZM226.83,259.49c-9.07,3.16-18.2,3.12-27.35-.02-.1,4.71,1.35,9.9,3.99,14.15,2.19,3.54,5.46,4.72,9.38,4.86,10.68.37,13.67-9.22,13.98-18.99ZM193.11,266.46c-.44-.95-.25-3.41.5-3.95.66-.47,2.02-.96,3.53-1.59-.42-1.55-3.1-1.26-4.27-.31-.9.74-1.79,2.81-1.64,4.41.37,4.09,4.64,7.35,8.4,6.76-2.75-2.02-5.2-2.42-6.53-5.33ZM197.93,267.86c-.08-2.57-.72-4.21-2.13-4.05-.65.4-.5,2.57.13,2.93l1.99,1.12ZM195.86,281.77c11.61,3.72,23.67,3.86,34.91.02,1.76-.6,3.94-2.11,3.89-3.89-2.67-2.15-5.93-3.06-9.07-3.63-2.36,5.15-7.19,6.45-12.01,6.66-5.6.25-8.67-2.03-12.5-5.48-2.4-2.16-7.57.63-9.22,2.95.72,1.41,2.26,2.81,4,3.37Z"/>
  <path d="M413.84,140.46l44.93,3.59,1.07-103.04-75.15-1.11-.43,57.32-.89,1.42c-.2.32-.99-1.04-1.1-1.42l.36-56.98c.09-1.1,1.21-2.37,2.39-2.35l74.13,1.05c1.59.02,2.75,1.45,2.73,3.1l-1.08,102.27c-.01.96-1.86,1.84-2.8,1.8l-43.52-3.53-1.13-.44c-.31-.12.1-1.01.49-1.65Z"/>
  <path d="M454.83,344.49l.53-74.58.2-61.12-25.7-3.77-.33,13.98c-.01.47-.3,1.32-.37,1.51-.1.29-.87-.24-1.3-.54l.04-15.2-17.07-2.56-1.05-1.45c-.24-.33,1.03-.75,1.61-.84l67.84,9.82,1.19,1.49c.25.32-1.21.89-1.64.84l-21.51-2.98-.29,50.98-.37,53.48-.21,69.59c-.01,3.67.28,7.22-1.36,10.83l-.21-49.44Z"/>
  <rect x="107.67" y="113.63" width="195.67" height="2.83" transform="translate(90.37 320.5) rotate(-89.97)"/>
  <path d="M28.46,132.62l-.98-1.26c-.19-.25.76-.78,1.19-1.02l72.61-11.47-.08-100.1c.24-.44.62-1.06.82-.94l1.44.92.19,102.14-75.2,11.72Z"/>
  <path d="M180.97,183.62c1.24,3.02.89,6.76.44,9.85l-2.09,1.74-3.68,25.84c-.26,1.84-3.49,3.43-5.22,3.89-7.7,2.05-15.58,1.84-23.26.1-3.18-.72-5.12-3.07-5.6-6.19l-3.58-23.3-2.27-1.87c-.58-5.41-1.42-10.07,3.06-11.52s11.63-2.74,12.77-.99-7.66,1.23-13.7,3.94c-.2,2.89-.14,4.9.28,7.8,12.32,3.98,28.21,3.5,40.73-.08.65-2.8.76-4.94.33-7.93l-12.08-2.78c-.45-.1-1.24-.81-1.43-1.03-1.17-1.3,8.87-1.55,15.3,2.51ZM170.04,222.56c2.04-.78,3.4-2.32,3.66-4.27l3.03-22.2c-12.21,2.48-24.29,2.62-36.29.15l3.45,21.56c.42,2.63,1.67,4.35,4.38,4.96,7.12,1.54,14.34,1.54,21.78-.2Z"/>
  <path d="M112.85,115.05l-.25,2.02,22.33-3.56,1.44,1.2c.32.27-.93,1.18-1.36,1.25l-22.85,3.68c-.64.1-1.8-.86-2.13-1.57l-.08-100.05,1.26-.86c.35-.24,1.15,1.09,1.15,1.56l.03,94.25,21.87-3.21,1.25.18c.4.06-.2,1.39-.45,1.76l-22.22,3.36Z"/>
  <path d="M178.27,163.55c6.63.03,12.21,6.01,11.51,12.27l-8.13-.97c-4.98-.59-9.07-.63-12.99-4.21-1.98,1.64-3.7,3.64-4.15,6.06l-1.39,7.64c-.06.32-.71,1.41-.94,1.19l-1.21-1.12c.71-9.33,2.94-18.27,7.85-26.24.78-8.51,6.84-14.76,15.27-15.99,7.49-.41,14.71.78,11.43,4.02l-6.2,6.13c-3.4,5.56-9.18,8.62-15.77,7.9l-3.67.31-3.33,8.68c3.83-2.76,6.55-5.7,11.72-5.68ZM186.47,152.22l6.34-7.2c-10.75-2.1-19.37,1.68-21.69,12.54,5.89,1.47,11.17-.6,15.35-5.33ZM179.93,172.4l7.21.34c-1.22-3.13-4-6.01-6.79-6.53-3.78-.71-7.43.39-9.57,3.22,2.89,2.17,5.73,2.8,9.15,2.97Z"/>
  <path d="M30.28,127.99c-.4.06-1.88-.76-1.62-.95l1.29-.95,66.23-10.42-.23-96.97c0-.46.73-1.71,1.09-1.54s.97,1.06.97,1.56l.33,98.83-68.05,10.43Z"/>
  <path d="M168.37,115.81l.02-4.93-13.97,2.13-1.1-.28c-.38-.1,0-1.72.4-1.78l14.7-2.5-.08-89.74.56-1.29c.13-.31.89-.71,1.02-.4l.73,1.68.26,99.75c-.12.49-1.12,2.06-1.37,1.66l-1.29-2.03-7.05,1.12c-.44.07-1.58-.41-1.66-.84s.74-1.36,1.21-1.43l7.6-1.14Z"/>
  <rect x="26.34" y="232.18" width="114.29" height="2.69" transform="translate(-51.04 25.18) rotate(-13.18)"/>
  <rect x="176.82" y="16.91" width="2.5" height="98.31"/>
  <path d="M306.47,274.94c2.56,7.93-22.3,13.28-40.47,5.83-1.88-.77-3.64-2.92-3.73-4.5-.62-10.3,40.96-11.39,44.2-1.33ZM300.1,279.46c1.55-.49,4.05-2.19,4.07-3.42-.3-2.15-3.17-3.35-5.19-3.91-9.91-2.76-20.08-2.41-30,.38-1.52.43-4.01,2.08-4.31,3.44.43,1.75,2.73,2.99,4.44,3.52,10.09,3.09,20.64,3.28,30.98,0Z"/>
  <rect x="436.32" y="144.77" width="2.57" height="86.02" transform="translate(196.41 598.37) rotate(-82.79)"/>
  <path d="M154.86,185.81c-1.7-.88-2.23-8.39-7.38-13.76-3.26,2.2-6.71,4.58-10.7,4.56l-13.57-.07c.26-5.93,6.48-11.6,12.03-12.27,9.96-1.21,19.65,10.88,20.5,19.63l.14,1.45c.03.26-.79.57-1.02.45ZM137.17,174.15c2.97-.02,5.96-2.17,8.17-3.5-3.02-3.55-7-4.79-11.46-3.56-3.04.84-6.37,3.61-7.61,7.14l10.9-.08Z"/>
  <path d="M254.77,356.01l9.39,2.3c.34.08,1.17,1.36.89,1.54l-1.19.75-31.09-6.89c-1.48.96-2.66,1.07-4.03.25l2.77-2.59-.06-16.67c0-.45.59-1.33.87-1.48.38-.2,1.41.84,1.42,1.29l.08,16.93,19.19,4.24-.11-16.36.81-1.16c.18-.25.9,1.08.9,1.63l.16,16.24Z"/>
  <path d="M417.44,392.47l-27.46-5.98-1.29-1.46c-.29-.33,1.38-.99,1.91-.88l9.06,1.92c1.07-7.73-.94-15.05,1.14-22.94,1.96,8.04.35,15.57.85,23.36l16.53,3.69.67,1.09c.22.36-.93,1.03-1.42,1.2Z"/>
  <rect x="456.59" y="378.43" width="2.7" height="43.46" transform="translate(-32.25 760.1) rotate(-77.44)"/>
  <path d="M446.09,100.52c-.01.93-.35,1.93-.76,2.12s-1.83-.3-2.09-.77l-5.55-9.79-.38,9.4c-.01.29-.95,1.21-1.19,1.05-.36-.24-1.1-1.23-1.1-1.8l.03-12.68c0-.48.68-1.79,1.14-1.79s1.49.61,1.71,1l5.69,10.2.4-9.78c.02-.44.59-1.34.84-1.59.33-.34,1.46.97,1.45,1.58l-.18,12.85Z"/>
  <path d="M320.46,140.58l-.31,2.27c-.26,1.85-6.12-5.23-3.75-15.14,1.85-7.73,6.7-14.36,14.11-17.2,1.55-.59,3.17-.72,3.98,1.21-5.94,1.79-10.19,4.87-13.02,9.97-3.35,5.75-4.41,12.54-1,18.89Z"/>
  <path d="M417.88,69.56l-4.84-.32-1.04,4.69c-.08.37-.76,1.13-1.03,1.36-.36.3-1.52-1.06-1.38-1.58l3.74-14.17c.17-.64,1.42-1.69,2.01-1.86.71-.2,2.19.97,2.44,1.97l3.53,13.86c.12.47-.51,1.77-.71,2.03-.26.34-1.29-.47-1.48-.86l-1.25-5.11ZM417.48,66.86l-2.01-6.03-1.98,6.09,3.99-.06Z"/>
  <path d="M406.26,86.79c3.21,5.85.57,13.69-3.97,13.89-1.59.07-3.88-1.08-4.63-2.63-1.92-3.94-1.74-8.29.71-12,.62-.93,2.85-1.77,3.93-1.67,1.16.11,3.34,1.29,3.96,2.41ZM404.39,88.23c-.35-.7-1.88-1.61-2.58-1.52-2.78.34-4.22,6.17-2.01,10.36.31.59,1.84,1.37,2.49,1.26,2.47-.44,4.23-5.84,2.1-10.1Z"/>
  <path d="M142.11,188.14c-.72-.31-1.7-.68-1.61-1.02l.44-1.62c11.22,2.01,22.16,2.19,33.18.31l1.53-.51c.41-.14,1.22.98.92,1.29l-1.46,1.44c-10.9,1.81-21.77,1.87-32.99.11Z"/>
  <path d="M443.5,68.73l-4.21.08.15,4.98,5.95.26c.3.01.71.99.73,1.28s-.92,1.12-1.31,1.1l-7.88-.45.17-16.81,8.24-.02c.32,0,1,1.3.82,1.56-.24.35-1.17.81-1.63.8l-5.2-.1.26,4.78,4.78.38c.33.03.93,1.23.7,1.48s-1.05.67-1.57.68Z"/>
  <rect x="43.05" y="63.27" width="45.95" height="1.92" transform="translate(-25.04 78.04) rotate(-52.84)"/>
  <path d="M430.06,94.7l-4.67.11.03,4.72,4.86.18c.43.02,1.34.6,1.56.92.3.43-.97,1.62-1.59,1.56l-7.27-.64.02-16.08,8.14.14c.38,0,.61,1.88.24,1.94l-1.63.26-4.31.1-.03,4.35,4.78.33c.59.04.52,2.11-.13,2.12Z"/>
  <rect x="421.66" y="90.67" width="1.9" height="44.23" transform="translate(283.58 527.5) rotate(-86.41)"/>
  <path d="M413.01,100.24c-.03.52-1.01,1.63-1.35,1.32s-.9-1.38-.9-1.97l.17-14.3c2.05-1.45,5.14-1.08,7.1.34,2.06,1.49,2.55,4.23,1.43,6.54-.91,1.88-3.19,2.77-6.15,3.05l-.3,5.01ZM413.16,92.96c2.08-.47,3.55-1.01,4.17-1.8.55-.7.42-3.28-.42-3.51l-3.77-1.05.03,6.36Z"/>
  <path d="M26.77,422.58c-.46.16-2.25-.32-2-.71l1.09-1.65,26.21-8.88,1.76.04c.47.01.3,1.3.11,1.84l-27.17,9.36Z"/>
  <rect x="42.94" y="86.69" width="41.18" height="1.93" transform="translate(-44.7 85.38) rotate(-52.86)"/>
  <path d="M431.78,65.83c.47,0,1.43,1.46,1.12,1.65-.41.24-1.38.64-1.91.66l-3.97.15-.05,5.94c0,.42-.42,1.38-.76,1.47-.46.11-1.31-.56-1.76-1.07l.31-16.32,7.78.06c.42,0,1.4.9,1.43,1.23.03.44-.91,1.16-1.37,1.15l-5.5-.13v5.15s4.68.07,4.68.07Z"/>
  <path d="M400.43,61.19c-2.65,5.01-1.59,10.56,1.67,11.35,1.66.4,2.11-.97,4.56-1.51.48-.11.46,1.81.12,2.19-1.09,1.21-3.59,2.05-5.29,1.65-5.23-1.24-6.44-9.11-3.22-14.67.68-1.17,2.58-2.52,3.72-2.69,1.54-.22,3.69.64,4.78,1.63l-.23,1.77c-.05.36-1.53.03-1.83-.27-.91-.89-3.43-1.06-4.28.54Z"/>
  <path d="M317.42,162.48c1.02,5.21,7.16,5.77,7.17,8.46-4.11.42-7.32-2.7-8.77-5.64-1.91-3.86-1.23-7.9,1.25-11.22,1.3-1.75,2.05-3.68,3.05-5.65l.66-1.31c.59-1.15,2.84,3.11-1.12,7.68-1.96,2.26-2.83,4.64-2.23,7.68Z"/>
  <rect x="423.6" y="100.41" width="1.88" height="39.27" transform="translate(277.53 536.02) rotate(-86.33)"/>
  <path d="M352.92,134.35l1.42,1.27c.98.88-5.22,3.05-12.43-3.42-7.22-6.48-5.24-15.77-3.97-14.14l1.02,1.29c.06,7.92,5.72,14.52,13.96,14.99Z"/>
  <path d="M309.05,175.35c-.39.21-1.55.65-1.68.36-.68-1.53,4.02-6.76-3.39-11.73-2.1-1.41-3.72-4.23-3.84-6.23-.19-3.05.45-6.3,3.75-7.22-.89,2.71-2.05,4.9-1.89,7.1s2.09,4.28,3.99,5.56c4.26,2.67,5.3,7.48,3.06,12.16Z"/>
  <path d="M262.69,268.57l-27.31-6.39c-.13-.48-.28-.91-.09-.97l1.5-.52,25.2,6.02.98.68c.25.17-.1.97-.27,1.19Z"/>
  <path d="M278.14,250.98c-.39.14-1.38.46-1.43.14l-.29-1.92.19-15.49.24-16.67h1.04s.24,16.59.24,16.59v17.36Z"/>
  <path d="M433.82,128.35l-22.48-1.54c-.36-.02-1.25-.17-1.24-.42l.04-1.09c0-.25.79-.22,1.18-.23l22.7,1.5,1.21.48c.24.1.3,1.19.04,1.2l-1.45.09Z"/>
  <path d="M53.59,394.24l-.15,1.65c-.03.36-.93.48-1.54.5-1.42-6.86,1.24-13.65,6.71-17.82l1.19-.39c.32-.11.74.53,1.02,1.1-4.87,3.69-7.23,8.72-7.21,14.97Z"/>
  <path d="M192.08,367.24c-.41.14-1.51-.07-1.83-.2-.43-.17.27-1.79.72-1.94l13.44-4.65c.4-.14,1.51.44,1.69.73s-.51,1.39-.93,1.54l-13.09,4.53Z"/>
  <path d="M346.27,378.21l-12.56-2.9c-.35-.08-1.24-.69-1.51-.86s.52-1.71.83-1.64l13.62,3.04c.34.08,1.15,1.03,1.36,1.25s-1.42,1.18-1.75,1.11Z"/>
  <path d="M338.73,171.17c-.47-.39.04-2.03.61-2.25,3.72,2.96,7.96,2.83,10.99-.68l1.46-.14c.43-.04.27,1.39-.03,1.77-2.91,3.85-8.74,4.9-13.03,1.3Z"/>
  <path d="M150.59,109.37c-.38.06-1.49-.55-1.75-.78s.75-1.14,1.19-1.2l13.47-2c.44-.07,1.57.2,1.92.3s-.3,1.47-.67,1.53l-14.17,2.15Z"/>
  <path d="M262,315.79c-6.32-.78-12.7-3.05-18.95-5.57,6.84-.28,12.8,2.4,18.95,5.57Z"/>
  <path d="M52.17,378.54c-5.6,5.86-5.04,15.04-6.06,13.76-2.8-3.51,1.36-13.87,6.06-13.76Z"/>
  <polygon points="132.37 283.99 116.07 279.46 116.79 278.26 132.23 282.55 132.37 283.99"/>
  <path d="M341.16,163.52c-1.38,1.43-5.15-.94-4.67-2.91.6-2.48,1.81-4.98,3.17-7.08,1.43,2.43.22,4.38-1.03,6.66l2.54,3.32Z"/>
  <path d="M358.38,145.23c-5.37-3.03-6.14-1.26-8.37-1.8-.43-.11.33-1.65.76-1.81,2.43-.91,5.75-.37,7.9,1.56.44.4.2,2.33-.29,2.05Z"/>
  <path d="M319.68,296.26c-4.37.31-8.83-1.14-13.47-2.24l.57-1.37c4.46,1.03,8.3,1.52,12.9,3.61Z"/>
  <path d="M353.3,156c-1.68.11-2.66-1.53-2.72-2.62-.07-1.17.89-2.75,2.44-2.69.82.03,1.85,1.46,1.97,2.19.16.93-.66,3.05-1.7,3.12Z"/>
  <path d="M332.45,155.54c-1.62.15-2.52-1.3-2.62-2.26-.09-.89.7-2.93,1.58-3.06,1.27-.18,2.41,1.25,2.57,2.09.19.96-.42,3.13-1.54,3.23Z"/>
  <path d="M384.09,295.08c-3,1.36-5.94,2-9.39,2.34,2.13-2.63,5.73-3.15,9.39-2.34Z"/>
  <rect x="285.38" y="319.87" width="7.6" height="1.82" transform="translate(-32.73 608.69) rotate(-89.77)"/>
  <path d="M445.29,52.78c-1.23,2-3.3,3.32-5.39,3.75-.88-2.25,4.42-5.71,5.39-3.75Z"/>
  <path d="M363.5,162.5l-3.3-1.63c-.78-.39-2.44.6-4.02,1.1.25-1.65,1.94-2.79,3.26-2.75,2,.07,4.16,1.17,4.06,3.27Z"/>
  <path d="M303.74,318.9l5.9-5.04c-.02,2.68-2.22,5.65-5.9,5.04Z"/>
  <rect x="183.05" y="418.01" width="4.58" height="1.87" transform="translate(-169.63 129.36) rotate(-26.93)"/>
  <path class="cls-1" d="M336.28,235.22l2.25-11.51c.16-.82-.96-2.33-1.86-2.12l-2.73,12.12c-.77,3.41-.6,6.75-.2,10.34l-6.09,7.33c-3.38,4.07-7.18,7.76-11.94,10.09-4.99,2.44-10.21.62-13.11-4.01-2.76-4.39-4.47-9.25-5.94-14.33l-3.46-14.55c5.98.96,11.32-.74,14.7-6.11l8.25,16.69,1.46,1.1c.33.25.95-1.4.78-1.78l-2.95-6.52,14.78-24.02c4.29-6.97,9.99-12.19,18.04-15.03,5.69,12.96,27.45,8.51,37.61-1.71,16.1,6.73,21.91,18.71,22.4,36.33.36,12.83-1.28,38.43-8.2,47.08-2.36,2.95-6.48,3.47-9.99,4.32l-30.95,1.46c1.44-5.6.55-10.98-3.2-15.49l26.06-4.61c1.4-.56,2.25-1.74,2.36-3.26l2.76-27.66-.98-1.57c-.22-.35-.94.36-1.46.89l-2.86,29.1-26.06,4.53c-1.73.3-2.63.9-3.63,2.84-3.04.16-6.85-.66-9.61-1.84-1.36-10.8-8.31-17.34-6.21-28.08Z"/>
  <path class="cls-1" d="M281.07,467.83l-.29-60.99-.38-79.84c3.07.56,6.33,2.18,9.1,1.52l12.7-3.01-.61,140.89-12.1,4.91-8.41-3.48ZM290.3,330.17h-2.67s.49,138.79.49,138.79h2.67s-.49-138.79-.49-138.79ZM297.67,387.59l1.33-26.78c-.17-2.73.19-5.44-1.46-7.87l-.39,15.86c.17,6.25-1.96,12.35.51,18.79ZM297.79,441.04c1.55-7.48.8-14.77-.7-22.19-.83,7.56-.33,14.57.7,22.19Z"/>
  <path class="cls-1" d="M332.63,355.64l-8.21,21.52-14.81,37.04c-1.63.4-3.83-.04-5.51-1.14l.46-72.71,26.27-7.82,32.07-9.28.06,22.6-25.18,5.18c-2.36.87-3.9,2.17-5.14,4.61Z"/>
  <path class="cls-1" d="M365.1,322.74l6.04-2.02.03,33.96.19,54.62c.04,10.66-.66,20.82,1.07,31.62,1.96-14.14.99-27.1.97-40.86l-.17-94.67,10.03-3.01-.41,137.01-9.85,3.78c-2.13.82-5.91-1.8-7.73-3.09l.32-44.89-.08-45.43-.42-27.02ZM376.72,346.29c.85-7.67,1.27-15.22.2-22.81-1.8,7.79-1.49,15.2-.2,22.81ZM377,396.05c1.53-7.43,2.71-14.69.76-21.74-1.01,7.68-1.56,14.47-.76,21.74Z"/>
  <path class="cls-1" d="M441.47,269.43c-1.01,4.14-4.07,6.67-8.13,5.5l-17.17-4.93-4.87-46.61c9.8,1.54,19.36,3.85,28.75,6.55,4.29,1.24,6.11,4.96,6.06,9.28l-4.65,30.2ZM435.71,271.28c4.51-10.23,4.61-21.08,6.17-31.47.61-4.07-1.96-7.21-5.43-8.7l-18.98-4.64c-.44.16-1.34.48-1.24.73l.43,1.04,19.16,4.62c3.42,1.37,4.42,3.95,4.17,7.42-.74,10.36-4.03,20.17-4.28,31Z"/>
  <path class="cls-1" d="M395.8,298.21c1.15-4.52,1.53-8.89.16-13.18-.61-1.91-3.98-2.54-6.01-3.53,4.6-1.19,9.23-1.68,12.25-5.39,6.46-7.93,6.86-25.04,8.86-36.46l5.29,60.28c.87,9.96-30.51,7.1-31.01,3.41-.13-.95.9-1.81,1.88-2.15l8.57-2.97Z"/>
  <path class="cls-1" d="M329.08,330.54l-24.54,7.36-.24-13.13,66.97-18.85-.1,12.31-42.09,12.31ZM360.59,314.47c-6-.14-11.95.99-16.66,4.31,5.96-.97,11.12-2.27,16.66-4.31ZM330.39,325.6c2.64-.62,4.96-.91,6.69-3.01l-9.22,2.14c-5.81,1.35-11.81,2.22-16.69,5.4l19.22-4.53Z"/>
  <path class="cls-1" d="M223.48,361.09v31.27c-3.57,2.99-8.94,3.19-12.83-.02l-.48-69.13,13.62,3.6-.3,34.29ZM215.95,325.88l-.15,66.21h2.1s.15-66.2.15-66.2h-2.1Z"/>
  <path class="cls-1" d="M413.85,315.98c-2.79,15.5-13.47,21.84-28.37,25.32l.1-34.47c9.23,2.73,18.71,3.49,28.55.29l-.27,8.86Z"/>
  <path class="cls-1" d="M278.3,402.37c-5.71-.6-11.83-2.57-17.15-5.96l16.35-56.68.8,62.64Z"/>
  <path class="cls-1" d="M385.41,350.59l35.98-11.57c1.77-.57,3.45-1.58,3.45-3.69l-39.25,12.78-.05-4.31c11.33-2.65,20.71-6.39,26.92-16.26,4.89,1.55,10.21,2.52,14.28,5.63,2.32,1.77,1.96,7.41.29,9.51-.95,1.18-3.2,2.41-4.63,2.87l-36.93,11.81-.06-6.77Z"/>
  <path class="cls-1" d="M365.93,304.81l-44.71,12.65-.1-10.26,44.79-12.38.02,9.98ZM352.08,302.46c-1.55.47-2.54,2.29-2.58,4.35,1.36-.71,2.25-2.1,2.58-4.35ZM338.16,309.25c2.84-1.04,3.82-3.21,3.62-5.77-1.66,1.65-2.91,3.49-3.62,5.77Z"/>
  <path class="cls-1" d="M273.21,423.14c-4.78-.17-8.31,3.22-12.53,4.5-8.36,2.54-26.42,4.62-30.65-.94-1.81-2.38.51-4.99,2.43-6.44l16.77-7.28c5.24.8,8.76,4.61,9.76,9.82l1.11,1.64c.22.32,1.22-.57,1.59-.8,5.78-.82,11.24-1.98,16.46-4.33.25,1.43-.21,3.16-1.07,3.5s-2.37.37-3.87.32Z"/>
  <path class="cls-1" d="M335.15,276.22c2.69-1.36.84-4.59-10.57,3.29-1.23.85-2.38,1.36-3.82,1.12,2.52-4.55,14.17-9.24,12.39-9.94-4.23-1.65-10.57,5.22-15.92,8.58,2.1-5.19,7.4-7.8,12.16-10.3.56-.3.79-2.34.11-2.2-4.48.95-8.61,4.53-12.37,7.23,3.36-4.87,9.36-9.33,15.58-9.84s13.28,4.59,21.62,3.08c2.49,2.66,3.12,7.46,2.81,11.06-6.85-.63-10.23,3.15-16.22,1.22-6.98-2.26-9.75,2.98-14.74,2.26,2.39-2.14,6.19-4.16,8.97-5.56Z"/>
  <path class="cls-1" d="M351.54,438.19c-.19,1.39-2.39,1.72-3.23,1.26-.77-.42-1.21-1.77-1.07-3.17l7.39-70.38,6.94-.19-10.03,72.47Z"/>
  <path class="cls-1" d="M433.59,415.73c.13.9-1.67,1.85-2.25,1.67s-1.81-1.07-1.92-1.68l-12.18-65.78,6.23-2.13,10.12,67.92Z"/>
  <path class="cls-1" d="M321.34,204.04c-2.23,3.52-5.31,4.09-8.94,4.08-10.43,0-12.81-8.43-13.67-18.57,8.65,2.95,17.74,3.35,26.55.15.26,4.66-1.12,9.87-3.95,14.34Z"/>
  <path class="cls-1" d="M278.6,442.56c-8.1,1.97-23.5,1.61-24.79-3.53-1.37-5.42,11.42-11.2,18.68-13.78,1.87.19,4.73,1.85,5.91,3.19l.2,14.11Z"/>
  <path class="cls-1" d="M297.16,207.99c-2,2.8-5.98-.03-7.6,2.81,3.04,1.57,6.27,1.26,9.07-.13l1.36-6.07,3.6,3.75-.65,6.27,2.95,6.7c-2.62,3.38-5.97,5.07-9.89,5.12l-2.14-9.14c-3.23-2.35-6.59-4.84-8.8-7.88-1.59-4.36-1.59-7.41-1.12-11.75l2.45-5.94c2.35-1.88,6.54-1.28,8.95-.04.75.39,1.44,2.65,1.21,3.06l-7.88-1.21c-.49-.08-1.72,1.41-1.37,1.7,2.1,1.75,9.64.07,10.69,5.27-10.28-3.43-12.92.22-10.96.52l1.9.29c3.25.5,6.81-.27,9.31,3.47l-9.34-.36c-4.58,3.33,2.49,1.26,8.29,3.58Z"/>
  <path class="cls-1" d="M413.58,325.41c2.72-6.16,3.42-12.75,2.79-19.64,1.55-1.45,2.57-3.62,2.38-5.76l-2.33-27.25,10.53,3.15-7.9,50.83-5.48-1.34Z"/>
  <path class="cls-1" d="M278.38,417.24l-17.09,4.06c-1.19-3.56-2.81-5.95-5.76-8.47,5.64-3.17,7.64-4.76,10.16-11.04l12.53,2.99.16,12.46Z"/>
  <rect class="cls-1" x="401.05" y="300.48" width="52.41" height="4.54" transform="translate(61.72 677.71) rotate(-81.05)"/>
  <path class="cls-1" d="M363.02,363.26c-4.51.56-8.36.62-12.34-.78l-15.87-5.6c1.65-2.9,5.42-4.79,8.09-3.82,6.54,2.37,12.66,4.84,20.14,3.14l-.02,7.06Z"/>
  <path class="cls-1" d="M363.01,354c-5.96,1.15-10.78.19-16.49-2.36l16.49-3.37v5.73Z"/>
  <path class="cls-1" d="M320.65,187.88c-6.24-1.76-12.57-1.9-18.8.28l-2.03-.87c-.44-.19,1.18-1.51,1.49-1.73,7.79-1.96,16.16-2.21,23.74,1.08-.9,1.97-2.96,2.37-4.4,1.25Z"/>
  <circle class="cls-1" cx="295.26" cy="187.46" r="1.47"/>
  <path class="cls-1" d="M304.46,435.86l-.32-3.96,2.14,1.21c.5.28-.58,1.8-1.82,2.75Z"/>
  <path class="cls-1" d="M141.93,424.05c-.46-1.94-1.95-3.52-2.9-4.49l-1.01-5.44c-.48-2.57,1.21-5.23-.91-8-1.15,3.52-1.68,7.07-1.53,10.51,1.83,3.06-.57,5.63,3.32,6.11l2.7,10.19c-4.49,2.77-9.09,5.55-14.68,6.29,8.37-8.43,8.59-19.97,1.5-28.47-3.12-3.74-8.56-5.8-13.23-4.61l-1.2.5c-.34.14.4,1.58.9,1.46,2.44-.56,7.27-.09,9.84,2.08,5.36,4.52,7.62,11.48,5.93,18.26s-6.84,10.92-13.93,11.92c.78,3.83,4.36-.54,9.88.97,3.12.85,6.12,1.54,7.92,3.8l-1.48.03c-.36,0-1.52-.25-1.4.08l.58,1.66.69,1.96c.15.42-1.3.91-1.84.91-.29-2.19-1.13-4.42-3.58-4.22l1.69,5.01-25.42-5.91c-1.41-.33-3.84-1.73-4.61-2.42l.64-3.22c-1.72-1.57-3.76-3.33-4.79-5.21-7.53-13.85-2.51-31.83,7.31-43.51l14.58-17.33c.23-.27.99-1.25.81-1.56l-1.22-2c2.17-3.27,6.96-5.63,5.89-6.94l-1.85-2.26c3.1-1.77,4.93-4.48,3.68-8.11l-3.53-.45,2.79-8.94c.2-.63.7-2.67.08-2.84l-3.04-.83,4.26-10.18c-1.95-8.17-2.34-15.8-.99-23.8l1.21-1.72c1.16-1.65,9.66,5.6,13.76,9.73,6.84-6.03,15.18-4.8,16.87-6.26.34-.29-.56-1.11-1.61-1.54,1.1-3.83,2.69-7.99,6.07-11.38,3.33,4.94,5.34,10.31,6.9,15.58l1.59,1.8c-1.25.38-2.74.92-3.33,1.57s-.37,3.09.43,3.44,2.89.39,3.53-.05c.75-.52,1.1-1.85,1.55-3.56,4.55,3.8,5.95,9.25,8.89,9.93,4.96,1.15,7.75,4.9,8.07,10,.37,5.76-1.43,11.84-4.8,16.65l-6.95,9.92,2.69-.15c1.1,3.07,2.59,5.74,4.54,8.62l-3.31.95,4.7,11.46-3.83.1,1.6,10.76-3.49-.49c-2.22,13.27-3.61,26.69-2.92,40.35.37,7.22,5.59,6.45,5.76,11.03l-2.96-2.55.65,3.35.26,1.36c.08.39-1.31.72-1.47.36l-.7-1.62-.92-1.85c-.22-.45-2.09-.1-2.06.22l1.45,3.31c-3.93.58-7.02-2.09-7.75-5.86l-4.07-21c5.61-3.87,12.27-14.62,10.64-17.27-.23-.38-1.38.26-1.65.64-2.7,7.68-7.84,13.43-14.82,18.24l.47-11.58c.02-.44-.24-1.45-.39-1.76-.19-.42-1.35.61-1.61,1.06-1.39,10.8-1.08,21.33.59,32.06,1.24,5.98,6.61,6.57,5.93,10.42-1.29-1.26-1.55-1.57-3.32-2.82l.76,3.4c.12.55.15,1.24-.06,1.65s-1.62,0-1.78-.44l-.97-2.66c-.21-.58-2.29-.56-2.2-.16.6,1.23,1.29,3.01.97,3.6-3.24.54-5.89-1.67-7.18-4.53-3.37-7.46-5.63-14.98-7.61-23.36ZM159.8,306.04l1.13-7.34c.05-.35-.07-1.26-.13-1.57s-1.12.37-1.31.63c-1.06,2.7-1.55,6.15-1.11,9.25l5.25,1.22c-.3-2.23-1.05-2.16-3.84-2.19ZM135.55,316.51c-.48-4.92-7.23-9.99-8.68-8.32-1.82,2.1-.43,10.87,1.42,16.04l1.39-.21c.92-.14-2.26-8.4-1.61-14.19,3.8,1.64,4.84,5.59,7.49,6.69ZM157.3,319.13c-.47-2.97-3.05-2.81-4.75-2.39-1.55.38-3.64,1.63-2.7,4.11.45,1.19,3.33,1.49,4.69,1.2,1.09-.23,2.94-1.79,2.76-2.92ZM174.63,320.4c0-1.32-1.07-2.4-2.4-2.4s-2.4,1.07-2.4,2.4,1.07,2.4,2.4,2.4,2.4-1.07,2.4-2.4ZM177.03,334.44c-3.2,5.68-9.67,6.2-14.97,2.64-.77,5.41,5.37,3.16,10.04,7.38,2.29,2.07,6.02,3.63,8.57,1.31s1.14-6.3-.56-8.67c2.04-.36,3.73-.97,4.52-2.29.86-1.44.76-3.65-.9-4.2l-.91,2.85c-.19.59-1.99,1.12-2.52.8-3.23-1.95,3.72-8.58-.92-10.12-1.32-.44-4.11-.04-5.76-.01-13.36.2-11.22,11.4-20.32,10.22-7.11-.93-13.43,2.9-15.35,9.51-1.9,6.55,1.07,13.13,7.62,16.11l6.04,3.51c-.59-2.65-2.98-3.93-5.19-4.98-5.73-2.71-8.55-8.16-6.83-14.13,1.58-5.48,6.84-9.17,13.1-8.56,11,1.08,8.63-9.43,19.09-9.95-.32,1.18-.55,3.04.11,3.66.6.57,2.15,1.46,2.92,1.69l2.23.67c.48.14.26,2.11,0,2.57ZM159.04,327.54c0-1.56-1.26-2.82-2.82-2.82s-2.82,1.26-2.82,2.82,1.26,2.82,2.82,2.82,2.82-1.26,2.82-2.82ZM154.53,400.96l-3.41-8.4c-5.02-1.38-2.4-8.88-3.85-8.67l-2.9.4,1.58-8.18c-3.05,1.84-3.38,6-2.94,9.11.11.79,2.11,1.23,2.98.96-.03,3.37.52,6.64,3.91,8.19l3.05,7.43c.24.58.39,1.3.72,1.21l.71-.2c.22-.06.25-1.63.16-1.84Z"/>
  <path class="cls-1" d="M70.93,425.75c.67-.94,1.31-2.15,1.5-2.98-4.79-2.26-9.16-5.28-10.82-10.31l4.7-.67c-3.11-5.49-5.12-10.1-3.87-16.12,1.07,1,2.08,1.65,3.31,1.84-.08-5.69.36-10.71,5.42-14,.07,2.1.01,3.5.95,4.76,3.45-5.31,7.42-8.58,13.75-8.33l-1.41,3.63c3.19.6,5.78,1.11,8.89,2.65-7.96,2.05-12.91,8.2-13.16,16.36-.21,6.61,2.86,12.79,8.5,16.04l1.48,11.07c-6.75,1.42-14.23-.06-19.23-3.93Z"/>
  <polygon class="cls-1" points="143.24 438.55 138.27 437.49 142.21 435.13 143.24 438.55"/>
  <rect class="cls-1" x="166.38" y="313.21" width="2.72" height="1.86" transform="translate(-147.51 148.5) rotate(-34.18)"/>
  <rect class="cls-1" x="290.95" y="34.96" width="5.87" height="81.65" transform="translate(209.73 367.38) rotate(-88.36)"/>
  <path class="cls-1" d="M326.5,71.39l-18.97-.53,4.67-23.87,18.85.44-4.55,23.96ZM323.8,57.46l.28-2.12c.12-.9-.86-2.91-1.59-3.46s-2.84-.49-3.63.08l-5.11,3.67c2.93,2.83,3.99-2.15,7.53-2.15.34,0,2.16,6.72,2.52,3.98ZM322.16,64.08c-1.98.92-4.58,1.93-5.85.99-.73-.55-.92-2.94-1.09-4.03-1.47.92-1.62,3.27-.83,4.56.98,1.58,2.9,1.97,4.71,1.71s3.62-1.53,3.05-3.22Z"/>
  <path class="cls-1" d="M287.87,70.2l-16.02-.49c-1.95-5.62-2.92-10.72-3.28-16.83l22.57.17c.19,5.96-.83,11.21-3.27,17.16Z"/>
  <polygon class="cls-1" points="349.78 78.41 336.86 79.78 336.87 73.98 349.7 73.62 349.78 78.41"/>
  <path class="cls-1" d="M338.65,92.78c-.71.62-3.5.23-3.71-.7-.75-3.82-2.59-5.99-5.86-9.53l9.63-.27-.06,10.5Z"/>
  <path class="cls-1" d="M275.55,90.91l-3.46-.09c-.42-4.57-2.33-6.7-6.02-10.22l9.47-.06v10.37Z"/>
  <path class="cls-1" d="M292.26,40.05c-1.75,6.45-5.34,11.78-11.14,9.9,1.32-5.68,5.22-8.34,11.14-9.9Z"/>
  <path class="cls-1" d="M277.47,49.91c-4.87,1.42-8.77-2.36-11.9-6.49,5.26.03,9.64,1.94,11.9,6.49Z"/>
  <path class="cls-1" d="M278.16,45.69l-4.28-2.87c-1.02-2.57-1.74-5.27-2.07-8.35,3.75,2.63,5.98,5.99,6.35,11.22Z"/>
  <polygon class="cls-1" points="334.2 71.25 329.01 71.38 331.17 60.09 334.2 71.25"/>
  <path class="cls-1" d="M285.04,40.3l-4.55,4.29c-.52-4.58.52-8.65,4.3-11.5l.25,7.21Z"/>
  <rect class="cls-1" x="98.52" y="129.08" width="3.12" height="91.01" transform="translate(-.34 .19)"/>
  <path class="cls-1" d="M412.43,31.42l7.32-6.71c1.86.52,3.47.4,5.08-.75l8.5,7.71-20.9-.24Z"/>
  <path class="cls-1" d="M137.55,148.22c5.93,2.76,10.38,6.05,13.36,11.74l-7.71-.26c-4.64-1.31-8.3-3.86-10.17-8.4l-6.43-8.96c11.47-2.67,25.06,2.28,25.41,14.79-3.83-4.15-7.96-8.4-13.12-10.31l-1.32-.25c-.36-.07-.2,1.22-.02,1.65Z"/>
  <path class="cls-1" d="M150.76,124.88c-.13-.3-1.26-1.07-1.52-1.25-2.22-1.49,2.97,8.06,4.28,13.49-11.76-3.82-12.85-14-11.08-25.34,10.49,5.36,16.51,13.15,12.9,23.75l-4.57-10.66Z"/>
  <path class="cls-1" d="M165.42,144.36c1.03-4.36,3.99-7.83,6.06-12.45-4.88,2.01-5.51,7.35-8.2,11.52-2.03-11.38,5.99-19.8,17.45-22.33l-2.68,10.77c-1.53,6.13-5.75,11.02-12.63,12.48Z"/>
  <path class="cls-1" d="M226.83,259.49c-.31,9.78-3.3,19.36-13.98,18.99-3.91-.14-7.19-1.32-9.38-4.86-2.64-4.26-4.09-9.45-3.99-14.15,9.14,3.14,18.27,3.18,27.35.02Z"/>
  <path class="cls-1" d="M195.86,281.77c-1.74-.56-3.28-1.96-4-3.37,1.65-2.33,6.83-5.11,9.22-2.95,3.83,3.45,6.9,5.73,12.5,5.48,4.82-.22,9.65-1.52,12.01-6.66,3.14.57,6.4,1.48,9.07,3.63.04,1.78-2.13,3.29-3.89,3.89-11.25,3.84-23.3,3.7-34.91-.02Z"/>
  <path class="cls-1" d="M226.44,256.2c-1.28,4.92-8.68-2.84-22.28,1.24l-2.07.62c-.56.17-1.68-1.1-1.84-2.01,8.25-3.69,17.96-3.4,26.19.15Z"/>
  <path class="cls-1" d="M193.11,266.46c1.33,2.9,3.78,3.31,6.53,5.33-3.77.59-8.03-2.68-8.4-6.76-.14-1.6.74-3.67,1.64-4.41,1.17-.95,3.85-1.24,4.27.31-1.51.63-2.87,1.12-3.53,1.59-.75.54-.94,2.99-.5,3.95Z"/>
  <path class="cls-1" d="M197.93,267.86l-1.99-1.12c-.63-.36-.79-2.53-.13-2.93,1.41-.15,2.05,1.48,2.13,4.05Z"/>
  <path class="cls-1" d="M170.04,222.56c-7.43,1.74-14.65,1.74-21.78.2-2.71-.61-3.95-2.33-4.38-4.96l-3.45-21.56c12,2.47,24.08,2.33,36.29-.15l-3.03,22.2c-.27,1.95-1.62,3.49-3.66,4.27Z"/>
  <path class="cls-1" d="M186.47,152.22c-4.17,4.74-9.46,6.8-15.35,5.33,2.32-10.85,10.94-14.64,21.69-12.54l-6.34,7.2Z"/>
  <path class="cls-1" d="M179.93,172.4c-3.42-.16-6.26-.8-9.15-2.97,2.14-2.84,5.79-3.93,9.57-3.22,2.78.52,5.57,3.4,6.79,6.53l-7.21-.34Z"/>
  <path class="cls-1" d="M300.1,279.46c-10.34,3.29-20.89,3.1-30.98,0-1.71-.52-4.02-1.77-4.44-3.52.3-1.36,2.8-3.01,4.31-3.44,9.92-2.79,20.09-3.13,30-.38,2.01.56,4.89,1.75,5.19,3.91-.02,1.22-2.52,2.92-4.07,3.42ZM292.47,276.74c-5.61.92-10.66,1.17-15.99-.67l4.45-2.51c-3.65-1.41-7.36,2.03-6.27,3.06l1.47,1.4c5.78,1.4,11.57,1.29,17.47.23l.7-.87c.15-.18.22-.97-.02-.93l-1.8.3Z"/>
  <path class="cls-1" d="M137.17,174.15l-10.9.08c1.23-3.52,4.57-6.29,7.61-7.14,4.45-1.24,8.44,0,11.46,3.56-2.21,1.33-5.2,3.48-8.17,3.5Z"/>
  <polygon class="cls-1" points="417.48 66.86 413.5 66.92 415.48 60.83 417.48 66.86"/>
  <path class="cls-1" d="M404.39,88.23c2.13,4.26.36,9.66-2.1,10.1-.65.12-2.18-.67-2.49-1.26-2.21-4.19-.76-10.02,2.01-10.36.7-.09,2.23.82,2.58,1.52Z"/>
  <path class="cls-1" d="M413.16,92.96l-.03-6.36,3.77,1.05c.85.24.97,2.81.42,3.51-.62.79-2.09,1.33-4.17,1.8Z"/>
  <rect x="287.88" y="330.17" width="2.67" height="138.78" transform="translate(-1.4 1.02)"/>
  <path d="M297.67,387.59c-2.48-6.45-.34-12.54-.51-18.79l.39-15.86c1.65,2.43,1.29,5.14,1.46,7.87l-1.33,26.78Z"/>
  <path d="M297.79,441.04c-1.03-7.62-1.53-14.63-.7-22.19,1.5,7.42,2.25,14.71.7,22.19Z"/>
  <path d="M376.72,346.29c-1.29-7.61-1.6-15.02.2-22.81,1.07,7.59.65,15.14-.2,22.81Z"/>
  <path d="M377,396.05c-.8-7.27-.25-14.07.76-21.74,1.95,7.05.77,14.31-.76,21.74Z"/>
  <path d="M435.71,271.28c.25-10.83,3.53-20.64,4.28-31,.25-3.47-.74-6.06-4.17-7.42l-19.16-4.62-.43-1.04c-.1-.25.79-.56,1.24-.73l18.98,4.64c3.46,1.49,6.03,4.64,5.43,8.7-1.56,10.39-1.66,21.24-6.17,31.47Z"/>
  <path d="M330.39,325.6l-19.22,4.53c4.88-3.18,10.88-4.05,16.69-5.4l9.22-2.14c-1.73,2.11-4.05,2.39-6.69,3.01Z"/>
  <path d="M360.59,314.47c-5.54,2.03-10.7,3.34-16.66,4.31,4.72-3.31,10.66-4.44,16.66-4.31Z"/>
  <rect x="183.83" y="357.93" width="66.21" height="2.1" transform="translate(-142.53 575.12) rotate(-89.87)"/>
  <path d="M338.16,309.25c.71-2.27,1.96-4.12,3.62-5.77.21,2.56-.78,4.72-3.62,5.77Z"/>
  <path d="M352.08,302.46c-.33,2.25-1.21,3.64-2.58,4.35.04-2.06,1.03-3.88,2.58-4.35Z"/>
  <path d="M177.03,334.44c.26-.47.49-2.43,0-2.57l-2.23-.67c-.77-.23-2.32-1.11-2.92-1.69-.65-.62-.42-2.48-.11-3.66-10.46.52-8.09,11.03-19.09,9.95-6.25-.61-11.52,3.08-13.1,8.56-1.72,5.97,1.11,11.42,6.83,14.13,2.21,1.05,4.59,2.33,5.19,4.98l-6.04-3.51c-6.55-2.98-9.52-9.56-7.62-16.11,1.92-6.61,8.24-10.43,15.35-9.51,9.1,1.19,6.96-10.01,20.32-10.22,1.65-.02,4.43-.43,5.76.01,4.64,1.54-2.31,8.17.92,10.12.53.32,2.33-.21,2.52-.8l.91-2.85c1.66.54,1.76,2.76.9,4.2-.78,1.31-2.48,1.93-4.52,2.29,1.7,2.38,3.02,6.44.56,8.67s-6.28.75-8.57-1.31c-4.67-4.21-10.81-1.97-10.04-7.38,5.3,3.56,11.77,3.05,14.97-2.64ZM178.47,344.37c2.65-1.69.73-5.23-.5-6.3l-5.59,3.52c.92,1.06,4.54,3.77,6.09,2.78Z"/>
  <path d="M154.53,400.96c.09.21.05,1.77-.16,1.84l-.71.2c-.32.09-.48-.63-.72-1.21l-3.05-7.43c-3.39-1.54-3.94-4.82-3.91-8.19-.87.27-2.87-.17-2.98-.96-.44-3.11-.12-7.28,2.94-9.11l-1.58,8.18,2.9-.4c1.45-.2-1.17,7.29,3.85,8.67l3.41,8.4Z"/>
  <path d="M135.55,316.51c-2.65-1.1-3.69-5.05-7.49-6.69-.65,5.8,2.53,14.05,1.61,14.19l-1.39.21c-1.84-5.17-3.24-13.94-1.42-16.04,1.45-1.67,8.2,3.41,8.68,8.32Z"/>
  <path d="M157.3,319.13c.18,1.14-1.67,2.69-2.76,2.92-1.36.29-4.24,0-4.69-1.2-.94-2.48,1.15-3.72,2.7-4.11,1.7-.42,4.28-.59,4.75,2.39ZM155.66,319.13c-.91-2.04-4.86-.82-4.09,1.08.67.9,4.23,0,4.09-1.08Z"/>
  <circle cx="156.22" cy="327.54" r="2.82"/>
  <path d="M159.8,306.04c2.79.03,3.54-.04,3.84,2.19l-5.25-1.22c-.44-3.1.05-6.55,1.11-9.25.18-.26,1.25-.93,1.31-.63s.18,1.22.13,1.57l-1.13,7.34Z"/>
  <circle cx="172.23" cy="320.4" r="2.4"/>
  <path d="M323.8,57.46c-.36,2.74-2.17-3.98-2.52-3.98-3.54,0-4.6,4.98-7.53,2.15l5.11-3.67c.79-.56,2.89-.63,3.63-.08s1.71,2.56,1.59,3.46l-.28,2.12Z"/>
  <path d="M322.16,64.08c.58,1.69-1.19,2.94-3.05,3.22s-3.73-.13-4.71-1.71c-.8-1.28-.64-3.63.83-4.56.17,1.09.35,3.48,1.09,4.03,1.26.95,3.86-.06,5.85-.99Z"/>
  <path d="M292.47,276.74l1.8-.3c.24-.04.16.75.02.93l-.7.87c-5.9,1.06-11.68,1.17-17.47-.23l-1.47-1.4c-1.09-1.04,2.62-4.48,6.27-3.06l-4.45,2.51c5.33,1.84,10.39,1.59,15.99.67Z"/>
  <path class="cls-1" d="M178.47,344.37c-1.55.99-5.17-1.72-6.09-2.78l5.59-3.52c1.23,1.07,3.15,4.61.5,6.3Z"/>
  <path class="cls-1" d="M155.66,319.13c.14,1.08-3.42,1.98-4.09,1.08-.76-1.9,3.18-3.12,4.09-1.08Z"/>
</svg>