<?xml version="1.0" encoding="UTF-8"?>
<svg id="_レイヤー_1" data-name="レイヤー 1" xmlns="http://www.w3.org/2000/svg" viewBox="0 0 500 500">
  <defs>
    <style>
      .cls-1 {
        fill: #fff;
      }
    </style>
  </defs>
  <path d="M165.11,362.52c-6.36-.22-12.41-.26-18.18-2.68-7.26-3.05-12.72-8.42-17.27-14.88-12.01-17.06-21.77-35.13-30.78-53.95l-8.27-19.35.45-1.92c.12-.51,1.57.37,2.02.82,6.75,15.7,13.99,30.72,22.28,45.75,6.23,10.97,12.49,21.46,20.27,31.24,6.22,7.83,14.89,11.74,24.82,11.89,11.86.26,23.18-.36,34.99-2.18l45.87-7.04-1.67-44.84-37.89,4.86-28.7,2.27c-2.29.84-4.14,2.56-6.01,4.37-4.34,5.31-7.63,11.1-10.66,17.3l-1.45,1.1c-.39.29-.9-1.73-.67-2.32,3.11-7.93,8.53-17.15,15.97-22.51-.75-4.07-4.96-5.1-6.96-9.45l-24.78-54.78-.34-1.68c-.09-.45,1.05-1.39,1.37-1.06l1.46,1.53,25.26,55.29c1.89,3.3,5.4,3.64,6.54,8.67.43.57,2.25.52,3.2.05,2.16-37.87-6.78-68.78-17.2-104.25l-8.73-29.73c-1-3.4-.91-6.85-.44-10.24l-2.41-4.11-8.53,10.06c-1.09,12.21-1.57,24.36-1.27,36.81l17.13,6.49c.46.17,1.31,1.03,1.4,1.48.1.55-.36,1.8-.74,2.24l-9.9,11.46,10.18,18.96c7.17,14.15,13.4,28.3,17.9,43.57l-1.07,1.91c-.22.4-1.34-.82-1.52-1.21l-10.63-27.75c-5.54-11.67-11.29-22.69-17.54-34.03-.8-1.45.16-3.1,1.1-4.2l8.59-10.09-15.02-5.69c-1.33-.5-2.92-1.65-2.95-3.24-.15-11.21.32-21.76,1.09-33.55-9.87,5.7-19.05,11.12-28.18,17.09-11.09,7.25-18.4,17.51-20.54,30.65-1.39,8.33-2.37,16.39-2.55,25l-1.16,55.51c-.22,10.55-1.18,20.32-4.76,30.19l-11.27,31.08c-6.57,18.12-13.47,35.8-12.45,55.56l10.26.37c11.79.43,22.07,1.5,31.68,8.67.33.25,1.11,1.48.72,1.56l-1.94.39c-8.72-5.07-18.08-7.47-28.2-7.49l-17.06-1.16c-4.67-.32-10.02-5.09-8.85-5.96l1.19-.88c2.81,2.37,5.72,3.56,9.22,4.07-.33-7.35.34-13.96,1.82-21.43-14.68,3.07-32.41,9.76-39.01,23.1-4.2,8.5-1.99,17.96,5.34,24.02,4.96,4.1,10.9,6.57,17.22,8.5,12.64,3.87,25.67,4.06,38.75,2.01l17.72-1.74c7.12-.04,13.32,1.82,19.54,5.22-1.37-2.66-3.25-4.59-4.77-6.76l-.83-1.18c-.23-.32,1.21-.93,1.58-.99,4.39,3.18,7.06,7.55,7.86,12.81l-.85,1.66c-.2.39-1.67-.19-1.99-.51-6.34-6.45-17.56-8.2-26.81-7.01l-17.75,2.29c-16.93,2.19-42.55-1.95-54.11-14.49-9.24-10.01-7.21-23.9,2.23-33.32,5.34-5.33,11.95-9.05,19.05-11.8l17.43-5.12c2.41-9.37,5.32-18.49,8.76-27.76l11.32-30.51c3.77-10.16,5.75-20.3,5.98-31.2l1.15-55.63c.2-9.82,1.04-19.19,2.83-28.76,1.77-9.47,6.01-17.64,12.95-24.68-7.52-.86-17.04-9.39-15.81-14.02.68-2.54,9.82,1.39,13.59-8.53,3.58-9.42-2.56-20.21-2.08-31.53.38-18.54,12.09-35.83,31.11-38.16-5.16-35.57,19.54-70.11,55.48-73.22,17.51-1.51,34.83,2.95,46.6,16.14,7.72,2.39,13.94,7.04,18.45,13.73,10.95,16.25,12.51,40.43-2.33,54.72l-1.54,15.63c-.86,8.74-3.29,16.82-7.58,24.43-1.09,10.78-3.61,20.75-6.66,31l-1.1,6.22c5.56,3.45,9.49,8.31,12.22,14.26l10.39,26.8c5.26,13.57,9.78,26.97,15.87,40.36,12.36-5.93,23.58-12.57,34.85-19.64l2.05-4.36-3.13.42c-.8.11-1.55-2.1-1.43-2.9.56-3.84,2.2-7.29,4.09-10.67l7.6-13.62c3.06-5.48,3.68-12.89.62-18.59-5.82-.49-12-.5-17.51-2.38-4.59-1.61-8.56-4.05-10.63-8.53-3.3-1.01-5.53-3.45-7.13-6.58-2.96-5.72-3.56-12.14-3.4-18.56-2.26-5.15-.32-10.28,4.82-12.46l21.14-9.17c-.05-7.43,1.28-13.68,5.16-19.51,10.49-15.77,30.59-19.07,48.63-15.95,9.9,1.71,18.43,6.38,25.39,13.66,5.38,1.36,9.39,4.75,12.08,9.62l7.24,12.78,7,9.67c3.23,4.46,3.17,12.66-.22,11.36-1.05,7.26-6.13,12.05-12.61,16.92.39,7.49,1.3,15.07,3.25,22.47,2.46,9.28,10.08,14.04,16.25,23.86,2.61,4.15,2.87,8.44,3.77,13.09,1.18,6.14,4.67,11.57,8.34,16.78,17.58,24.94,33.35,50.67,46.55,78.24,11.83,24.72,19.3,52.37,11.93,79.16-1.25,4.53-2.95,8.51-5.63,12.52,2.19,4.79.37,10.25-4.82,12.07l-9.72,2.27c-10.51,1.47-20.42,3.74-30.63,6.54-3.77,1.03-7.58,1.13-11.21.33-3.86.73-7.57.15-10.81-2.13-3.01-.34-5.55-2.32-5.8-5.62-.17-2.19.32-4.38.93-6.72-3.77-.75-7.76-.86-11.62-.31l-9.15,1.3c-1.02,4.13-2.14,8.12-3.94,12.05-4.04,6.18-11.36,9.3-18.55,7.84-4.26,1.47-8.53.98-12.51-1.14-2.3-.24-5.29-1.2-6.26-3.41-2.2-4.99-.74-10.46,2.86-14.72-2.39-.84-5.42-1.87-6.23-4.19-2.04-5.79,1.3-11.35,6.76-13.8,3.92-1.75,8.92-1.73,12.96-2.2.48-.31-.19-1.74-.61-2.04-8.34-5.95-12.97-14.98-14.01-25.31-1.77,5.75-2.78,11.99-2.33,17.99.33,4.4-2.65,6.4-4.65,9.3-2.99,8.56-5.07,22.4-12.67,26.83-5.16,3.01-11.04,3.52-16.7,2.35-3.86.97-7.51.52-11.13-1.32-1.71-.58-4.04-2.01-4.56-3.82-2.3-8.02,2.92-15.35,10.95-16.83,2.84-.52,4.71-1.92,5.87-4.57,3.37-7.68,4.9-15.64,5.17-24.14.47-14.73-.04-28.91-1.69-43.55-1.02-9.01-2.37-17.55-5.02-26.07-14.98,20.16-38.25,24.63-59.5,11.67l.06,13.2-15.55,2.85c1.55,7.52,3.49,14.52,6.39,21.36l4.77,11.29c8.54,3.95,16.4,7.96,24.23,13.03,10.95,7.08,17.91,18.38,18.97,31.43l.2,12.48c0,.61-.83,1.77-1.42,1.9-4.52.99,5.7-25.36-17.93-42.19-6.71-4.78-13.63-8.77-21.27-11.98l-25.4-10.67c-3.14-1.32-5.93-3.13-8.35-5.33l-3.82,1.91-19.64,6.11c-8.57,2.67-17.35,2.7-26.39,2.85l-10.36,20.1c-6.03,13.28-10.43,26.74-11.18,41.33l-1.18,1.71c-.26.38-1.51-.47-1.85-.89.63-12.88,3.75-24.97,8.61-36.88l9.83-20.03c4.81-9.81,9.46-19.34,12.46-30.43ZM220.58,59.2c.22-.57,1.53-1.49,1.97-1.18,1.52,1.1-.47,3.12,1.18,4.93,7.16,7.85,12.56,16.55,16.82,26.19,2.88,6.52,3.34,12.81,1.88,20.17,6.45-7.94,8.27-17.85,6.95-27.72-2.1-15.62-10.57-27.71-24.99-33.6-9.04-8.02-18.62-13.67-30.96-15.05-16.44-1.84-32.78,2.31-45.45,13.19-25.24,21.68-29.38,59.74-8.44,85.41l.8-2.9c-6.58-9.06-4.66-23.79,4.37-25.99,6.7-1.64,11.73,2.19,14.44,8.92l4.72-7.4-2.59-.18c-.49-.03-.82-1.44-.4-1.69l1.63-.95c9.96-2.11,19.25-5.29,28.1-10.27,13.04-7.34,24.67-17.82,29.97-31.88ZM172.15,186.4c.89.57,2.36,1.53,2.81,2.09l7.67,9.54c3.41,4.25,7.89,7.19,13.5,8.19-1.25-7.46-2.7-14-4.94-20.56l-1.78,7.38c-.3.31-1.28.91-1.47.59l-1.02-1.7c1.03-6.69,2.96-12.92,6.04-19.49-11.11-4.34-21.08-10.76-27.74-20.61l.34-1.84c.06-.32,1.24-.1,1.66,0,8.33,11.03,20.32,18.63,33.83,21.68,6.42,1.18,12.07-.33,17.04-4.46,11.24-9.35,17.91-22.65,19.32-37.37l2.56-26.54c.54-4.29-.14-8.32-1.85-12.28-4.19-9.66-9.76-18.39-16.62-26.11-10.88,20.77-30.88,31.67-52.55,38.43-5.37,4.08-8.15,14.21-10.36,13.03-2.09-1.13-3.87-13.12-12.9-10.97-6.65,1.58-8.18,12.69-3.75,20.02l5.13-4.47c.72-2.49,2.3-5.23,5.34-4.73,2.86.48,4.53,3.37,4.93,6.31.21,1.52-.44,3.68-1.62,4.5-2.53,1.78-5.41-1.4-8.07,4.4,2.48,3.42,7.23,3.31,10.3,1.59.47.09,1.77,1.22,1.48,1.55l-1.52,1.69c.98,8.09.26,15.89-2.72,23.49,5.42,9.38,10.68,18.02,16.94,26.65ZM123.15,177.55c2.78-1.61,4.36-3.56,5.57-6.36,3.17-7.33,3.08-15.42.8-23.17l-4.02-13.67c-1.53-5.22-.2-10.69,2.83-14.86l-4.28-13.56c-6.49.78-11.69,3.66-16.42,7.69-9.29,8.86-13.7,21.63-11.45,34.46l2.49,14.21c.88,4.98.01,10.06-2.5,14.24s-6.77,6.67-12.02,6.38c3.45,5.73,9.06,9.2,15.62,9.75,7.41-5.54,15.09-10.31,23.38-15.11ZM356.94,339.35c7.01,19.14,4.9,49.29,2.43,70.01-.9,7.56-2.05,14.55-4.95,21.43-1.55,3.69-4.01,6.17-7.5,7.99-4.46,2.33-7.1,6.73-6.38,11.81.23,1.65,1.63,3.06,3.35,3.42.3-13.09,8.2-12.55,6.01-9.72s-4.2,7.22-2.53,10.8c2.4,1.27,5.75,1.24,8.52.68-1.43-10.11,4.77-12.97,4.86-10.98.1,2.21-3.58,5.32-1.79,10.85,7.39.77,14.17-3.66,15.88-10.75l2.45-10.12,4.73-16.3,2.21-.55c.37-.09.46,1.47.41,1.75l-4.5,15.79,10.76-1.4c3.65-.47,7.71.24,11.15.9,5.57-7.37,14.53-7.24,24.01-7.32-6.1-3.1-11.55-7.23-14.89-13.25-5.87-10.59-.94-16.41-.56-11.56.49,6.33,3.53,12.56,8.44,16.75,10.75,9.16,20.19,8.33,24.51,10.35.4.19.73,1.69.35,1.88s-1.52.42-1.98.31c-8.91-2.22-22.68-2.42-31.13.03-6.41,1.86-10.7,9.85-6.72,14.47l.7-1.09c.03-9.16,7.81-11.58,7.31-9.45-.61,2.61-6.21,5.51-4.14,11.87,1.62,1.24,4.55,1.59,6.7,1.29-1.29-8.63,6.13-12.89,6.59-11.46l.51,1.55c-2.94,2.25-5.26,5.72-4.05,9.89,2.65.62,5.74.45,8.57-.33,9.4-2.59,18.62-4.24,28.17-6.2l11.9-2.44c1.92-.39,3.76-2.37,4.07-3.81.38-1.79-.19-4.17-1.25-5.58l-5.91-7.86c-.3-.41-.29-2,.16-2.18s1.64.25,2,.72l5.17,6.78c3.86-5.93,5.35-11.97,6.53-18.69,4.06-23.15-3.2-47.48-13.33-68.65-13-27.17-28.44-52.66-45.81-77.2l-6.69-11.09-6.92-13.86,3.8.98c-3.63-12.81-15.64-19.52-18.92-29.35-2.61-7.82-3.33-15.69-3.73-24.1-7.34,3.68-10.69,11.84-15.21,13.3s-8.67-.79-11.42-4.22c-8.63-10.77-4.55-26.5-1.31-39.94,1.64-6.8,1.45-13.32-1.15-19.9.94-.88,2.5-.28,3.02.89,2.48,5.59,2.51,11.6,1.3,17.65l-3.43,17.25c-1.74,8.74-.49,20.05,7.09,24.8,2.95,1.85,5.92.75,7.96-1.87,3.32-4.26,7-7.83,11.58-10.73,7.47-4.72,14.21-10.45,13.86-19.52,1.22.6,1.93,1.36,2.81,2.45.44-3.36-.81-6.68-2.92-9.35-5.31-6.72-9.7-13.64-13.48-21.34-2.43-4.44-5.96-7.67-11-8.59-12.25-13.39-30.56-17.08-48.07-13.35-14.72,3.13-27.8,15.73-26.28,30.52l1.59-5.41c.47-.92,2.43-1.87,3.33-1.58,1.12.36,1.97,2.3,1.4,3.51-1.18,2.49-2.91,4.91-5.4,6.07l-18.39,8.49c3.2.8,6.11,1.33,8.64,2.74,3.09,1.72,3.87,5.43,2.56,8.55-2.08,4.97-6.32,8.03-11.71,9.77.56,2.64,1.43,5.74,2.66,8.16l13.88,6.86c10.7,4.05,22.1,1.68,30.08-6.54.97-.07,2.22-.03,2.66.46.36.41.52,1.74.41,2.27s-1.62.73-2.21.89c-8.51,7.48-19.91,9.82-30.78,6.14-5.29-1.8-9.92-4.62-15.06-7.39-2.28,8.37,10.94,12.85,18.28,12.87l15.53.04c12.74.03,12.04,5.67,8.92,4.47-3.89-1.5-9.59-2.06-13.99-1.2,4.3,12.05-1.32,21.79-7.65,32.06-2.13,3.45-3.89,6.32-4.83,10.62l5.13-2.69c.46-.24,1.98-.5,1.92-.05l-.27,2.09c-4.22,7.02-7.59,14.36-8.14,22.3,1.26-1.29,2.67-2.21,3.68-1.58l-.25,7.98c5.58-1.24,9.78-1.65,14.95-1.19,2.6-5.85,8.05-9.46,14.05-9.75,6.2-.3,11.95,2.97,14.99,8.56,4.6,8.46,2.39,19.07-5.65,24.41-4.63,3.07-9.82,2.98-15.04,1.19-3.86,1.29.26,7.02-5.77,9.34.59,3.27-.47,5.78-3.25,7.44l-4.56,1.65-5.18,9.12c1.84,5.29,3.31,10.33,4.24,15.91,3.23,19.46,3.95,38.82,3.23,58.6-.31,8.45-2.11,16.2-5.54,23.71-3.32,7.27-12.08,4.21-15.33,10.83-1.5,3.06-2.36,6.38.04,9.26.36-8.79,5.97-11.61,6.28-9.98.49,2.56-4.53,5.12-2.92,11.22,2.13.8,4.68,1.04,6.71.68-.54-5.41.95-9.68,5.31-11.18.4-.14,1.18,1.47.78,1.81-1.88,1.62-4.76,6.03-2.86,9.2,5.29,1.2,12.79.25,16.33-4.54,4.41-5.96,6.12-13.37,7.72-20.41,1.4-6.13,6-4.22,5.62-13.02-.62-14.15,6.41-21.97,5.8-34.26l-6.21-9.43c.35,1.23-1.56,4.48-2.67,3.58-4.79-3.92-6.99-9.61-9.3-15.04-1.78-5.49-2.93-10.74-3.46-16.48l.85-1.46c.17-.29,1.14.77,1.23,1.13l3.24,13.14c1.39,5.64,4.04,9.98,7.34,14.86l.68-7.06c.05-.53.88-1.75,1.21-1.42l1.18,1.15c2.61,8.76,7.88,15.94,15.11,21.53l6.33,5.51c.44.38.59,2.13.09,2.2-.4.06-1.72.03-2.13-.31l-10.47-8.74-1.12,9.24c-.2,6.06,1.28,12.08,3.59,17.56,1.99,4.71,5.38,8.13,9.41,11.67,3.31-24.96,5.42-51.77-1.46-76.81.82-.23,1.7-.38,1.87-.02l.79,1.64ZM153.42,125.64c2.73-2.19-.03-7.01-1.62-6.67-.47.1-1.54.99-1.45,1.46s.51,1.08.92,1.75l2.15,3.46ZM135.81,169.95c3.18-4.36,6.34-8.07,10.18-11.77l-3.51-7.67c-2.2-4.81-3.13-10.04-3.6-15.15-3.64-4.08-6.46-8.22-9.23-12.93-2.09,4.19-1.87,8.48-.9,12.59l3.72,12.33c2.49,8.27,2.2,16.61-.8,24.97,1.31-.47,3.5-1.49,4.15-2.37ZM168.31,185.63c-7.77-11.3-14.89-22.41-20.34-34.78-3.8-8.63-6.9-19.35.66-24.92.39-.29,1.1-.77.93-1.03l-.88-1.33c-9.18,5.23-7.79,16.66-3.45,26.56,5.78,13.2,13.3,25.05,21.53,36.85.43.62.85,1.18,1.17.97l1.11-.74c.24-.16-.41-1.12-.72-1.58ZM155.31,144.67l-.03-7.47c-3.49.28-5.81-.55-8.52-2.29-.09.7,0,3.34.72,3.88l7.82,5.88ZM155.3,148.09l-7.25-4.93c1.59,4.78,3.08,8.03,5.31,12.47l1.93-7.54ZM289.72,166.12c2.89-5.78-6-7.97-13.84-7.52-2.97.17-4.92,2.98-3.99,5.93,1.05,3.33,3.24,8.21,7.26,8.67,4.26.48,8.79-3.51,10.57-7.08ZM221.74,183.36l1.97.53c2.42-8.14,4.32-15.48,5.69-23.92-2.63,1.53-2.64,3.79-3.27,6.26l-4.39,17.13ZM201.57,177.88l14.99,8.27,2.28-2.76,4.4-16.58c-8.74,7.57-14.3,9.79-25.57,7.06,1.03,1.21,2.62,3.3,3.9,4.01ZM166.89,193.68c-.55-.74-.98-2.53-1.13-3.42l-13.59-20.23c1.43,8.17,3.65,15.18,5.95,22.66l28.68,38.02,4.78-15.45c-10.7-3.8-18.15-12.74-24.68-21.59ZM280.47,185.72l-2.47-9.13-5.41-3.97c.41,6.28,2.22,13.55,6.79,16.77l1.09-3.67ZM211.09,199.13l-6.73-10.74-9.32-13.12-2.45,5.43c3.25,8.41,5.08,16.75,6.35,25.81,4.99.09,10.12-2.89,12.16-7.39ZM216.03,189.03l-11.35-5.86,8.16,13.47,3.18-7.61ZM219.99,304.98l3.76-.54c-4.49-8.85-7.69-17.63-10.11-27.39-5.05-20.41-7.83-40.88-9.5-61.87-.1-1.24.94-2.71,1.94-3.11,9.88-4.04,13.68-13.42,17.07-23.46.24-.72-.92-2.31-1.65-2.39-2.87-.32-2.64,7-8.17,15.22-6.9,10.25-19.74,10.01-28.86,2.25-4.42-3.76-7.85-8.09-11.22-12.86-.56-.8-1.85-1.73-2.52-1.4s-1.58,1.38-1.92,2.15c8.34,11.01,16.25,21.19,30.61,22.26l2.42,15.5c4.04,25.85,6.08,51.43,18.16,75.66ZM266.36,294.91l19.76-16.62c2.99-2.51,7.73-2.35,11.51-3.46l.69-3.4-3.58.12c-.56-4.49.29-8.48,1.56-13.26-11.03,6.96-21.81,12.97-33.46,18.51-3.97,4.73-6.92,10.46-8.93,16.14-.22.63-1.67,1.8-1.91,1.31l-.87-1.73c1.67-5.89,4.56-10.86,8.02-16.23-5.01,1.98-9.55,6.08-12.7,9.57-.4.44-1.82,1.05-1.91.63l-.45-1.92c3.99-4.99,8.62-9.07,14.82-10.4l1.05,1.12c.19.2.72-1.12.66-1.39l-5.46-12.48-10.6-28.39c-3.4-9.09-6.49-17.92-10.47-26.71-2.17-4.8-5.52-8.91-9.93-11.49l-5.39,11.02c.8,1.67,1.61,3.74,1.7,5.44l-8.64,6.36,9.27,6.86c.68.5,1.71,2.23,1.6,3.18-1.76,15.38-3.91,30.15-7.12,45.35,2.51,9.86,5.04,19.31,10.26,28.54l2.58-19.17c1.05-8.75,1.21-17.26.46-26.08l-1.23-25.84,1.24-1.88c.26-.39,1.32,1.13,1.31,1.46l1.67,27.47c.54,8.65.39,16.98-.67,25.52l-2.58,20.83,10.67-1.43c1.37-.18,2.6.48,3.4,2.15l17.73-5.56c2.05-.64,4.1-2.56,5.94-4.11ZM197.08,216.27l-2.7-.42c-1.46,5.82-5.05,19.62-7.22,18.54l-1.68-.83-24.41-32.01c5.54,18.69,10.62,36.17,14.16,54.87,3.35,17.56,4.64,34.64,3.67,52.73l22.37-1.86c.7-19.49.98-38.32.16-57.79l-4.36-33.25ZM208.97,218.95c-.68-.51-.23-2.74.36-3.16l7.55-5.38c.49-.35-.22-2.28-.52-2.08-2.89,2.98-5.79,5.07-9.44,6.71,1.29,17.4,3.51,34.18,7.26,50.88,2.51-13.35,4.05-25.83,5.66-38.75l-10.87-8.23ZM324.56,291.51l.54,3.13c5.76,2.69,12.44.98,16.15-4.19,5.22-7.26,3.65-17.01-3.67-22.12-6.43-3.97-14.54-1.92-18.49,4.75l.91.96c.51.55,3.42-4.35,8.64-3.99,2.65.18,5.17,1.36,7.12,3.61,3.63,4.19,3.72,10.51.04,14.77-2.88,3.32-7.2,4.09-11.25,3.07ZM210.43,289.52c-1.04,3.29-1.54,6.61-3.18,9.22-1.45-4.95,1.58-8.97,1.87-13.23l-4.25-17.21.05,4.67-.53,33.88,12.47-1.47-6.43-15.86ZM330.74,284.06c-3.03,2.18-5.91,1.69-9.4,1.65,1.46,1.56,3.68,3.2,5.81,3.44,3.69.41,6.5-1.95,7.77-4.73,1.32-2.87.76-6.14-1.23-8.7-2.55-3.3-6.9-3.87-10.07-1.12l5.27,1.48c1.25.35,2.8,2.15,3.11,3.34.37,1.36-.02,3.75-1.28,4.65ZM315.99,304.4c2.44-.1,3.44-1.86,3.27-3.66-.13-1.41-1.65-2.71-3.5-2.77l-14.68-.5c-.58-.02-1.66-.8-1.78-1.27s1.21-1.36,1.7-1.36l13.77.27c2.03.04,4.29,1.1,6.12,1.71,1.51-1.18,1.33-3.75.25-5.4-.82-1.26-2.62-2.61-4.54-2.72l-17.97-1.05c-.47-.03-1.37-.7-1.44-1.16-.06-.34.76-1.34,1.21-1.44l13.42-3.09,11.42.75c5,.33,6.73-1.6,6.1-2.39l-1.24-1.54-16.94-3.22c-7.92,1.15-15.35,2.5-23,4.67l-18.24,15.66-9.47,6.66-17.8,5.24.98,24.94,25.22-8.8c8.67,1.08,16.66-.73,24.23-4.87,10-5.47,15.56-5.12,21.49-7.76.92-.41,1.57-3.75.59-3.73l-13.15.23c-.66.01-1.97-.67-2.15-1.23-.15-.47,1.23-1.53,1.76-1.55l14.38-.61ZM315.86,285.44l-.97-.48-3.71.16.29.51,4.39-.2ZM244.33,336.19c5.52,3.68,10.48,5.56,16.26,6.92,21.26,3.6,36.1-7.65,46.1-26.14l-5.06,1.45c-11.58,20.37-32.39,28.12-53.06,15.95-1.41.2-3.04.85-4.25,1.82ZM285.95,331.77c4.13-3.33,7.58-6.36,10.5-10.95-8.92,5.18-17.65,6.75-27.5,6.17l-17.1,6.01c11.09,6.02,23.74,5.52,34.11-1.24ZM218.26,379.46l17.35,6.87c-4.69-10.33-8-20.06-9.95-30.56l-20.59,3.3,2.05,9.25c1.82,5.45,5.69,8.98,11.13,11.14ZM195.26,378.59l12.26-3.29c-3.28-4.36-4.76-10.03-5.13-15.92-11.45,1.47-22.48,2.6-34.17,3.09-1.97,7.47-4.76,14.78-7.99,22.2,12.22.15,23.59-1.95,35.02-6.08ZM354.24,421.85c-4.2.12-8.1.42-11.71,2.2-3.59,1.77-6.19,5.75-4.6,9.74.68,1.71,3.85,2.77,5.65,2.76,5.82-.03,9.02-7.89,10.66-14.7Z"/>
  <path d="M240.15,446.27c-3.19-16.7-12.75-23.53-27.09-31.1-15.18-8.01-30.64-14.57-46.93-20-.49-.16-1.5-1.08-1.52-1.56-.02-.57,1.24-1.12,2.05-1.27,16.34,5.23,31.88,11.84,47.11,19.78,6.51,3.57,12.46,7.1,18.08,11.83,6.25,5.9,9.78,13.52,11.19,22.01l-.97,1.36c-.27.38-1.82-.56-1.92-1.06Z"/>
  <path d="M125.47,387.78l-25.22-7.53-16.05-7.51-.49-1.96c-.13-.52,1.43-.76,2.01-.67,7.12,3.97,14.17,6.94,21.91,9.66l18.35,5.1c.43.12,1.27.97,1.19,1.39-.1.53-.88,1.11-1.71,1.52Z"/>
  <path d="M111.06,440.93c8.06,8.51,7.45,17.33,6.04,15.95l-1.23-1.21c-1.83-7.19-6.12-12.93-12.05-17.16-5.36-3.71-11.06-5.93-17.58-7.15-.55-.1-1.38-1.04-1.27-1.55.66-3.04,16.71,1.23,26.08,11.13Z"/>
  <path d="M132.78,231.16c-.92-.48-1.7-1.21-2.22-2.18-5.41-9.97-14.03-19.92-25.07-21.88-.48-.09-1.28-1.01-1.1-1.38,1.85-3.72,19.25,3.18,27.34,20.32.67,1.42.85,2.74,1.05,5.11Z"/>
  <path d="M145.95,325.61c-1.36-1.35-.61-2.74.19-3.92,4.48-5.66,10.13-9.63,16.77-12.54l1.8.63c.45.16-.22,1.38-.63,1.74-7.18,3.18-12.61,7.88-18.12,14.08Z"/>
  <path class="cls-1" d="M356.94,339.35l-.79-1.64c-.17-.35-1.04-.2-1.87.02,6.88,25.04,4.77,51.85,1.46,76.81-4.02-3.54-7.41-6.96-9.41-11.67-2.32-5.48-3.8-11.5-3.59-17.56l1.12-9.24,10.47,8.74c.41.34,1.73.37,2.13.31.5-.07.34-1.82-.09-2.2l-6.33-5.51c-7.23-5.59-12.5-12.77-15.11-21.53l-1.18-1.15c-.33-.32-1.16.89-1.21,1.42l-.68,7.06c-3.29-4.88-5.95-9.21-7.34-14.86l-3.24-13.14c-.09-.36-1.06-1.42-1.23-1.13l-.85,1.46c.53,5.74,1.68,10.99,3.46,16.48,2.32,5.43,4.51,11.11,9.3,15.04,1.11.91,3.02-2.34,2.67-3.58l6.21,9.43c.61,12.29-6.42,20.1-5.8,34.26.38,8.8-4.22,6.89-5.62,13.02-1.6,7.04-3.31,14.44-7.72,20.41-3.54,4.78-11.03,5.74-16.33,4.54-1.89-3.17.98-7.58,2.86-9.2.4-.35-.38-1.95-.78-1.81-4.36,1.5-5.85,5.77-5.31,11.18-2.04.36-4.58.13-6.71-.68-1.62-6.11,3.4-8.66,2.92-11.22-.31-1.63-5.92,1.19-6.28,9.98-2.4-2.87-1.54-6.19-.04-9.26,3.25-6.62,12-3.56,15.33-10.83,3.43-7.5,5.23-15.25,5.54-23.71.73-19.77,0-39.14-3.23-58.6-.93-5.58-2.4-10.62-4.24-15.91l5.18-9.12,4.56-1.65c2.78-1.66,3.84-4.17,3.25-7.44,6.03-2.32,1.91-8.05,5.77-9.34,5.22,1.79,10.41,1.88,15.04-1.19,8.04-5.34,10.25-15.95,5.65-24.41-3.04-5.6-8.79-8.86-14.99-8.56-5.99.29-11.45,3.9-14.05,9.75-5.16-.46-9.37-.05-14.95,1.19l.25-7.98c-1.01-.63-2.42.29-3.68,1.58.55-7.94,3.92-15.28,8.14-22.3l.27-2.09c.06-.45-1.47-.19-1.92.05l-5.13,2.69c.94-4.3,2.7-7.17,4.83-10.62,6.33-10.28,11.95-20.01,7.65-32.06,4.4-.86,10.09-.3,13.99,1.2,3.12,1.2,3.81-4.44-8.92-4.47l-15.53-.04c-7.35-.02-20.56-4.5-18.28-12.87,5.14,2.77,9.76,5.59,15.06,7.39,10.87,3.69,22.27,1.34,30.78-6.14.59-.17,2.1-.36,2.21-.89s-.04-1.86-.41-2.27c-.44-.49-1.68-.54-2.66-.46-7.98,8.23-19.38,10.59-30.08,6.54l-13.88-6.86c-1.22-2.42-2.1-5.53-2.66-8.16,5.39-1.74,9.63-4.8,11.71-9.77,1.31-3.13.53-6.83-2.56-8.55-2.53-1.41-5.44-1.94-8.64-2.74l18.39-8.49c2.5-1.15,4.23-3.58,5.4-6.07.57-1.21-.28-3.15-1.4-3.51-.91-.29-2.86.66-3.33,1.58l-1.59,5.41c-1.52-14.79,11.55-27.39,26.28-30.52,17.51-3.73,35.81-.04,48.07,13.35,5.04.92,8.57,4.15,11,8.59,3.78,7.7,8.17,14.62,13.48,21.34,2.11,2.67,3.36,5.98,2.92,9.35-.88-1.09-1.59-1.85-2.81-2.45.34,9.07-6.4,14.79-13.86,19.52-4.58,2.9-8.27,6.47-11.58,10.73-2.04,2.62-5,3.72-7.96,1.87-7.58-4.75-8.83-16.06-7.09-24.8l3.43-17.25c1.2-6.05,1.17-12.06-1.3-17.65-.52-1.17-2.08-1.78-3.02-.89,2.61,6.58,2.79,13.1,1.15,19.9-3.24,13.43-7.32,29.17,1.31,39.94,2.75,3.43,7.06,5.63,11.42,4.22s7.87-9.62,15.21-13.3c.4,8.41,1.12,16.28,3.73,24.1,3.28,9.83,15.29,16.55,18.92,29.35l-3.8-.98,6.92,13.86,6.69,11.09c17.37,24.54,32.82,50.03,45.81,77.2,10.13,21.17,17.38,45.49,13.33,68.65-1.18,6.72-2.66,12.76-6.53,18.69l-5.17-6.78c-.35-.46-1.55-.9-2-.72s-.47,1.77-.16,2.18l5.91,7.86c1.06,1.41,1.63,3.79,1.25,5.58-.31,1.45-2.15,3.42-4.07,3.81l-11.9,2.44c-9.55,1.96-18.77,3.61-28.17,6.2-2.83.78-5.92.95-8.57.33-1.2-4.17,1.11-7.64,4.05-9.89l-.51-1.55c-.47-1.42-7.88,2.83-6.59,11.46-2.15.31-5.08-.05-6.7-1.29-2.07-6.36,3.54-9.26,4.14-11.87.5-2.13-7.28.29-7.31,9.45l-.7,1.09c-3.98-4.62.31-12.61,6.72-14.47,8.44-2.45,22.22-2.25,31.13-.03.46.11,1.59-.12,1.98-.31s.05-1.69-.35-1.88c-4.31-2.02-13.76-1.19-24.51-10.35-4.92-4.19-7.95-10.42-8.44-16.75-.38-4.85-5.31.97.56,11.56,3.33,6.02,8.79,10.15,14.89,13.25-9.48.09-18.43-.05-24.01,7.32-3.44-.66-7.51-1.37-11.15-.9l-10.76,1.4,4.5-15.79c.05-.27-.04-1.84-.41-1.75l-2.21.55-4.73,16.3-2.45,10.12c-1.71,7.09-8.49,11.52-15.88,10.75-1.79-5.54,1.89-8.64,1.79-10.85-.09-1.99-6.29.87-4.86,10.98-2.77.56-6.12.59-8.52-.68-1.67-3.58.44-8.11,2.53-10.8,2.19-2.82-5.71-3.37-6.01,9.72-1.72-.36-3.12-1.77-3.35-3.42-.72-5.08,1.92-9.47,6.38-11.81,3.49-1.83,5.95-4.31,7.5-7.99,2.9-6.88,4.05-13.87,4.95-21.43,2.47-20.72,4.58-50.87-2.43-70.01ZM330.72,150.45c2.61-2.43,2.93-6.64.25-9.09-.98-.89-3.47-.72-4.3.08-2.51,2.4-2.69,7.09-.09,9.1.91.7,3.05.93,4.14-.09ZM399.52,385.78c4.8-8.54,2.89-18.89.52-27.26,1.38.66,3.12,1.15,4.11.9,3.26-.81,1.36-11.07-1.13-17.27s-2.91-12.39-1.72-19.25l1.09-6.28c.09-.53-1.02-1.89-1.47-1.67-.36.17-1.07,1-1.14,1.47l-1.93,11.54c-1.67,9.98,6.05,19.02,5.1,29.29l-5.85-4.38c-.61,3.43.02,5.74.83,8.69,2.02,7.32,2.39,14.47.04,21.73-.29.89.49,2.57,1.54,2.47ZM412.83,372.33c2.21-4.15,5.4-7.52,8.91-10.54,9.05-6.92,20.62-7.13,30.15-.73l1.78-.26c.42-.06-.19-1.44-.43-1.83-7.13-5.27-16.16-6.94-24.65-4.12-16.33,5.94-23.89,24.05-25.18,40.75-.39,5.1.85,13.41,3.17,13.71.41.05.86-1.22.76-1.67-2.72-11.91-.25-24.55,5.48-35.32ZM394.21,376.77c-.81.26-1.17,1.32-1.2,2.24,1.55,8.67,1.41,16.83-1.03,25.19l.87,1.79c1.42,2.95,7.7-17.13,1.36-29.23ZM390.39,403.64c-.09-2.77-.28-5.15-1.72-7.69-2.01,6.21.24,12.19-2.25,21.07-.91,3.25,4.59,5.24,3.97-13.38Z"/>
  <path class="cls-1" d="M172.15,186.4c-6.26-8.63-11.52-17.26-16.94-26.65,2.97-7.6,3.7-15.4,2.72-23.49l1.52-1.69c.3-.33-1-1.46-1.48-1.55-3.08,1.72-7.83,1.84-10.3-1.59,2.65-5.8,5.54-2.62,8.07-4.4,1.18-.83,1.82-2.98,1.62-4.5-.4-2.94-2.07-5.83-4.93-6.31-3.04-.51-4.62,2.24-5.34,4.73l-5.13,4.47c-4.44-7.33-2.91-18.44,3.75-20.02,9.03-2.15,10.81,9.84,12.9,10.97,2.21,1.19,4.98-8.94,10.36-13.03,21.68-6.76,41.67-17.66,52.55-38.43,6.86,7.72,12.43,16.45,16.62,26.11,1.72,3.96,2.4,7.99,1.85,12.28l-2.56,26.54c-1.42,14.73-8.08,28.03-19.32,37.37-4.97,4.13-10.62,5.64-17.04,4.46-13.51-3.06-25.5-10.65-33.83-21.68-.43-.11-1.61-.32-1.66,0l-.34,1.84c6.66,9.85,16.63,16.27,27.74,20.61-3.08,6.58-5.01,12.8-6.04,19.49l1.02,1.7c.19.33,1.17-.28,1.47-.59l1.78-7.38c2.24,6.56,3.69,13.1,4.94,20.56-5.61-1-10.08-3.94-13.5-8.19l-7.67-9.54c-.45-.56-1.92-1.52-2.81-2.09ZM204.17,102.72c.63-.2,1.55-.63,1.89-.97s-.54-1.65-.99-1.87c-11.47-5.51-25.04,4.38-17.47,4.38,5.24-3.07,10.91-4.02,16.58-1.54ZM238.72,103.98c.07-.41-.09-1.53-.46-1.9-5.25-5.24-14.53-1.67-12.63.57.32.38,1.76.65,2.28.41,5.5-2.57,10.42,3.14,10.8.92ZM198.87,120.83c2.19-2.19,2.29-5.59.89-8.18-.43-.79-2.06-1.78-2.89-1.74-2.94.12-4.74,3.95-3.52,8.26.64,2.25,3.69,3.49,5.52,1.66ZM233.03,114.33c-.16-.87-1.65-2.17-2.49-2.27-.73-.09-2.4.53-2.88,1.2-1.42,2.01-1.71,4.9-.76,7.37.38.98,2.17,1.93,3.13,1.86,2.73-.2,3.78-3.88,2.99-8.16ZM221.69,137.73c5.45-5.42-2.01-9.66-2.37-19.59-.03-.37-1.63-.96-1.81-.6-1.8,3.55.97,9.79,3.05,14.55,1.19,2.7-1.77,4.5-3.73,5.27l-1.86.73c-.32.13,0,1.75.32,1.84,1.66.48,4.89-.7,6.39-2.2ZM220.96,149.65c-.34-.24-1.5-.46-2.01-.24-5.7,2.48-13.1,2.03-18.56-1.9-.55-.39-1.88-.32-2.25.11s.08,1.92.59,2.27c12.05,8.18,24.77,1.54,22.23-.24Z"/>
  <path class="cls-1" d="M220.58,59.2c-5.3,14.06-16.93,24.54-29.97,31.88-8.85,4.97-18.14,8.16-28.1,10.27l-1.63.95c-.43.25-.1,1.65.4,1.69l2.59.18-4.72,7.4c-2.7-6.73-7.74-10.56-14.44-8.92-9.02,2.2-10.94,16.94-4.37,25.99l-.8,2.9c-20.94-25.67-16.8-63.74,8.44-85.41,12.67-10.88,29.01-15.03,45.45-13.19,12.34,1.38,21.92,7.03,30.96,15.05,14.42,5.89,22.89,17.99,24.99,33.6,1.33,9.87-.49,19.77-6.95,27.72,1.46-7.36,1-13.65-1.88-20.17-4.26-9.64-9.66-18.33-16.82-26.19-1.65-1.81.35-3.84-1.18-4.93-.43-.31-1.75.61-1.97,1.18Z"/>
  <path class="cls-1" d="M266.36,294.91c-1.85,1.55-3.89,3.47-5.94,4.11l-17.73,5.56c-.8-1.67-2.03-2.34-3.4-2.15l-10.67,1.43,2.58-20.83c1.06-8.55,1.21-16.87.67-25.52l-1.67-27.47c0-.33-1.05-1.85-1.31-1.46l-1.24,1.88,1.23,25.84c.75,8.82.59,17.33-.46,26.08l-2.58,19.17c-5.22-9.23-7.75-18.68-10.26-28.54,3.21-15.2,5.36-29.96,7.12-45.35.11-.95-.92-2.68-1.6-3.18l-9.27-6.86,8.64-6.36c-.09-1.7-.9-3.78-1.7-5.44l5.39-11.02c4.41,2.58,7.76,6.69,9.93,11.49,3.98,8.79,7.07,17.62,10.47,26.71l10.6,28.39,5.46,12.48c.07.27-.47,1.59-.66,1.39l-1.05-1.12c-6.2,1.33-10.83,5.41-14.82,10.4l.45,1.92c.1.42,1.51-.19,1.91-.63,3.15-3.49,7.69-7.59,12.7-9.57-3.45,5.37-6.35,10.34-8.02,16.23l.87,1.73c.24.48,1.69-.68,1.91-1.31,2.01-5.68,4.96-11.42,8.93-16.14,11.65-5.53,22.43-11.55,33.46-18.51-1.28,4.78-2.13,8.78-1.56,13.26l3.58-.12-.69,3.4c-3.77,1.1-8.52.95-11.51,3.46l-19.76,16.62Z"/>
  <path class="cls-1" d="M315.99,304.4l-14.38.61c-.53.02-1.91,1.08-1.76,1.55.18.57,1.49,1.24,2.15,1.23l13.15-.23c.99-.02.33,3.32-.59,3.73-5.94,2.63-11.49,2.29-21.49,7.76-7.56,4.14-15.55,5.96-24.23,4.87l-25.22,8.8-.98-24.94,17.8-5.24,9.47-6.66,18.24-15.66c7.65-2.17,15.08-3.52,23-4.67l16.94,3.22,1.24,1.54c.64.79-1.09,2.72-6.1,2.39l-11.42-.75-13.42,3.09c-.45.1-1.27,1.1-1.21,1.44.07.46.97,1.13,1.44,1.16l17.97,1.05c1.91.11,3.72,1.47,4.54,2.72,1.08,1.65,1.26,4.22-.25,5.4-1.83-.61-4.09-1.67-6.12-1.71l-13.77-.27c-.48,0-1.81.89-1.7,1.36s1.19,1.25,1.78,1.27l14.68.5c1.85.06,3.36,1.36,3.5,2.77.17,1.8-.83,3.56-3.27,3.66Z"/>
  <path class="cls-1" d="M123.15,177.55c-8.29,4.8-15.97,9.57-23.38,15.11-6.56-.55-12.16-4.03-15.62-9.75,5.25.29,9.39-2.01,12.02-6.38s3.38-9.26,2.5-14.24l-2.49-14.21c-2.25-12.83,2.16-25.6,11.45-34.46,4.73-4.04,9.92-6.92,16.42-7.69l4.28,13.56c-3.02,4.18-4.36,9.65-2.83,14.86l4.02,13.67c2.28,7.75,2.37,15.84-.8,23.17-1.21,2.8-2.79,4.75-5.57,6.36Z"/>
  <path class="cls-1" d="M197.08,216.27l4.36,33.25c.82,19.46.54,38.3-.16,57.79l-22.37,1.86c.97-18.09-.32-35.17-3.67-52.73-3.54-18.7-8.61-36.18-14.16-54.87l24.41,32.01,1.68.83c2.17,1.07,5.75-12.72,7.22-18.54l2.7.42Z"/>
  <path class="cls-1" d="M195.26,378.59c-11.44,4.13-22.8,6.23-35.02,6.08,3.22-7.41,6.02-14.73,7.99-22.2,11.69-.5,22.72-1.63,34.17-3.09.36,5.9,1.85,11.56,5.13,15.92l-12.26,3.29Z"/>
  <path class="cls-1" d="M219.99,304.98c-12.07-24.24-14.12-49.81-18.16-75.66l-2.42-15.5c-14.37-1.07-22.27-11.25-30.61-22.26.34-.77,1.23-1.81,1.92-2.15s1.95.6,2.52,1.4c3.38,4.77,6.8,9.1,11.22,12.86,9.12,7.76,21.96,8,28.86-2.25,5.53-8.22,5.3-15.54,8.17-15.22.73.08,1.89,1.68,1.65,2.39-3.39,10.04-7.19,19.42-17.07,23.46-1,.41-2.03,1.88-1.94,3.11,1.67,20.99,4.45,41.46,9.5,61.87,2.42,9.76,5.62,18.54,10.11,27.39l-3.76.54Z"/>
  <path class="cls-1" d="M218.26,379.46c-5.44-2.15-9.31-5.68-11.13-11.14l-2.05-9.25,20.59-3.3c1.95,10.5,5.25,20.23,9.95,30.56l-17.35-6.87Z"/>
  <path class="cls-1" d="M166.89,193.68c6.54,8.85,13.99,17.79,24.68,21.59l-4.78,15.45-28.68-38.02c-2.29-7.49-4.51-14.49-5.95-22.66l13.59,20.23c.15.89.58,2.67,1.13,3.42Z"/>
  <path class="cls-1" d="M135.81,169.95c-.64.88-2.83,1.9-4.15,2.37,3.01-8.36,3.3-16.7.8-24.97l-3.72-12.33c-.97-4.11-1.19-8.4.9-12.59,2.77,4.71,5.59,8.85,9.23,12.93.48,5.11,1.41,10.34,3.6,15.15l3.51,7.67c-3.84,3.69-7,7.4-10.18,11.77Z"/>
  <path class="cls-1" d="M208.97,218.95l10.87,8.23c-1.61,12.91-3.15,25.39-5.66,38.75-3.74-16.7-5.97-33.48-7.26-50.88,3.65-1.65,6.55-3.73,9.44-6.71.3-.2,1.01,1.73.52,2.08l-7.55,5.38c-.58.42-1.03,2.64-.36,3.16Z"/>
  <path class="cls-1" d="M285.95,331.77c-10.36,6.76-23.02,7.26-34.11,1.24l17.1-6.01c9.86.58,18.59-.99,27.5-6.17-2.92,4.58-6.36,7.62-10.5,10.95Z"/>
  <path class="cls-1" d="M211.09,199.13c-2.04,4.5-7.17,7.48-12.16,7.39-1.26-9.06-3.1-17.4-6.35-25.81l2.45-5.43,9.32,13.12,6.73,10.74Z"/>
  <path class="cls-1" d="M244.33,336.19c1.22-.97,2.84-1.61,4.25-1.82,20.67,12.17,41.48,4.42,53.06-15.95l5.06-1.45c-10.01,18.48-24.85,29.73-46.1,26.14-5.79-1.35-10.74-3.24-16.26-6.92Z"/>
  <path class="cls-1" d="M324.56,291.51c4.05,1.02,8.37.26,11.25-3.07,3.68-4.25,3.58-10.57-.04-14.77-1.95-2.26-4.47-3.43-7.12-3.61-5.22-.36-8.13,4.53-8.64,3.99l-.91-.96c3.95-6.68,12.06-8.73,18.49-4.75,7.32,5.12,8.89,14.87,3.67,22.12-3.72,5.17-10.39,6.88-16.15,4.19l-.54-3.13Z"/>
  <path class="cls-1" d="M289.72,166.12c-1.79,3.57-6.32,7.56-10.57,7.08-4.02-.46-6.21-5.34-7.26-8.67-.93-2.95,1.02-5.76,3.99-5.93,7.84-.45,16.73,1.74,13.84,7.52Z"/>
  <path class="cls-1" d="M210.43,289.52l6.43,15.86-12.47,1.47.53-33.88-.05-4.67,4.25,17.21c-.29,4.26-3.32,8.28-1.87,13.23,1.64-2.62,2.14-5.93,3.18-9.22Z"/>
  <path class="cls-1" d="M201.57,177.88c-1.28-.7-2.87-2.8-3.9-4.01,11.27,2.73,16.83.51,25.57-7.06l-4.4,16.58-2.28,2.76-14.99-8.27Z"/>
  <path class="cls-1" d="M354.24,421.85c-1.63,6.81-4.84,14.67-10.66,14.7-1.81,0-4.97-1.05-5.65-2.76-1.59-3.99,1.01-7.98,4.6-9.74,3.61-1.77,7.51-2.08,11.71-2.2Z"/>
  <path class="cls-1" d="M168.31,185.63c.31.46.97,1.42.72,1.58l-1.11.74c-.32.21-.74-.35-1.17-.97-8.22-11.8-15.75-23.65-21.53-36.85-4.34-9.9-5.72-21.32,3.45-26.56l.88,1.33c.17.26-.54.74-.93,1.03-7.56,5.57-4.47,16.29-.66,24.92,5.45,12.37,12.58,23.48,20.34,34.78Z"/>
  <path class="cls-1" d="M330.74,284.06c1.26-.9,1.64-3.29,1.28-4.65-.32-1.19-1.87-2.99-3.11-3.34l-5.27-1.48c3.17-2.75,7.51-2.17,10.07,1.12,1.98,2.56,2.55,5.83,1.23,8.7-1.28,2.79-4.09,5.15-7.77,4.73-2.14-.24-4.35-1.88-5.81-3.44,3.48.04,6.37.53,9.4-1.65Z"/>
  <path class="cls-1" d="M280.47,185.72l-1.09,3.67c-4.57-3.23-6.38-10.49-6.79-16.77l5.41,3.97,2.47,9.13Z"/>
  <polygon class="cls-1" points="216.03 189.03 212.85 196.64 204.69 183.17 216.03 189.03"/>
  <path class="cls-1" d="M221.74,183.36l4.39-17.13c.63-2.47.64-4.73,3.27-6.26-1.37,8.44-3.27,15.78-5.69,23.92l-1.97-.53Z"/>
  <path class="cls-1" d="M155.31,144.67l-7.82-5.88c-.73-.55-.81-3.18-.72-3.88,2.71,1.73,5.02,2.57,8.52,2.29l.03,7.47Z"/>
  <path class="cls-1" d="M155.3,148.09l-1.93,7.54c-2.23-4.44-3.72-7.69-5.31-12.47l7.25,4.93Z"/>
  <path class="cls-1" d="M153.42,125.64l-2.15-3.46c-.42-.67-.83-1.28-.92-1.75s.98-1.36,1.45-1.46c1.59-.34,4.36,4.48,1.62,6.67Z"/>
  <polygon class="cls-1" points="315.86 285.44 311.47 285.64 311.17 285.13 314.89 284.97 315.86 285.44"/>
  <path d="M412.83,372.33c-5.74,10.77-8.21,23.41-5.48,35.32.1.45-.35,1.72-.76,1.67-2.32-.3-3.56-8.61-3.17-13.71,1.29-16.71,8.84-34.82,25.18-40.75,8.49-2.82,17.52-1.15,24.65,4.12.24.38.85,1.76.43,1.83l-1.78.26c-9.54-6.4-21.1-6.19-30.15.73-3.51,3.02-6.7,6.39-8.91,10.54Z"/>
  <path d="M399.52,385.78c-1.05.09-1.83-1.58-1.54-2.47,2.35-7.26,1.97-14.41-.04-21.73-.81-2.94-1.44-5.26-.83-8.69l5.85,4.38c.95-10.27-6.76-19.31-5.1-29.29l1.93-11.54c.08-.47.79-1.3,1.14-1.47.44-.21,1.56,1.15,1.47,1.67l-1.09,6.28c-1.19,6.86-.83,12.92,1.72,19.25s4.4,16.46,1.13,17.27c-.99.25-2.73-.25-4.11-.9,2.37,8.37,4.28,18.71-.52,27.26Z"/>
  <path d="M394.21,376.77c6.35,12.1.07,32.18-1.36,29.23l-.87-1.79c2.44-8.36,2.58-16.52,1.03-25.19.03-.92.39-1.99,1.2-2.24Z"/>
  <path d="M330.72,150.45c-1.09,1.01-3.23.79-4.14.09-2.6-2-2.42-6.7.09-9.1.83-.79,3.33-.97,4.3-.08,2.68,2.45,2.36,6.66-.25,9.09Z"/>
  <path d="M390.39,403.64c.63,18.62-4.87,16.63-3.97,13.38,2.49-8.88.24-14.87,2.25-21.07,1.44,2.54,1.63,4.92,1.72,7.69Z"/>
  <path d="M221.69,137.73c-1.5,1.49-4.73,2.68-6.39,2.2-.33-.1-.65-1.72-.32-1.84l1.86-.73c1.96-.77,4.92-2.56,3.73-5.27-2.09-4.76-4.85-11-3.05-14.55.18-.35,1.78.23,1.81.6.35,9.93,7.82,14.17,2.37,19.59Z"/>
  <path d="M220.96,149.65c2.54,1.78-10.18,8.42-22.23.24-.51-.35-.95-1.84-.59-2.27s1.7-.5,2.25-.11c5.46,3.93,12.86,4.38,18.56,1.9.51-.22,1.67,0,2.01.24Z"/>
  <path d="M198.87,120.83c-1.83,1.82-4.88.59-5.52-1.66-1.22-4.3.58-8.14,3.52-8.26.84-.03,2.47.95,2.89,1.74,1.39,2.59,1.3,5.99-.89,8.18Z"/>
  <path d="M204.17,102.72c-5.67-2.48-11.34-1.54-16.58,1.54-7.56,0,6-9.89,17.47-4.38.45.22,1.34,1.52.99,1.87s-1.26.78-1.89.97Z"/>
  <path d="M233.03,114.33c.79,4.28-.26,7.96-2.99,8.16-.96.07-2.75-.88-3.13-1.86-.95-2.46-.66-5.35.76-7.37.47-.67,2.14-1.29,2.88-1.2.84.1,2.33,1.4,2.49,2.27Z"/>
  <path d="M238.72,103.98c-.38,2.22-5.3-3.49-10.8-.92-.52.24-1.96-.03-2.28-.41-1.9-2.23,7.38-5.81,12.63-.57.37.37.53,1.49.46,1.9Z"/>
</svg>