<?xml version="1.0" encoding="UTF-8"?>
<svg id="_レイヤー_1" data-name="レイヤー 1" xmlns="http://www.w3.org/2000/svg" viewBox="0 0 468.85 398.72">
  <defs>
    <style>
      .cls-1 {
        fill: #fff;
      }
    </style>
  </defs>
  <path d="M181.04,210.46c10.9-.09,20.98.51,31.4,1.75,23.97,2.85,52.33-.15,63.31-23.3l-6.26-9.75c-2.72-4.24-4.62-9.16-4.97-14.23-.4-5.67,2.65-10.31,7.76-12.38,6.25-2.53,11.97-5.7,17.33-9.82,3.98-3.12,8.51-4.61,13.66-4.85,15.31-7.05,33.34-6.11,46.66,4.22,4.6,3.57,8.76,7.98,9.47,13.73.51,4.14,2.15,7.35,6.36,8.75l18.99,6.33c4.75,1.59,5.91,4.66,5.48,9.5-1.03,11.6-8.38,20.53-20.64,22.35,2.94,2.52,4.61,5.04,4.53,8.26-.07,3-2,6.4-4.99,8.14-5.09,2.96-11.55,2.98-17.1.87l-11.87-4.5c-7.81,7.07-9.82,21.28-9.66,32.32.16,11.1-2.11,20.93-7.45,31.08,9.23,4.54,18.29,7.6,27.86,10.4,5.56,1.62,10.45,3.88,14.22,8.39l12.84,14.29c2.75,3.06,5.15,6.2,5.9,10.37.93,5.24-2.1,10.15-7.43,11.12-11.16,2.04-19.57-7.53-24.83-17.71-.81-1.57-3.03-3.46-4.83-3.65l-16.72-1.8-24.38-3.37c10.21,14.52,20.86,28.01,32.08,41.25,3.52,4.15,7.41,6.15,12.75,6.87,6.39.86,12.57,6.15,11.5,12.88-.7,4.43-5.17,6.3-9.39,8.42,38.21,4.12,76.15,9.95,114.01,18.24.75.16,1.88,1.36,2.06,1.99.26.89-1.34,2.31-2.68,2.02-43.73-9.74-87.72-15.94-132.54-19.82-60.03-5.21-119.83-5.78-179.98-1.32-51.14,3.3-101.36,10.18-151.13,21.2-.95-.6-1.87-1.24-2.27-1.65-.48-.49.93-2.08,1.58-2.33l22.73-4.86c-2.15-12.17-12.37-18.28-12.36-19.82,0-.62,1.03-1.5,1.72-1.99,7.05.75,12.29,3.64,17.5,9.08-.18-4.66.19-9.67-1.09-14.05-1.43-4.87-9.33-7.59-11.02-11.56-.23-.54,2.19-1.63,2.67-1.27l9.01,6.58.03-34.82-22.6,2.04c-7.15.65-8.48-15.8-6.98-25.69.69-1.97,2.44-4.06,4.48-4.25l24.92-2.32.04-37.5-22.18.29c-9.81.13-8.79-14.5-7.65-25.64,1-2.97,2.91-4.43,5.86-4.46l23.94-.23.05-39.18-24.44-.3c-2.8-.03-4.66-2.3-5.36-4.94-.72-7.38-.33-14.49.36-21.93.3-3.28,2.19-4.93,5.53-4.79l23.92,1.01.7-22.63c.15-5.02,3.63-9.22,8.43-10.37,9.09-2.19,18.16,1.1,18.42,8.78l.84,25.12,26.91,1.35,1.06,2.65c.25.63-1.95,1.28-2.65,1.25l-25.27-1.14.02,11.02,17.03,1.31c.49.04,1.53.65,1.86.92s-1.15,1.48-1.78,1.44l-17.07-1.02-.1,9.09,22.47,1.16c.71.04,2.13,1.11,2.2,1.74.08.79-1.4,1.98-2.33,2.16l-22.3-1.1-.16,37.6,30.92-.5c.85.24,2.22,1.25,2.3,1.99s-1.56,1.93-2.32,1.94l-30.91.6.03,10.69,15.47.86c8.28.46,15.89.45,24.26-.1l.03,2.47c-7.53.87-14.59.84-22.1.36l-17.45-1.12-.18,9.11,61.36-1.51,1.81,1.71c.5.48-1.1,1.86-1.83,2.18l-61.34,1.54.05,35.66,55.6-4.24c.9.06,2.53,1.22,2.37,1.96s-1.43,1.66-2.43,2.05l-55.36,4.12-.06,22.17,28.36-2.17c.8-.06,2.29,1.05,2.26,1.79s-1.46,2.06-2.21,2.12l-28.34,2.3.03,51.44c8.21-11.23,18.44-10.93,15.25-6.28-3.45,5.04-6.4,11-6.47,17.84l22.82-3.13c30.33-4.16,60.43-5.92,91.43-7.53l-18-29.15c-3.28-5.3-2.74-11.52.82-16.31,4.18-6.01,6.47-12.9,5.22-20.28-8.17,7.12-18.1,11.39-29.01,11.98l-15.48.85c-4.82.26-8.01,3.06-9.8,7.31l-7.32,17.39c-3.93,9.33-13.94,17.32-22.23,12.82-6.71-3.64-7.56-15.39-.71-22.6,3.69-3.88,7.13-8.32,8.89-13.51l5.29-15.63c4.52-13.35,18.39-4.89,24.93-17.13,1.1-4.8,1.37-9.74,1.1-14.82-.68-12.71,1.95-24.87,8.92-35.76-20.63-3.16-40.63-12.94-46.96-33.26l.55-2.39c.14-.62,1.83-.54,2.48-.3l5.2,1.89c-11.29-18.28-8.28-40.98,6.66-56.06l2.75-.71c.63-.16,1.22,1.74,1.37,2.46-1.68,11.13-.88,21.69,2.49,32.33,4.25,12.11,11.55,22.51,22.68,29.41,23.55,14.6,27.44.3,48.85.13ZM34.84,361.43c6.01,7.41,9.1,15.46,10.68,24.5l3.66-.46c.1-9.48-1.78-18.82-6.01-27.47-.36-.74.48-3.03,1.23-2.88.6.12,1.48.81,1.9,1.4,6.37,8.77,4.2,18.92,8.68,29.23l.04-133.91.19-85.35-.77-35.78c-.12-5.79-7.15-7.38-14.76-5.45l3.32,25.24c2.61,19.84,3.07,39.35.94,59.37-1.01,9.45-.66,18.46-2.93,28.29-2.67-7.96-.49-15.72.12-23.64,1.24-16.34,2.39-32.09.95-48.38-1.13-12.83-2.82-24.82-4.92-38.2-1.17,1.54-1.98,3.87-2.01,5.84l-.39,36.69.08,190.97ZM140.86,314.06c15.45-.79,28.06-9.21,35.95-21.92,4.06-6.55,6.76-13.61,9.26-20.97.28-.83,1.96-1.98,2.66-1.67s1.41,2.21,1.13,2.97l-5.43,14.66c7.29-.05,14.16,1.19,20.76,3.71l23.05,8.78c10.88,4.15,22.02,6.3,34.04,5.49-.41-7.59-3.12-15.35-6.42-22.01.23-.85,1.27-2.57,1.93-2.47,3.81.6,8.7,17.67,8.94,27.79.04,1.88,1.31,3.99,2.73,5.1,14.29,11.22,27.6,22.69,40.73,35.22l18.28,17.44c5.89,5.62,13.78,9.09,21.71,6.09.75-4.59-4.95-5.02-4.8-7.39.04-.68,2.11-1.6,2.77-1.36,3.02,1.08,5.07,3.43,6.12,7.14.76-.04,3.04-1.51,3.61-2.54,1.64-2.94-2.4-8.14-9.64-9.27-4.86-.75-8.94-2.56-12.32-6.47-11.8-13.65-22.85-27.75-33.16-42.57-4.43-6.37-5.19-13.45-3.29-20.79,1.73-6.67,3.01-13.87,3.39-20.65.04-.76,1.54-1.96,2.18-1.71,3.02,1.19.79,11.86-.51,18.85l-1.84,9.92c7.4-4.43,11.47-10.47,15.42-17.12,5.89-9.92,8.51-20.39,8.38-32-.12-10.69,2.21-23.27,8.55-31.97l-7.74.2c-.89.02-2.97-1.24-2.49-1.85l1.64-2.1c7.15-.75,13.33.01,19.75,2.9l10.98,3.66c3.66,1.22,7.98-.05,10.69-2.44-12.33-1.93-22.86-8.37-29.34-18.41-1.27-1.96-1.22-4.45.85-6.01,9.59,8.03,22.46,11.28,34.26,7.07,4.95-1.77,8.86-4.99,10.48-9.9-5.04-.26-9.32-2.62-11.18-6.92-1.39-3.22.17-6.4,3.55-7.8l-14.84-5.74c-3.64-1.41-5.75-5.04-6-8.82-.29-4.44-2.73-8.06-6.1-11.1-10.46-9.44-25.68-12.09-38.69-7.66,1.46.96,2.7,2.29,2.53,3.18-.73,3.94-10.3-5.3-20.91,3.05-5.59,4.39-11.63,7.75-18.19,10.41-4,1.62-6.36,4.86-5.72,9.35,1.46,10.25,9.17,16.97,14.6,29.57,1.26,2.93,4.16,4.4,7.51,2.99,10.14-4.28,12.95-16.83,14.72-27.78l2.05-12.7c.53-3.28,3.64-6.47,6.69-7.07.61-.12,2.01.47,2.24,1,1.05,2.42-4.53,3.21-5.18,7.38l-2.21,14.18c-1.85,11.84-6.16,25.3-17.44,29.06-6.22,2.07-11.5-1.21-13.4-8.34-6.17,9.89-14.72,16.51-25.71,19.74-36.66,10.77-65.8-8.52-97.47,8.14-14.73-.59-27.35-7.26-37.08-18.16-11.89-13.33-16.74-30.55-15.82-49.11-13.07,16.35-10.82,39.6,3.86,54.23l-.42,2.56c-.08.46-2.08.39-2.59.15l-9.26-4.35c7.7,16.7,26.18,23.89,43.95,26.31l2.88-3.01c.49-.51,2.89-.43,2.85.27l-.14,2.42c-9.18,10.45-13.53,23.51-13.15,37.48l-.27,13.48c-.18,8.91-7.55,14.63-16.23,15.56-5.19.56-8.49,2.97-10.15,7.88l-5.26,15.59c-3.65,10.84-14.16,14.64-12.67,23.58,5.07.49,9.14-4.59,9.49-2.44.64,3.99-3.07,6.23-8.39,6.41,1.19,3.58,5.54,3.88,8.83,2.18,4.57-2.36,8-6.7,10.05-11.58l7.08-16.85c2.36-5.62,6.97-9.06,13.08-9.37l15.23-.78ZM30.74,168.68l.03-10.66-25.34-.99-1.01,11.71,26.32-.06ZM30.76,181.14v-9.86s-26.41.09-26.41.09l.92,9.4,25.48.38ZM385.65,183.44l.42-7.4c-3.24-1-7.82-.51-9.43,1.91.41,4.17,4.98,5.58,9.02,5.49ZM369.99,209.95c-1.5-3.34-3.67-5.49-6.33-6.01l-16.48-3.2c4.18,3.29,8.36,5.76,13.07,8.15,3.41.75,6.22,1.14,9.75,1.06ZM9.52,250.83l21.2-.46.02-22.36-25.55.52c-1.69,8.92-2.46,23.16,4.33,22.3ZM374.3,329.55c.94,0,3.63-.82,4.49-1.74,3.52-3.75-1.03-9.84-5.18-14.51l-11.72-13.2c-3.14-3.54-7.83-5.4-12.44-6.84-9.99-3.13-19.55-6.26-28.92-10.85-4.77,7.85-10.71,13.2-17.98,18.81,5.76,2.08,10.65,2.92,15.99,3.65l27.67,3.08c11.52,1.28,9.99,15.61,23.37,21.05,2.17-3.77-2.4-9.78.61-9.81,2.79-.03,4.23,4.9,4.11,10.35ZM192.42,357.93l-6.82-13.33c-3.18-6.22-.37-12.62,4.59-17.4l12.59-12.12c4.17-5.17,6.38-11.01,8.47-17.51l-16.63-5.65c-3.57-1.21-9.2-1.1-12.49-.06l-7.93,10.59c1.73,8.97.19,18.36-5.43,25.96-2.79,3.78-3.22,8.44-.57,12.73l15.86,25.7c1.02,1.65,4.17,4.4,6.03,4.37l19.43-.38c-.31-13.12-13.69-6.25-17.09-12.91ZM18.07,304.46c-.41-.27-1.29-1.31-.95-1.52.22-.14,1.44-.97,1.71-.99l11.79-.97.04-5.22-25.32,2.42c-1.11,7.84-1.22,15.17,2.13,22.06l23.3-2.34-.03-14.33-12.67.9ZM247.27,317.34l-.02,37.59,3.75,7.15c2.27-10.05,8.45-18.37,17.35-24.23.89.07,2.35.24,2.63.75,1.14,2.1-11.24,18.63-7.55,33.01,2.75-6.59,4.45-12.49,9.88-16.32.62-.44,2.33-.48,2.84.04,2.01,2.05-6.79,6.64-7.65,15.66l63.66,3.55-10.1-8.86-13.5-12.96c-13.47-12.94-27.3-24.74-41.99-36.24-2.2-1.72-3.5-4.44-4.08-7.08-16.62,1.05-31.87-4.29-47.69-10.28-2.5,10.98-8.82,19.81-17.1,27.12l-6.24,5.51c-7.14,6.3.34,16.89,5.99,25.94,8.72-1.66,15.81,4.29,16.27,12.18.65.73,2.95.88,4.15.51l-.27-59.64c.12-.75,1.53-2.74,2.06-2.24l1.87,1.75.33,60.29,16.8-.07c.36-7.78-2.54-15.5-6.88-21.42-.37-.51-.49-1.96-.2-2.42s2.04-.95,2.54-.67l9.16,5.13.2-34.89c.39-.83,1.91-1.92,2.63-1.64.57.22,1.18,1.79,1.18,2.79ZM258.71,370.48c.05-8.56,1.52-14.33,3.52-22.1-5.75,6.42-7.72,13.77-8.75,22.18l5.23-.08ZM249.3,370.32c-1.4-7.73-4.55-13.36-10.34-17.32,2.27,6.24,3.37,11.14,3.8,17.53l6.54-.21ZM22.54,375.12l5.83,14.07,13.32-2.34c-1.26-7.05-3.1-13.02-6.94-18.96l.85,15.96-1.19,2.2c-.92,1.71-6.07-8.45-11.87-10.92ZM63.75,383.18l3.69-15.26c-5.09,4.18-7.75,9.37-8.89,15.99l5.19-.74Z"/>
  <path d="M402.55,344.3c-.08-8.87-8.4-17.39-5.63-18.51,4.18-1.69,8.01,11.63,10.74,18.98l.13-42.06-28.56.61c-.81.02-2.61-1.49-2.44-2.24s1.65-1.68,2.53-1.7l28.48-.73-.1-8.46-29.88-1.11-1.51-1.21c-.31-.25,1.11-1.09,1.48-1.27l29.97.78.03-10.23-71.93,1.38-2.27-1.59c-.61-.43,1.24-2.16,1.94-2.29l72.24-1.53-.05-26.57-68.63,1.99-2.37-1.17c-.66-.32.79-2.41,1.52-2.6l69.52-2.24.02-13.56-26.2,2.04-1.86.04c-.32,0-.68-.97-.52-1.25.24-.42,1.36-1.28,1.89-1.33l26.42-2.15.13-6.02-26.81.65c-.81.02-2.41-.76-2.71-1.36-.38-.74,1.07-2.55,1.97-2.58l27.66-.74.08-32.22-9.92.43c-.57.02-2.01-.9-2.2-1.44-.23-.67.97-2.34,1.78-2.41l10.32-.88-.03-23.09-39.37,1.2-2.44-1.24c-.7-.36.98-2.6,1.69-2.68l40.13-1.32.06-21.93c.01-4.82,2.28-8.47,6.61-10.78,4.83-1.66,10.35-1.94,15.26-.05,3.84,1.47,6.32,5.13,6.42,9.26l.5,22.33,23.48-.8c8.19-.28,10.01,15.55,6.87,25.87-.78,1.99-2.92,4.02-5.2,4.18l-24.78,1.69.28,33.06,24.9.06c2.8,0,4.75,1.87,5.63,4.54,1.1,7.09.72,13.75-.8,20.85-.78,1.61-2.83,4.05-4.61,4.1l-25.3.82-.16,26.62,26.3-.11c1.78,0,3.68,2.02,4.34,3.68,1.19,7.49,1.06,14.34-.29,21.73-1.12,2.34-3.09,3.8-5.68,3.85l-24.9.42.05,36.17c3.55-9.47,8.12-18.06,15.77-24.8l2.35-.99c.62-.26,1.64,1.43,1.84,2.14-8.93,8.04-14.82,18.24-17.61,30.4l5.51.66c2.13-8.22,11.94-18.01,14.4-14.78,1.98,2.61-7.61,5.39-10.45,15.3l18.57,3.7c.82.16,1.93,1.83,1.69,2.47s-2.04,1.51-2.73,1.35c-26.51-6.08-53.15-7.71-80-3.58l-20.17,3.1c-.75.12-3.03-.33-2.8-1s.87-1.71,1.56-2.75l37.87-5.14ZM433.23,236.67l-1.12-108.85c-1.1-3.99-6.53-5.62-10.54-4.93l4.57,40.13c1.84,16.16,2.99,31.81.94,48.04-1.53-.63-2-2.05-1.89-3.5,1.09-15.04.09-29.28-1.66-44.23l-4.72-40.27c-3.7.21-6.95,2.96-6.95,6.93l-.07,66.79.1,147.18h7.42s-1.22-16.89-1.22-16.89c-.04-.59.55-1.94,1.06-2.19,2.77-1.4,4,11.15,3.9,19.16l9.7.51.5-107.85ZM464.02,161.45l-2.49-6.83-24.87.73.12,9.4,27.24-3.3ZM463.08,176.56c1.16-5.06,1.59-8.8,1.36-12.45l-27.62,3.09.17,11.27,26.09-1.91ZM462.75,240.99c2.07-7.49,2.58-14.22.71-21.49l-26.23.05-.05,22.27,25.57-.83ZM436.98,298.16l26.46-.59c1.34-7.64,1.48-14.26,0-21.24l-26.56.09.04,11.47,9.67-.09c-2.94,3.81-5.89,1.91-9.67,2.3l.05,8.08Z"/>
  <path d="M218.02,205.04l-.36-15.29c-32.34.59-64.29-.13-96.71-1.27-.87-.03-2.37-1.41-2.22-2.1s1.57-1.8,2.29-1.78l54.96,1.36,41.79-.29-.2-8.19-26.83,2.16c-8.47.57-16.65.45-24.91-.35l-1.34-1.63c-.25-.3,1.14-.9,1.5-.99,9.17.71,17.92.83,27.05.07l24.6-1.56v-13.89s-68.78.78-68.78.78l-35-.64-1.82-1.6c-.51-.45.76-2.1,1.35-2.46l54.05.63,50.23-.72.51-24.8c.06-2.87,2.82-5.63,5.04-7.27,9.96-5.44,23.22-.14,23.4,6.17l.7,25.36,9.85-.15c.65,0,1.91,1.07,2.01,1.67s-1.24,2.16-1.96,2.19l-9.88.41.21,24.21,16.66-.19c.68,0,2.1,1.07,2.37,1.55.33.59-.99,2.15-1.69,2.3l-17.32.28-.15,13.91c0,.92-1.2,2.56-1.96,2.47s-1.91-1.62-1.92-2.53l-.64-69.02c-.06-6.51-11.28-9.21-18.58-4.38-1.06.7-1.99,3.19-2.35,4.67l-.23,70.26-1.11,2.26c-.24.5-2.59-.94-2.61-1.62Z"/>
  <path d="M245.37,70.63c-1.88,0-3.81-.7-4.34-1.52s-.81-3.04-.58-4.23c2.24-11.65,14.1-18.06,25.89-14.69.78-6.45,4.51-11.94,9.42-15.07,5.92-3.77,12.35-4.47,19.18-1.72,4.53-15.13,18.12-24.85,33.44-24.33,15.35.52,28.67,11.04,31.87,26.64,8.79-2.95,17.3-1.67,24.1,3.92,5.87,4.83,9.95,12.62,8.73,21.3-.48,3.41-3.15,9.45-7.71,9.46l-140.01.23ZM244.42,66.57l140.94-.08c7.88-6.45,3.26-20.36-6.76-25.84-6.96-3.81-13.72-2.86-21.48.55-1.54-15.76-12.8-26.88-27.62-28.02-14.68-1.13-28.28,8.6-30.96,23.58-.94,5.24-9.8-5.4-20.34,1.58-9.89,6.55-7.04,16.47-8.91,16.36l-2.95-.17c-9.6-3.73-20.64,1.32-21.92,12.04Z"/>
  <path d="M149.18,47.35c0,12.75-10.34,23.09-23.09,23.09s-23.09-10.34-23.09-23.09,10.34-23.09,23.09-23.09,23.09,10.34,23.09,23.09ZM145.09,47.33c0-10.49-8.51-19-19-19s-19,8.51-19,19,8.51,19,19,19,19-8.51,19-19Z"/>
  <path d="M180.85,170.36c-17.48,1.89-34.16,2.46-51.28.74l-1.79-1.29c-.48-.35,1.16-1.57,1.75-1.7,16.17,1.93,31.7,1.37,47.99-.06,1.61-.38,3.36-.12,3.32,2.31Z"/>
  <path d="M350.41,237.78l-1.53-1.3c-.38-.32,1.22-1.31,1.63-1.36,12.21,1.07,23.59,1.07,35.66-.18.37.03,1.93.66,1.64.98l-1.39,1.53c-12,1.56-23.61,1.52-36.01.32Z"/>
  <path d="M237.44,199.52c-1.26-.06-2.09-.05-2.14-.47l-.27-2.44c.28-10.39-1.13-21.62.97-32.88,3.54,11.88,1.08,23.98,1.44,35.8Z"/>
  <path d="M229.62,142.83c.98,10.59,1.55,20.34.68,30.48l-.61,1.42c-.13.3-1.25.64-1.34.32l-.47-1.62c.26-11.13-.1-21.44-.91-32.75.31-.27,1.75-.8,1.88-.37l.77,2.52Z"/>
  <path d="M151.36,25.15c-.54.55-2.57.72-3.12.33-.66-.46-.72-2.43-.03-3.13l8.47-8.51c.45-.45,2.56-.48,3.05-.11.62.46.56,2.33.01,2.88l-8.38,8.53Z"/>
  <path d="M156.89,81.01l-8.72-8.73c-.5-.5-.71-2.19-.31-2.74.47-.66,2.68-.76,3.26-.17l8.52,8.58c.49.49.62,2.35.27,2.92-.42.68-2.45.73-3.03.15Z"/>
  <path d="M128.07,92.52c0,.97-1.38,2.66-2.1,2.53s-1.96-1.59-1.96-2.44l-.05-12.13c0-.78,1.31-2.17,1.98-2.19s2.07,1.33,2.08,2.16l.05,12.07Z"/>
  <path d="M171.43,49.36l-11.76.08c-.93,0-2.64-1.31-2.61-2.11s1.72-2.12,2.65-2.12l11.72.06c.75,0,2.16,1.33,2.17,2.05s-1.4,2.03-2.16,2.04Z"/>
  <path d="M95.31,80.79c-.41.41-2.3.67-2.8.41-.66-.35-.7-2.48-.13-3.05l8.7-8.78c.5-.5,2.26-.62,2.79-.36.66.33.66,2.47.11,3.03l-8.66,8.75Z"/>
  <path d="M92.99,49.38l-12.29-.03c-.74,0-2.19-1.36-2.18-2.03s1.45-2.05,2.14-2.05l12.28-.06c.78,0,2.25,1.4,2.25,2.11s-1.46,2.06-2.19,2.06Z"/>
  <path d="M103.91,22.48c.44.44.66,2.27.39,2.8-.35.67-2.52.68-3.08.11l-8.43-8.42c-.56-.55-.84-2.3-.58-2.93s2.51-.73,3.09-.15l8.61,8.58Z"/>
  <path d="M128.06,14.13c0,.8-1.42,2.54-2.11,2.43s-1.98-1.6-1.98-2.39l-.02-11.98c0-.76,1.34-2.16,1.98-2.18s2.04,1.41,2.04,2.15l.08,11.97Z"/>
  <path d="M84.16,301.23l-14.89,1.2c-.43.03-1.78-.46-2.11-.56-.49-.16.84-1.89,1.43-1.94l15.45-1.22c.48-.04,1.76.55,2.06.74s.26,1.59-.09,1.62l-1.84.15Z"/>
  <path class="cls-1" d="M140.86,314.06l-15.23.78c-6.1.31-10.72,3.75-13.08,9.37l-7.08,16.85c-2.05,4.88-5.48,9.21-10.05,11.58-3.29,1.7-7.64,1.4-8.83-2.18,5.31-.18,9.03-2.42,8.39-6.41-.35-2.15-4.42,2.93-9.49,2.44-1.5-8.95,9.01-12.74,12.67-23.58l5.26-15.59c1.66-4.91,4.96-7.32,10.15-7.88,8.68-.93,16.05-6.65,16.23-15.56l.27-13.48c-.38-13.97,3.97-27.03,13.15-37.48l.14-2.42c.04-.7-2.36-.78-2.85-.27l-2.88,3.01c-17.76-2.42-36.25-9.6-43.95-26.31l9.26,4.35c.51.24,2.52.31,2.59-.15l.42-2.56c-14.68-14.64-16.93-37.88-3.86-54.23-.92,18.56,3.93,35.78,15.82,49.11,9.73,10.91,22.36,17.58,37.08,18.16,31.67-16.66,60.81,2.63,97.47-8.14,10.98-3.23,19.54-9.85,25.71-19.74,1.91,7.12,7.18,10.41,13.4,8.34,11.28-3.76,15.59-17.22,17.44-29.06l2.21-14.18c.65-4.17,6.23-4.95,5.18-7.38-.23-.53-1.63-1.12-2.24-1-3.05.6-6.16,3.79-6.69,7.07l-2.05,12.7c-1.77,10.95-4.58,23.51-14.72,27.78-3.35,1.41-6.25-.05-7.51-2.99-5.43-12.61-13.13-19.33-14.6-29.57-.64-4.49,1.72-7.73,5.72-9.35,6.56-2.66,12.61-6.02,18.19-10.41,10.61-8.35,20.17.89,20.91-3.05.17-.9-1.07-2.23-2.53-3.18,13.01-4.43,28.22-1.79,38.69,7.66,3.37,3.04,5.81,6.66,6.1,11.1.25,3.78,2.35,7.41,6,8.82l14.84,5.74c-3.38,1.4-4.94,4.58-3.55,7.8,1.86,4.31,6.13,6.67,11.18,6.92-1.62,4.91-5.52,8.13-10.48,9.9-11.8,4.21-24.68.95-34.26-7.07-2.07,1.56-2.11,4.05-.85,6.01,6.48,10.04,17.01,16.48,29.34,18.41-2.7,2.39-7.03,3.66-10.69,2.44l-10.98-3.66c-6.42-2.89-12.6-3.65-19.75-2.9l-1.64,2.1c-.47.61,1.6,1.87,2.49,1.85l7.74-.2c-6.34,8.7-8.67,21.28-8.55,31.97.13,11.61-2.49,22.08-8.38,32-3.95,6.65-8.02,12.69-15.42,17.12l1.84-9.92c1.29-6.99,3.52-17.66.51-18.85-.64-.25-2.14.95-2.18,1.71-.38,6.78-1.66,13.97-3.39,20.65-1.9,7.33-1.13,14.42,3.29,20.79,10.3,14.82,21.36,28.93,33.16,42.57,3.38,3.91,7.46,5.71,12.32,6.47,7.24,1.12,11.28,6.33,9.64,9.27-.57,1.03-2.85,2.5-3.61,2.54-1.04-3.72-3.09-6.07-6.12-7.14-.66-.24-2.73.68-2.77,1.36-.15,2.36,5.56,2.8,4.8,7.39-7.93,3-15.82-.47-21.71-6.09l-18.28-17.44c-13.13-12.52-26.44-24-40.73-35.22-1.43-1.12-2.69-3.22-2.73-5.1-.24-10.13-5.12-27.19-8.94-27.79-.66-.1-1.7,1.62-1.93,2.47,3.3,6.65,6.01,14.41,6.42,22.01-12.03.81-23.16-1.34-34.04-5.49l-23.05-8.78c-6.6-2.52-13.47-3.75-20.76-3.71l5.43-14.66c.28-.75-.43-2.66-1.13-2.97s-2.38.85-2.66,1.67c-2.49,7.36-5.19,14.42-9.26,20.97-7.89,12.72-20.5,21.13-35.95,21.92ZM343.59,168.29c.66-.33,1.11-2.6.67-3.27-1.66-2.52-4.89-4.78-8.01-4.33-4.07.59-7.72,4.92-7.01,8.17.13.6,2.03,1.49,2.41,1.01l1.74-2.18c.78-.99,2.54-2.63,3.67-2.8,2.68-.42,4.19,4.58,6.54,3.41Z"/>
  <path class="cls-1" d="M247.27,317.34c0-1.01-.61-2.57-1.18-2.79-.71-.28-2.24.81-2.63,1.64l-.2,34.89-9.16-5.13c-.5-.28-2.25.21-2.54.67s-.18,1.91.2,2.42c4.35,5.92,7.24,13.64,6.88,21.42l-16.8.07-.33-60.29-1.87-1.75c-.53-.5-1.94,1.49-2.06,2.24l.27,59.64c-1.2.36-3.5.21-4.15-.51-.46-7.89-7.55-13.83-16.27-12.18-5.65-9.04-13.13-19.63-5.99-25.94l6.24-5.51c8.28-7.31,14.59-16.14,17.1-27.12,15.83,5.98,31.08,11.33,47.69,10.28.58,2.63,1.87,5.35,4.08,7.08,14.7,11.5,28.52,23.3,41.99,36.24l13.5,12.96,10.1,8.86-63.66-3.55c.86-9.02,9.66-13.61,7.65-15.66-.5-.51-2.21-.48-2.84-.04-5.43,3.83-7.13,9.73-9.88,16.32-3.69-14.39,8.69-30.92,7.55-33.01-.28-.51-1.74-.68-2.63-.75-8.9,5.87-15.09,14.19-17.35,24.23l-3.75-7.15.02-37.59Z"/>
  <path class="cls-1" d="M34.84,361.43l-.08-190.97.39-36.69c.02-1.97.84-4.29,2.01-5.84,2.1,13.38,3.79,25.37,4.92,38.2,1.44,16.29.29,32.04-.95,48.38-.6,7.91-2.79,15.67-.12,23.64,2.28-9.83,1.93-18.84,2.93-28.29,2.13-20.02,1.67-39.53-.94-59.37l-3.32-25.24c7.61-1.92,14.63-.33,14.76,5.45l.77,35.78-.19,85.35-.04,133.91c-4.48-10.3-2.31-20.45-8.68-29.23-.42-.58-1.3-1.27-1.9-1.4-.75-.15-1.59,2.13-1.23,2.88,4.23,8.66,6.11,18,6.01,27.47l-3.66.46c-1.58-9.04-4.68-17.09-10.68-24.5ZM48.56,310.52l-2.21-19.97,3.06-29.36c-.07-.36-.81-1.96-1.13-1.67l-1.5,1.37-3.06,32.78,1.87,15.53c1.6,8.19,2.05,16.01,2.04,24.32.14.41,1.12,1.67,1.4,1.26l.97-1.42c.28-7.58-.06-14.93-1.43-22.85Z"/>
  <path class="cls-1" d="M192.42,357.93c3.4,6.66,16.79-.22,17.09,12.91l-19.43.38c-1.86.04-5.01-2.72-6.03-4.37l-15.86-25.7c-2.65-4.29-2.22-8.95.57-12.73,5.62-7.6,7.16-16.99,5.43-25.96l7.93-10.59c3.29-1.04,8.92-1.15,12.49.06l16.63,5.65c-2.09,6.49-4.31,12.34-8.47,17.51l-12.59,12.12c-4.96,4.78-7.77,11.18-4.59,17.4l6.82,13.33Z"/>
  <path class="cls-1" d="M374.3,329.55c.12-5.45-1.32-10.38-4.11-10.35-3.01.03,1.57,6.03-.61,9.81-13.38-5.43-11.85-19.76-23.37-21.05l-27.67-3.08c-5.34-.74-10.23-1.57-15.99-3.65,7.27-5.61,13.21-10.96,17.98-18.81,9.37,4.59,18.93,7.72,28.92,10.85,4.6,1.44,9.29,3.3,12.44,6.84l11.72,13.2c4.15,4.67,8.7,10.76,5.18,14.51-.86.91-3.54,1.74-4.49,1.74Z"/>
  <path class="cls-1" d="M9.52,250.83c-6.79.86-6.02-13.38-4.33-22.3l25.55-.52-.02,22.36-21.2.46Z"/>
  <path class="cls-1" d="M18.07,304.46l12.67-.9.03,14.33-23.3,2.34c-3.35-6.89-3.24-14.22-2.13-22.06l25.32-2.42-.04,5.22-11.79.97c-.26.02-1.48.85-1.71.99-.34.21.54,1.25.95,1.52Z"/>
  <polygon class="cls-1" points="30.74 168.68 4.42 168.73 5.43 157.03 30.77 158.02 30.74 168.68"/>
  <polygon class="cls-1" points="30.76 181.14 5.27 180.77 4.35 171.37 30.75 171.28 30.76 181.14"/>
  <path class="cls-1" d="M22.54,375.12c5.79,2.48,10.94,12.63,11.87,10.92l1.19-2.2-.85-15.96c3.84,5.93,5.68,11.9,6.94,18.96l-13.32,2.34-5.83-14.07Z"/>
  <path class="cls-1" d="M369.99,209.95c-3.53.08-6.34-.31-9.75-1.06-4.71-2.38-8.89-4.86-13.07-8.15l16.48,3.2c2.66.52,4.83,2.67,6.33,6.01Z"/>
  <path class="cls-1" d="M258.71,370.48l-5.23.08c1.03-8.41,2.99-15.76,8.75-22.18-1.99,7.77-3.46,13.54-3.52,22.1Z"/>
  <path class="cls-1" d="M249.3,370.32l-6.54.21c-.43-6.39-1.53-11.29-3.8-17.53,5.78,3.96,8.93,9.59,10.34,17.32Z"/>
  <path class="cls-1" d="M385.65,183.44c-4.04.08-8.61-1.33-9.02-5.49,1.61-2.42,6.19-2.91,9.43-1.91l-.42,7.4Z"/>
  <path class="cls-1" d="M63.75,383.18l-5.19.74c1.13-6.62,3.8-11.81,8.89-15.99l-3.69,15.26Z"/>
  <path class="cls-1" d="M433.23,236.67l-.5,107.85-9.7-.51c.1-8.01-1.13-20.55-3.9-19.16-.5.25-1.1,1.61-1.06,2.19l1.22,16.89h-7.42s-.1-147.18-.1-147.18l.07-66.79c0-3.97,3.26-6.72,6.95-6.93l4.72,40.27c1.75,14.95,2.75,29.19,1.66,44.23-.1,1.45.36,2.88,1.89,3.5,2.05-16.23.9-31.88-.94-48.04l-4.57-40.13c4.01-.69,9.45.95,10.54,4.93l1.12,108.85ZM419.99,229.82l.43-30.75-1.29-1.73c-.28-.37-1.19,1.2-1.26,1.64l-1.03,38.98c-.35,9.03-.02,17.09,1.07,26.6l2.17-1.52c-.83-11.05-.86-21.77-.08-33.22ZM425.87,317.59l1.7-43.32-1.25-2.23c-.21-.37-1.21,1.13-1.49,1.56l-1.72,30.94c1.03,4.32-1.3,9.4,2.76,13.05Z"/>
  <path class="cls-1" d="M462.75,240.99l-25.57.83.05-22.27,26.23-.05c1.87,7.27,1.37,14-.71,21.49Z"/>
  <path class="cls-1" d="M436.98,298.16l-.05-8.08c3.78-.39,6.73,1.51,9.67-2.3l-9.67.09-.04-11.47,26.56-.09c1.47,6.98,1.34,13.6,0,21.24l-26.46.59Z"/>
  <path class="cls-1" d="M463.08,176.56l-26.09,1.91-.17-11.27,27.62-3.09c.23,3.65-.19,7.39-1.36,12.45Z"/>
  <polygon class="cls-1" points="464.02 161.45 436.78 164.75 436.66 155.35 461.54 154.62 464.02 161.45"/>
  <path d="M343.59,168.29c-2.35,1.17-3.86-3.83-6.54-3.41-1.13.18-2.88,1.82-3.67,2.8l-1.74,2.18c-.38.48-2.28-.4-2.41-1.01-.71-3.25,2.94-7.58,7.01-8.17,3.13-.45,6.35,1.81,8.01,4.33.44.67-.01,2.94-.67,3.27Z"/>
  <path d="M48.56,310.52c1.37,7.91,1.72,15.27,1.43,22.85l-.97,1.42c-.28.41-1.26-.85-1.4-1.26.01-8.32-.44-16.13-2.04-24.32l-1.87-15.53,3.06-32.78,1.5-1.37c.32-.29,1.05,1.31,1.13,1.67l-3.06,29.36,2.21,19.97Z"/>
  <path d="M419.99,229.82c-.78,11.45-.75,22.17.08,33.22l-2.17,1.52c-1.09-9.51-1.42-17.57-1.07-26.6l1.03-38.98c.07-.44.98-2.02,1.26-1.64l1.29,1.73-.43,30.75Z"/>
  <path d="M425.87,317.59c-4.06-3.64-1.73-8.73-2.76-13.05l1.72-30.94c.28-.43,1.28-1.92,1.49-1.56l1.25,2.23-1.7,43.32Z"/>
</svg>