<?xml version="1.0" encoding="UTF-8"?>
<svg id="_レイヤー_1" data-name="レイヤー 1" xmlns="http://www.w3.org/2000/svg" viewBox="0 0 500 500">
  <defs>
    <style>
      .cls-1 {
        fill: #fff;
      }
    </style>
  </defs>
  <path d="M398.09,194.45c-3.36-4.52-6.34-8.61-8.55-13.55-1.38-3.07-3.18-6.05-5.53-8.34-3.84-3.74-9.13-4.37-14.07-1.77-12.36-13.49-30.37-20.45-48.52-17.34l-8.81,2.32c-3.77-4.84-9.9-5.62-14.46-1.93-7.18,19.24-17.59,35.37-35.06,46.66,2.22,6.99-2.17,14.97.98,17.39,5.52,4.25,17.96-8.74,21.82-20.6l4.75-14.6c1.94-5.55,4.81-9.98,9.45-13.75.7-.01,1.91.16,2.35.51s.11,1.88-.41,2.32c-4.02,3.41-6.89,8.46-8.6,13.62l-5.31,15.95c-1.7,5.1-5.62,9.52-8.43,13.81-.84,5.95-1.28,11.44-4.42,17.25l4.75-1.56c4.42-1.46,3.15,5.27-1.39,11.23l-6.52,8.55,4.76-.33c.65-.04,1.94.36,2.17.84.67,1.41-5.94,7.41-6.34,15.41,14.7-8.17,31.72-9.21,47.21-2.55,12.58-7.35,27.92-3.24,35.74,9.07-.03.68-.54,2.4-1.07,2.2l-2.17-.82c-6.27-9.39-17.96-13.28-28.43-8.53,18.34,10.54,27.7,30.63,26.84,51.9,4.85-1.9,7.08-6.67,9.17-11.35,2.2-.13,3.63,2.01,4.27,4.25,6.03-5.97,4.4-13.9,6.86-15.28.49-.27,2.06.71,2.05,1.28-.22,10.87-8.45,22.89-11.97,15.47-2.14,4.3-5.74,7.62-10.38,9.5-1.82,11.76-5.04,23.13-10.1,34.02-11.99,25.79-29.87,49.38-48.39,71.31,1.5,5.27,4.9,9.91,9.32,13.07l7.64-.45c-1.5-21.19,9.22-41.12,30.39-47.45,9.72-2.71,19.56-1.16,27.78,4.65.38.75.64,2.01.3,2.53s-1.86.59-2.5.34c-6.94-5.2-15.34-6.5-23.7-4.48-19.74,5.47-30.64,24.68-28.73,44.53.19,1.99-1.22,3.5-3.26,3.43-9.85-.3-20.9,3.38-22.48,12.5-.08.46-1.09,1.34-1.51,1.3-4.35-.44-.08-12.3,11.81-15.85-3.61-3-5.93-6.77-7.69-11.06l-17.45,18.85-26.29,25.76c-13.37-10.44-24.55-21.62-36.49-33.89-.48,4.54-2.37,6.51-6.21,7.61-36,10.3-75.31,9.78-109.28-6.98l1.34,24.25c-.07.62-1.11,2.1-1.69,1.89s-1.29-1.01-1.84-1.77c-.96-8.87-1.44-17.24-1.26-26.37-36.85-20.34-53.45-58.95-49.21-100.45,2.55-24.97,10.26-48.71,22.69-70.37,5.67-9.88,11.91-18.76,19.86-26.85,11.77-12,25.49-21.03,40.48-28.55,10.99-5.52,22.11-9.19,33.75-12.92,4.28-1.37,8.17-4.51,12.76-4.62l5.44-.14c3.5-4.85,6.21-10.39,7.3-16.35l2.11-11.47c.2-1.1-.32-3.35-1.1-4.05l-5.84-5.18c-4.38-6.15-7.03-12.79-8.04-20.33-6.36-6.25-8.46-15.2-6.54-23.81.84-5.13,3.9-9.12,7.99-12.32.04-18.8,5.15-40.09,19.8-52.52,7.96-6.76,18.31-9.21,28.73-6.52,4.3-4.75,9.41-8.24,15.67-10.26,19.06-6.15,39.48.97,56.13,11.44,10.94,6.88,20.99,14.43,34.09,12.65,3.96-.54,2.54,11.42-7.65,16.08,7.54,8.92,18.25,3.88,17.74,8.1-1.12,9.26-5.82,17.05-13.59,22.35-.24,13.58-5.84,26.52-16.21,35.59l-4.59,3.32-2.09,6.44c4.88-1.29,9.51-.64,13.24,3.14,20.23-6.35,42.38-.61,57.24,14.77,11.06-3.21,17.84,3.15,22.27,13.2,5.71,12.99,14.68,17.28,17.24,27.6,1.7,6.88-.81,13.87-5.39,19.19l-7.14,8.31c22.38,13.29,38.9,34.51,43.74,60.05,4.1,21.62-1.9,43.69-17.02,59.5-2.65,2.78-6.34,3.79-9.45,2.32l-1.84,2.72c-.38.56.73,2.02,1.08,2.72,4.38,8.81,5.99,18.37,5.99,28.25,0,.72-.26,2.24-.81,2.53-.65.34-2.07.41-3.48.51,2.66,9.91,2,25.71-2.89,20.81l-2.17-2.17-1.93,12.84c16.43-1.65,26.18-16.25,30.26-31.52,2.48-10.43,2.61-20.96-.07-31.44l.63-2.07c.14-.45,1.66-.14,2.12.08,13.02,6.4,17.08,23.59,13.75,37.98-.08.9.21.98.73.28l3.15-2.75c.62-.44,2.01,1.31,2.12,2.24,1.55,12.56-3.58,24.32-13.71,31.89l5.61.54c.44,1.59-.3,3.88-1.41,5.37-12.14,16.24-36.39,19.57-53.89,9.44-5.68,6.62-14.12,14.29-12.62,7,14.28-10.21,22.27-26.08,21.64-43.57,2.32-1.59,4.47-.7,6.42,1.57,1.19-7-.09-14.03-2.98-20.7l.66-1.53c.14-.33,1.48-.4,1.81-.25l3.67,1.77c-.07-9.5-2.17-18.62-6.37-26.83-11.52,12-29.7,23.05-45.54,21.15-3.71-.44-5.55-3.62-4.83-6.85-7.02.8-14.16.25-14.85-5.41-.34-2.75,1.24-5.08,3.51-6.93-1.84-1.09-3.65-2.63-3.96-4.08-1.17-5.6,4.66-9.17,10.7-11.76,7.52-3.22,14.68-6.58,21.06-11.93-5.48.24-10.33.99-14.8-1.29-2.3-1.17-4.18-3.57-4.17-5.76.01-2.56,1.79-5.32,4.53-5.99l12.14-2.99c5.46-1.35,10.78-2.44,16.55-2.39-.46-1.64-.63-4.06.12-5.63l4.62-9.6c.09-1.72-.97-4.86-1.56-6.62-1.79-8.04-5.8-14.77-11.97-20.17l-1.01-1.8c-.29-.51.74-2.08,1.4-1.97,1.6.27,4.56.72,7.05.2-7.8-6.26-12.88-14.1-14.45-23.93-8.93-8.94-10.8-23.3-8.47-35.71l2.4-12.76c1.48-7.86-1.6-11.83-.53-13.7.35-.62,2.66-.17,2.92.59,1.1,3.19,1.97,7.13,1.35,10.73l-2.33,13.55c-1.32,7.7-1.87,15.35.29,22.84,2.25,7.78,8.73,16.29,13.75,14.66s4.84-10.51,12.62-18.74c7.46-7.91,13.96-16.28,7.97-26.57l-6.84-9.21ZM258.98,79.25c8.2,10.36,18.47,18.14,30.59,22.9,6.85,2.55,13.92,3.62,21.07,2.77.67-.08,1.93,1.22,1.76,1.85-.61,2.21-3.84,1.42-3.88,2.07l-.11,1.87c-.53,8.85-2.43,17.15-4.17,25.89,10.53-9.19,15.52-21.68,15.46-35.14,6.82-4.31,11.61-10.59,13.36-18.92-7.47-.32-14.21-3.25-18.75-9.46-.06-.68-.11-2.05.34-2.26l1.5-.68c4.38-1.98,8.13-4.83,8.76-9.63-7.15.41-13.64-1.09-19.44-4.56l-15.15-9.05c-6.89-4.12-13.73-7.67-21.35-10.2-17.39-5.06-35.11-4.23-47.16,10.13-17.89-5.66-32.21,5.47-39.45,21.49-4.57,10.11-6.7,20.8-6.6,32.28,6.06-1.24,11.86,1.47,14.23,7.29,2.59,6.37.37,11.44,3.6,10.68,2.12-9.25,4.17-21.43,12.19-24.96,9.37-4.12,15.68-11.84,18.27-21.79.42-1.63,1.26-3.08,3.2-3.57,6.74,12.92,18.38,22.33,32.02,26.11-2.75-6.59-4.34-16.36-2.03-15.64l1.72.54ZM204.55,191.11c11.82,13.13,28.38,18.48,45,12.16,13.69-5.2,24.86-14.6,33.18-26.74,6.54-9.54,10.9-19.79,14.65-30.78,4.1-12.03,7.18-24.09,7.62-36.92-17.45-.9-31.55-9.84-43.99-21.55.06,4.71,4.88,9.95,3.45,10.74l-1.62.89c-14.72-3.09-27.19-11.4-35.95-24.25-3.03,9.97-9.88,17.51-19.27,21.92-2.49,1.17-4.2,2.99-5.57,5.4-2.8,6.58-4.35,13.18-5.68,20.47-3.02.93-7.95-1.06-8.21-4.51-.33-4.27-.1-8.48-3.28-11.67-4.07-4.1-10.71-2.98-14.3,1.99-5.28,7.31-4.79,18.21.88,25.27s11.94,4.14,13.68,5.03-3.73,26.85,19.42,52.56ZM181.97,142.21l-7.3-1.29c1.61,6.38,3.98,12.85,8.79,17.31l-1.48-16.02ZM235.84,215.38l-.05-5.88c-22.94-.56-37.72-16.81-47.34-36.24-1.77,8.58-3.36,16.45-8.51,22.86l-3.41,4.23c10.2,15.66,28.81,23.6,47.1,20.77,4.63-.71,8.75-2.67,12.2-5.74ZM127.13,305.98c-8.02,18.17-11.18,37.52-8.8,56.99l1.86,4.84,6.05,3.14c13.71,9.76,28.93,16.19,46.3,19.14l-14.17-18.01c-6.46-9.23-11.56-18.84-15.3-29.5-7.66-21.88-6.08-47.23,9.44-64.82,19.82-22.46,54.28-21.72,76.76-1.41,6.49,5.86,11.11,12.77,15.62,20.11,5.97-11.77,13.64-20.99,24.05-27.69.32-5.31,1.81-10.07,4.28-14.4-1.42-.41-3-.97-3.59-1.7-2.2-2.74,1.41-6.41,3.25-8.99l5.86-8.17c-2.44.31-4.92.58-6.29-1.12-2.13-2.64,3.43-9.06,3.39-15.92-5.34,3.59-11.76,5.38-14.77,1.56-3.63-4.62,0-10.86-.93-17.68-6.6,3.26-12.13,5.49-19.01,6.68-4.23.73,1,4.88-2.78,8.64-4.1,4.08-9.41,6.3-15.34,7.09-17.27,2.3-34.37-4.35-45.82-17.4-2.21-2.52-3.32-5.09-4.69-8.53-4.08.64-8.05,2.28-11.9,4.4,2.34,7.65,6.45,13.66,12.22,18.8,11.94,10.64,27.32,16.46,43.33,16.17,14.98-.27,28.82-7.5,33.27-21.61.2-.63,1.71-1.44,2.25-1.16s1.1,1.82.92,2.42c-4.2,13.92-16.89,21.77-31.2,23.33-18.63,2.03-37.18-4.14-51.02-16.67-6.25-5.65-10.89-12.19-13.26-20.15-19.96,5.84-38.27,14.21-54.77,26.16-12.9,9.34-23.19,20.43-31.67,33.9-13.67,21.71-22.26,45.86-25.47,71.4-5.07,40.35,9.54,78.68,45.19,99.45s77.39,20.59,114.61,8.85c4.35-14.68,2.57-33.25-2.5-47.48-29.35-1.16-53.41-5.43-77.39-22.15-1.9-1.33-4.8-3.07-6.99-3.08-8.29-.04-15.13,4.17-20.9,9.75-.52.5-1.97.75-2.49.4s-.67-1.98-.2-2.53c5.72-6.7,13.7-9.72,22.93-11.99-8.78-5.91-20.18-3.87-28.3.28-.5.21-2.13-.34-2.02-.83l.51-2.18c8.19-4.51,17.05-5.6,26.81-2.94-1.47-19.85,1.35-39.02,9.6-56.98.27-.58,1.65-1.15,2.24-1.06s1.26,1.72.84,2.67ZM402.36,282.37c.66,9.65-1.75,18.02-5.69,26.33l-3.18,6.71c5.9-.43,10.59,1.2,15.06,4.64,9.97,7.68,14.06,20.34,11.87,33.17,11.02-10.66,17.54-24.98,18.55-40.26,2.05-31.12-16.87-59.68-43.38-75.19l-4.84,9.88c-2.12,4.34-7.03,6.1-11.65,4.08,1.99,7.64,6.58,13.67,12.7,18.33,1.44,1.1,2.1,3.24.51,4.74-1.03.98-2.92,1.57-4.8,2.02,5.33,5.55,8.15,12.26,10.2,19.6,1.4-5.19,1.44-9.39,1.2-14.48.31-.61,1.17-1.54,1.75-1.72s1.63,1.22,1.69,2.15ZM245.41,391.61c10.36-.64,18.9-4.57,26.98-9.76,5.4-3.32,11.5-5.94,15.11-1.7,1.15,1.35,1.15,4.11,1.01,6.06,2.05.4,4.82,1.05,5.9,2.76,3.11,4.95-2.18,11.55-7.39,16.41,4.01,5.37-.79,11.56-6.65,15.92-12.25,9.12-31.64,14.96-46.67,16.12l-20.74,1.59,11.73,12.14,21.07,19.12,29.58-29.81c15.94-17.03,30.51-34.56,43.54-53.91,12.49-18.53,24.36-39.84,27.79-62,2.55-16.47-1.43-33.29-12.54-45.87-11.82-13.38-30.19-18.36-47.37-14-9.48,2.41-17.36,7.23-24.55,13.71-6.8,6.63-11.88,14.28-15.73,22.99-.58.49-1.42,1.15-1.92,1.06-.41-.08-1.01-.76-1.39-1.2-4.57-9.47-10.6-17.65-18.69-24.32-11.07-9.06-24.69-13.62-38.92-12.2-18.52,1.85-33.45,13.72-39.8,31.13-12.55,34.4,9.11,70.43,33,95.36l24.49,2.17c1.9.17,3.22,3.49,3.72,5.48,7.79-.76,10.72-9.24,17.54-14.01l11.79-8.25,9.45-8.11c1.77-1.52,5.07-1.39,6.98-.32,4.4,2.45,3.32,10.09.66,13.43l-7.97,10ZM358,364.47c-7.63,1.68-11.26,5.76-8.86,7.78.67.57,2.09,1.05,3.42,1.44,11.58.09,22.42-3.57,32.13-9.86.58-.09,2.28-.12,2.26.42l-.08,2.38c-6.18,4-12.19,6.84-19.33,8.64-1.45.37-3.73,1.63-4.06,3.19,2.09,3.84,12.58,1.46,18.59-.9,11.28-4.42,21.29-11.75,28.8-21.34l6.64-9.98c0-12.03-7.73-25.1-19.43-27.13-5.81,3.8-10.75,2.08-18.55,3.84l-14.43,3.26c-1.66.37-4.45,1.51-3.97,3.72.41,1.87,3.56,3.29,5.49,3.44,7.68.58,12.65-1.45,14.75.11,1.94,1.43-2.79,6.65-7.28,9.51-5.3,3.38-10.59,6.01-16.35,8.47-4.92,2.11-11.24,5.57-9.54,8.3,1.3,2.09,6.96,1.67,11.3.75,6.9-1.47,13.18-4.45,19.27-8.08.62-.37,2.39.29,2.59.94,1.01,3.26-15.31,9.32-23.36,11.1ZM442.2,433.06c-.63-.05-2.21-1.21-1.9-1.69l1.35-2.07c10.61-5.49,17.15-16.41,16.67-28.17l-5.87,3.7c-.44.28-2.23-.5-2.13-1l.34-1.77c2.54-7.34,3.48-14.73,1.65-22.23-1.47-5.52-3.64-10.75-8.69-14.53,2.52,18.8-.21,37.36-12.78,51.96-6.04,6.71-14.02,10.82-23.15,11.26-1.84,5-4.06,9.36-7.22,13.74,11.33,6.29,25.04,6.86,36.9,1.04,4.75-2.33,8.77-5.33,11.71-9.74l-6.87-.53ZM291.24,391.05c-1.82-2.09-5.26-.34-6.79,1.01-7.33,6.47-15.25,11.11-24.67,14.19-.76.25-2.3-.19-2.5-.82s.48-2.17,1.18-2.41c7.14-2.43,13.93-5.78,19.76-10.44,4.05-3.24,8.37-8.29,6.46-10.29-4.74-4.98-18.2,12.77-40.8,12.73-.74,0-2.26-.73-2.84-1.14-.48-.34-.73-2.2-.31-2.67l5.34-5.94c4.73-5.26,8.3-12.34,4.88-14.11-.82-.43-3.09-.08-3.82.53l-14.22,11.82c-2.97,2.47-6.8,4.07-9.42,6.91l-8.22,8.9-7.23,3.19c2.62,11.08,3.48,22,2.38,33.05,22.09-.9,42.98-2.67,61.94-13.11,4.93-2.92,9.42-6.46,12.39-11.27.32-.52.59-2.34.04-2.31l-2.17.1c-6.47,4.57-13,7.76-20.47,10.49-.76-.37-1.57-.91-1.84-1.44s.75-1.85,1.31-2.14c10.82-3.75,20.4-9.54,27.76-18.24,1.19-1.67,3.41-4.81,1.88-6.57Z"/>
  <path d="M317.01,249.22c-5.1,1.27-10.27-.5-12.86-4.7-2.11-3.43-2.49-7.34-2.34-11.49-8.74-2.41-11.17-14.36-8.29-17.63.42-.47,2.36.33,2.38.97.05,2.06.11,5.69.81,7.5,1.66,4.33,5.35,6.37,9.51,6.09,3.64-.25,7.69-3.66,7.73-7.86-3.16-2.69-6.2-5.85-6.73-10.32-.4-3.39,1.54-6.3,5.2-6.79,5.24-.7,10.86.82,15.32,3.74,3.22,2.11,3.52,6.3,1.04,9.06-2.76,3.08-6.47,4.59-10.74,4.98-.68,3.76.41,7.49,2.84,10.1s5.98,3.59,9.88,3.13c8.62-1.02,9.84-9.64,12.93-9.01,3.58.73-3.53,12.98-15.59,12.57-2.27,4.56-5.68,8.31-11.1,9.66ZM326.19,215.46c3.77-3.86-8.5-8.99-15.05-6.27-1.4,3.77,2.18,9.36,6.19,9.86,3.37.43,6.54-1.22,8.86-3.6ZM317.87,245.36c2.91-1.38,4.9-3.58,6.46-6.43-4.89-1.63-7.96-5.17-9.56-9.72-2.95,2.82-5.69,4.07-9.5,4.45-.15,3.06.17,6.51,1.83,9.06,2.27,3.5,6.86,4.5,10.77,2.65Z"/>
  <path d="M355.25,206.88c-2.95.62-.6-5.99-5.17-8.02-4.81-2.14-6.67,4.38-9.05,2.86-.58-.37-.71-2.22-.26-2.81,2.51-3.24,6.64-4.99,10.33-3.54,6.15,2.41,7.09,10.89,4.16,11.51Z"/>
  <path d="M313.9,194.67c-3.07,1.61-1.64-5.78-6.03-7.04-4.75-1.36-5.58,5.09-8.05,3.98-.79-.35-1.17-1.99-.74-2.77,1.98-3.6,5.48-5.56,9.41-4.76,5.53,1.13,7.87,9.3,5.41,10.59Z"/>
  <path class="cls-1" d="M127.13,305.98c.42-.95-.24-2.58-.84-2.67s-1.98.48-2.24,1.06c-8.24,17.96-11.07,37.13-9.6,56.98-9.76-2.66-18.62-1.57-26.81,2.94l-.51,2.18c-.11.48,1.52,1.03,2.02.83,8.11-4.15,19.51-6.19,28.3-.28-9.23,2.27-17.21,5.29-22.93,11.99-.47.55-.32,2.18.2,2.53s1.97.1,2.49-.4c5.77-5.58,12.61-9.79,20.9-9.75,2.18.01,5.08,1.76,6.99,3.08,23.99,16.72,48.04,20.99,77.39,22.15,5.07,14.23,6.85,32.8,2.5,47.48-37.22,11.74-80.55,11-114.61-8.85s-50.26-59.1-45.19-99.45c3.21-25.55,11.8-49.7,25.47-71.4,8.48-13.48,18.77-24.56,31.67-33.9,16.5-11.95,34.82-20.32,54.77-26.16,2.37,7.97,7.02,14.5,13.26,20.15,13.84,12.53,32.39,18.7,51.02,16.67,14.31-1.56,27-9.41,31.2-23.33.18-.6-.38-2.13-.92-2.42s-2.05.52-2.25,1.16c-4.44,14.11-18.28,21.34-33.27,21.61-16.02.28-31.4-5.53-43.33-16.17-5.76-5.14-9.87-11.15-12.22-18.8,3.84-2.11,7.82-3.76,11.9-4.4,1.38,3.44,2.48,6.01,4.69,8.53,11.45,13.05,28.55,19.71,45.82,17.4,5.93-.79,11.24-3,15.34-7.09,3.78-3.76-1.45-7.91,2.78-8.64,6.88-1.19,12.41-3.42,19.01-6.68.93,6.82-2.7,13.06.93,17.68,3.01,3.82,9.44,2.04,14.77-1.56.04,6.86-5.52,13.27-3.39,15.92,1.37,1.7,3.85,1.43,6.29,1.12l-5.86,8.17c-1.85,2.57-5.45,6.25-3.25,8.99.59.73,2.17,1.29,3.59,1.7-2.47,4.33-3.96,9.09-4.28,14.4-10.41,6.7-18.08,15.92-24.05,27.69-4.51-7.34-9.13-14.25-15.62-20.11-22.48-20.31-56.94-21.05-76.76,1.41-15.53,17.59-17.1,42.95-9.44,64.82,3.74,10.67,8.84,20.27,15.3,29.5l14.17,18.01c-17.37-2.95-32.59-9.38-46.3-19.14l-6.05-3.14-1.86-4.84c-2.39-19.47.78-38.82,8.8-56.99Z"/>
  <path class="cls-1" d="M245.41,391.61l7.97-10c2.66-3.34,3.74-10.97-.66-13.43-1.92-1.07-5.22-1.2-6.98.32l-9.45,8.11-11.79,8.25c-6.81,4.77-9.75,13.24-17.54,14.01-.5-1.99-1.82-5.31-3.72-5.48l-24.49-2.17c-23.88-24.93-45.55-60.96-33-95.36,6.35-17.41,21.28-29.29,39.8-31.13,14.23-1.42,27.85,3.14,38.92,12.2,8.09,6.67,14.12,14.86,18.69,24.32.38.44.99,1.13,1.39,1.2.51.09,1.35-.57,1.92-1.06,3.85-8.72,8.92-16.37,15.73-22.99,7.19-6.47,15.07-11.3,24.55-13.71,17.19-4.36,35.55.62,47.37,14,11.11,12.58,15.09,29.39,12.54,45.87-3.43,22.16-15.3,43.47-27.79,62-13.03,19.35-27.61,36.88-43.54,53.91l-29.58,29.81-21.07-19.12-11.73-12.14,20.74-1.59c15.03-1.15,34.42-7,46.67-16.12,5.86-4.36,10.66-10.56,6.65-15.92,5.22-4.86,10.51-11.46,7.39-16.41-1.08-1.71-3.85-2.36-5.9-2.76.14-1.95.13-4.71-1.01-6.06-3.6-4.24-9.7-1.62-15.11,1.7-8.08,5.19-16.62,9.12-26.98,9.76Z"/>
  <path class="cls-1" d="M204.55,191.11c-23.15-25.7-17.72-51.68-19.42-52.56s-7.94,2.12-13.68-5.03-6.15-17.96-.88-25.27c3.58-4.97,10.23-6.08,14.3-1.99,3.18,3.2,2.95,7.4,3.28,11.67.27,3.45,5.2,5.43,8.21,4.51,1.33-7.28,2.88-13.89,5.68-20.47,1.37-2.41,3.08-4.23,5.57-5.4,9.39-4.41,16.24-11.96,19.27-21.92,8.76,12.86,21.23,21.17,35.95,24.25l1.62-.89c1.42-.79-3.39-6.02-3.45-10.74,12.44,11.7,26.54,20.65,43.99,21.55-.44,12.83-3.52,24.89-7.62,36.92-3.75,11-8.11,21.24-14.65,30.78-8.32,12.14-19.49,21.54-33.18,26.74-16.63,6.32-33.18.97-45-12.16ZM242.69,111.59c.57.27,2.33.36,2.37-.26l.16-2.37c-7.8-6.02-17.62-7.1-26.83-3.35-.48.5-1.02,2.25-.41,2.44l2.28.73c7.67-3.29,15.86-2.21,22.43,2.81ZM181.04,114.39c-1.28-1.55-3.96-2.95-5.89-2.52-.62.14-1.05,2.17-.52,2.46l1.88,1.01c6.55,3.53,3.32,11.72,6.12,12.63s3.26-7.71-1.6-13.58ZM293.2,131.32c.31.63,2.03,1.54,2.51,1.05.41-.41.77-1.37,1.04-2.26-4.19-7.74-12.15-12.01-21.04-10.9-.28.85-.52,1.79-.55,2.35-.02.45,1.37,1.09,1.96,1.05,6.06-.4,13.1,2.59,16.07,8.72ZM238.66,132.81c2.97-1.73-2.09-9.87-7.61-11.34-9.85-2.63-16.85,3.84-13.99,5.66,2.33,1.48,5.28-4.69,12.61-2.45,6.81,2.08,6.23,9.73,8.99,8.13ZM251.28,160.91c4.87-.42,7.8-4.26,7.51-9.1-.41-6.96.16-14.51,1.93-21.02.19-.69-.66-1.95-1.23-2.02-3.7-.39-4.61,15.14-4.05,23.05.14,1.91-.88,4.47-2.51,5.12-5.75,2.28-10-3.38-11.35-.5-1.13,2.41,5.02,4.88,9.69,4.48ZM286.77,149.5c2.84-1.66-.43-9.58-5.98-11.64-6.98-2.59-14.36,1.71-12.61,4.26s4.81-3.52,11.5-.79c5.33,2.18,4.41,9.73,7.09,8.16ZM259.54,173.43c-14.23.18-26.87-4.75-37.79-13.16-6.64-5.12-6.03,9.62,2.36,19.49,4.51,5.31,10.99,7.99,17.81,7.72s12.5-3.55,16.89-8.84c1.27-1.53,2.72-3.3.74-5.22Z"/>
  <path class="cls-1" d="M258.98,79.25l-1.72-.54c-2.31-.72-.72,9.05,2.03,15.64-13.64-3.78-25.28-13.19-32.02-26.11-1.93.49-2.77,1.94-3.2,3.57-2.6,9.95-8.91,17.67-18.27,21.79-8.02,3.53-10.07,15.71-12.19,24.96-3.23.76-1-4.31-3.6-10.68-2.37-5.81-8.17-8.52-14.23-7.29-.09-11.48,2.03-22.17,6.6-32.28,7.23-16.02,21.55-27.15,39.45-21.49,12.05-14.35,29.77-15.19,47.16-10.13,7.62,2.53,14.46,6.08,21.35,10.2l15.15,9.05c5.8,3.46,12.29,4.96,19.44,4.56-.62,4.8-4.37,7.66-8.76,9.63l-1.5.68c-.45.2-.4,1.57-.34,2.26,4.54,6.21,11.28,9.14,18.75,9.46-1.75,8.32-6.54,14.61-13.36,18.92.06,13.46-4.94,25.95-15.46,35.14,1.74-8.74,3.65-17.05,4.17-25.89l.11-1.87c.04-.65,3.27.14,3.88-2.07.18-.64-1.09-1.93-1.76-1.85-7.15.86-14.22-.22-21.07-2.77-12.12-4.76-22.4-12.53-30.59-22.9Z"/>
  <path class="cls-1" d="M402.36,282.37c-.06-.93-1.12-2.33-1.69-2.15s-1.43,1.11-1.75,1.72c.25,5.09.21,9.3-1.2,14.48-2.05-7.33-4.87-14.04-10.2-19.6,1.88-.45,3.77-1.05,4.8-2.02,1.59-1.5.93-3.65-.51-4.74-6.12-4.66-10.71-10.69-12.7-18.33,4.63,2.02,9.53.25,11.65-4.08l4.84-9.88c26.51,15.52,45.42,44.07,43.38,75.19-1,15.27-7.53,29.6-18.55,40.26,2.19-12.83-1.9-25.49-11.87-33.17-4.47-3.44-9.16-5.07-15.06-4.64l3.18-6.71c3.94-8.31,6.35-16.68,5.69-26.33Z"/>
  <path class="cls-1" d="M291.24,391.05c1.53,1.76-.69,4.9-1.88,6.57-7.36,8.7-16.93,14.5-27.76,18.24-.55.3-1.57,1.61-1.31,2.14s1.08,1.08,1.84,1.44c7.47-2.72,14-5.92,20.47-10.49l2.17-.1c.56-.03.28,1.79-.04,2.31-2.97,4.81-7.46,8.35-12.39,11.27-18.96,10.44-39.84,12.21-61.94,13.11,1.1-11.05.24-21.97-2.38-33.05l7.23-3.19,8.22-8.9c2.62-2.83,6.46-4.44,9.42-6.91l14.22-11.82c.73-.61,3-.96,3.82-.53,3.42,1.77-.15,8.85-4.88,14.11l-5.34,5.94c-.42.46-.17,2.33.31,2.67.58.41,2.1,1.13,2.84,1.14,22.59.04,36.06-17.71,40.8-12.73,1.9,2-2.42,7.05-6.46,10.29-5.82,4.66-12.62,8.02-19.76,10.44-.69.24-1.37,1.78-1.18,2.41s1.74,1.07,2.5.82c9.42-3.08,17.34-7.72,24.67-14.19,1.53-1.35,4.97-3.1,6.79-1.01Z"/>
  <path class="cls-1" d="M358,364.47c8.04-1.78,24.36-7.83,23.36-11.1-.2-.65-1.97-1.31-2.59-.94-6.09,3.62-12.37,6.6-19.27,8.08-4.33.92-10,1.34-11.3-.75-1.7-2.73,4.62-6.19,9.54-8.3,5.76-2.47,11.05-5.09,16.35-8.47,4.49-2.86,9.22-8.07,7.28-9.51-2.1-1.55-7.07.47-14.75-.11-1.93-.14-5.08-1.57-5.49-3.44-.48-2.2,2.31-3.34,3.97-3.72l14.43-3.26c7.8-1.76,12.73-.03,18.55-3.84,11.7,2.03,19.42,15.1,19.43,27.13l-6.64,9.98c-7.52,9.59-17.52,16.91-28.8,21.34-6.01,2.36-16.51,4.74-18.59.9.33-1.56,2.61-2.82,4.06-3.19,7.14-1.8,13.15-4.64,19.33-8.64l.08-2.38c.02-.54-1.68-.51-2.26-.42-9.71,6.29-20.55,9.94-32.13,9.86-1.33-.4-2.75-.88-3.42-1.44-2.39-2.02,1.24-6.1,8.86-7.78Z"/>
  <path class="cls-1" d="M442.2,433.06l6.87.53c-2.94,4.4-6.96,7.41-11.71,9.74-11.86,5.82-25.57,5.24-36.9-1.04,3.16-4.38,5.37-8.74,7.22-13.74,9.13-.44,17.11-4.55,23.15-11.26,12.58-14.61,15.31-33.16,12.78-51.96,5.05,3.78,7.22,9.01,8.69,14.53,1.83,7.5.89,14.89-1.65,22.23l-.34,1.77c-.09.49,1.69,1.28,2.13,1l5.87-3.7c.47,11.76-6.06,22.68-16.67,28.17l-1.35,2.07c-.31.48,1.27,1.64,1.9,1.69Z"/>
  <path class="cls-1" d="M235.84,215.38c-3.44,3.07-7.57,5.03-12.2,5.74-18.29,2.82-36.91-5.11-47.1-20.77l3.41-4.23c5.15-6.41,6.74-14.28,8.51-22.86,9.62,19.43,24.4,35.68,47.34,36.24l.05,5.88Z"/>
  <path class="cls-1" d="M181.97,142.21l1.48,16.02c-4.81-4.46-7.18-10.94-8.79-17.31l7.3,1.29Z"/>
  <path class="cls-1" d="M317.87,245.36c-3.92,1.85-8.5.85-10.77-2.65-1.65-2.54-1.98-5.99-1.83-9.06,3.81-.38,6.55-1.63,9.5-4.45,1.6,4.55,4.67,8.1,9.56,9.72-1.57,2.85-3.55,5.06-6.46,6.43Z"/>
  <path class="cls-1" d="M326.19,215.46c-2.32,2.37-5.49,4.02-8.86,3.6-4.01-.51-7.59-6.09-6.19-9.86,6.55-2.73,18.82,2.41,15.05,6.27Z"/>
  <path d="M259.54,173.43c1.98,1.92.53,3.69-.74,5.22-4.39,5.29-10.39,8.58-16.89,8.84-6.81.26-13.29-2.41-17.81-7.72-8.39-9.88-9-24.61-2.36-19.49,10.92,8.41,23.56,13.34,37.79,13.16ZM255.51,176.98c-13.03-1.05-24.14-5.45-34.45-12.6,1.04,8.99,6.68,16.5,15.18,19,7.28,2.14,14.7-1.01,19.27-6.39Z"/>
  <path d="M251.28,160.91c-4.67.4-10.82-2.07-9.69-4.48,1.35-2.88,5.6,2.79,11.35.5,1.63-.65,2.64-3.21,2.51-5.12-.56-7.91.34-23.45,4.05-23.05.57.06,1.42,1.33,1.23,2.02-1.76,6.52-2.34,14.07-1.93,21.02.28,4.84-2.64,8.69-7.51,9.1Z"/>
  <path d="M242.69,111.59c-6.56-5.02-14.76-6.1-22.43-2.81l-2.28-.73c-.61-.2-.07-1.95.41-2.44,9.21-3.75,19.03-2.67,26.83,3.35l-.16,2.37c-.04.62-1.8.53-2.37.26Z"/>
  <path d="M238.66,132.81c-2.77,1.61-2.18-6.04-8.99-8.13-7.33-2.24-10.28,3.93-12.61,2.45-2.86-1.82,4.15-8.29,13.99-5.66,5.52,1.47,10.58,9.61,7.61,11.34Z"/>
  <path d="M293.2,131.32c-2.97-6.12-10.01-9.12-16.07-8.72-.58.04-1.98-.6-1.96-1.05.03-.56.27-1.5.55-2.35,8.89-1.11,16.85,3.16,21.04,10.9-.28.89-.64,1.85-1.04,2.26-.49.49-2.21-.41-2.51-1.05Z"/>
  <path d="M286.77,149.5c-2.68,1.57-1.77-5.98-7.09-8.16-6.69-2.74-9.84,3.21-11.5.79-1.74-2.55,5.63-6.85,12.61-4.26,5.55,2.06,8.82,9.98,5.98,11.64Z"/>
  <path d="M181.04,114.39c4.86,5.87,4.44,14.5,1.6,13.58s.43-9.1-6.12-12.63l-1.88-1.01c-.53-.29-.1-2.31.52-2.46,1.92-.44,4.6.97,5.89,2.52Z"/>
  <path class="cls-1" d="M255.51,176.98c-4.58,5.39-12,8.54-19.27,6.39-8.49-2.5-14.14-10.01-15.18-19,10.31,7.16,21.42,11.56,34.45,12.6Z"/>
</svg>