<?xml version="1.0" encoding="UTF-8"?>
<svg id="_レイヤー_1" data-name="レイヤー 1" xmlns="http://www.w3.org/2000/svg" viewBox="0 0 1500 500">
  <defs>
    <style>
      .cls-1 {
        fill: #c32224;
      }

      .cls-2 {
        fill: #281d18;
      }
    </style>
  </defs>
  <path class="cls-2" d="M735.51,345.1c.09,3.34-2.92,4.61-5.24,4.74-2.07.11-5.54-.75-5.64-3.56l-.61-17.01-18.56.39c-3.79.08-6.3-1.8-6.41-5.23-.1-3.24,2.38-5.42,6.09-5.49l18.31-.35-.04-16.02c0-2.85,3.06-3.8,5.11-3.9,2.41-.12,5.65.9,5.8,3.88l.82,15.87,19.29-.64.09-17.26c.02-3.58,3.07-4.96,5.91-4.97,3.32-.01,5.86,2.13,5.87,5.96l.05,15.94,20.81.07c3.13.01,5.2,2.48,5.36,5.14.16,2.73-2.19,5.55-5.48,5.56l-21.11.06c1.15,23.34-10.54,44.22-31.5,53.55-3.29,1.47-6.71-.6-7.65-3.36s.19-5.8,3.53-7.18c16.95-7,25.01-24.04,24.37-43.03l-19.61.4.43,16.47Z"/>
  <path class="cls-2" d="M531.22,367.08c13.6-4.83,24.82-13.33,35.1-23.35-9.69-6.35-21.76-4.35-19.26-12.44,2.48-8.01,16.52-1.25,26.7,3.28l10.89-17.74c.53-.86.58-1.88.17-2.44-1.91-2.57-27.34.75-38.46,2.39-3.21.48-5.89-1.47-6.41-3.76-.76-3.39.97-6.79,4.6-7.09l31.21-2.53c8.63-.7,19.39-.77,22.42,4.35,1.45,2.45,1.21,5.23-.01,7.69-4.24,8.55-8.46,16.6-14.3,24.64,9.03,6.82,20.72,12.74,15.3,20.08-5.93,8.04-12.32-4.82-22.84-10.81-12.09,12.86-26.01,23.56-42.77,28.96-3.44,1.11-6.86-1.77-7.33-4.23-.68-3.53,1.17-5.64,4.98-7Z"/>
  <path class="cls-2" d="M476.19,375.13l.54-41.18c-9.5,8.23-17.97,15.6-28.19,21.46-2.73,1.57-5.51,2.99-8.59,2.78-2.51-.48-4.44-2.02-4.89-4.01s.27-4.76,2.51-5.93c20.08-10.54,42.55-31.07,53.76-50.44,1.77-3.06,4.67-4.1,7.49-3.33,12.06,3.26-1.75,16.54-10.56,27.5-1.28,1.59-.02,3.22-.02,4.84l.2,46.88c.02,4.22-1.24,7.36-5.26,7.77-3.44.35-7.06-1.58-7-6.34Z"/>
  <path class="cls-2" d="M939.43,334.09c-8.77,7.71-17.23,15-27.19,20.8-2.66,1.55-5.34,3.03-8.42,3.16-2.82-.13-5.02-1.63-5.72-3.72-.84-2.54.56-5.24,3.18-6.62,20-10.56,41.8-30.82,53.06-50.16,1.91-3.28,5.19-4.24,8.35-2.85,2.68,1.18,5.52,4.92,3.25,7.86l-15.4,19.9.27,35.3c.09,12.21,2.56,26.05-7.38,23.73-3.29-.77-4.71-3.36-4.66-6.86l.67-40.53Z"/>
  <path class="cls-1" d="M646.21,366.95c17.29,5.57,26.72-7.25,31,.79,4.7,8.82-20.49,13.15-35.68,7.14-8.98-3.55-12.53-12.76-8.64-21.18,2.62-5.68,6.74-9.8,11.94-13.75-3.26-6.81-5.87-13.43-10.35-19.18-1.91-2.45-2.24-5.47.44-7.58,7.1-5.58,12.53,11.98,17.73,21.9l16.17-10.18c2.76-1.74,5.9-.51,7.09,1.87,1.45,2.9.18,5.61-2.8,7.07-10.21,5-28.11,14.58-31.81,22.64-2.05,4.45.02,8.88,4.93,10.46Z"/>
  <path class="cls-2" d="M1009.26,375.12c-3.74,1.12-6.92-.38-8.39-3.1-1.13-2.09-1.35-6.96,2.05-8.01,7.31-2.28,14.01-4.51,20.62-8.69,16.25-10.29,29.13-24.58,38.12-41.63,1.81-3.43,5.55-4.25,8.7-2.64,2.97,1.52,3.89,5.39,2.09,8.8-12.79,24.27-36.24,47.24-63.2,55.27Z"/>
  <path class="cls-2" d="M843.57,366.04c-9.71,6.11-25.09,13.78-28.57,5.74-1.13-2.6-.76-7.06,2.6-7.97,25.51-6.88,45.8-27.08,58.28-49.82,1.81-3.29,4.66-4.53,7.9-3.28,3.21,1.23,4.92,5.01,2.99,8.66-10.1,19.1-24.83,35.12-43.2,46.67Z"/>
  <path class="cls-2" d="M832.56,329.74c-6.89-4.97-13.25-8.72-21.02-11.41-2.46-.85-2-5.29-.81-6.9,1.29-1.74,3.48-3.48,6.42-2.93,8.25,1.55,15.96,5.54,22.15,11.25,2.08,1.92,1.33,5.24.38,7.24-.85,1.77-4.39,4.71-7.12,2.74Z"/>
  <path class="cls-2" d="M1017.86,329.58c-6.63-4.87-12.82-8.6-20.34-11.04-2.7-.88-2.39-4.67-1.56-6.19,1.19-2.18,3.39-4.35,6.42-3.87,7.6,1.22,14.87,4.89,20.94,9.48,3.1,2.34,3.63,5.18,2.38,8.21-.98,2.37-4.6,5.79-7.84,3.4Z"/>
  <path class="cls-2" d="M801.69,475.36l-1.24,4.5c-3.71.56-7.9.68-11.77.01-1.43-.25-1.54-3.27-1.53-5.24-2.21,1.06-3.96,2.51-6.06.35l6.64-3.5c-2.07-1.26-3.05-.78-4.37-.56-.77.13-1.96-.65-1.25-2.23,3.01-.52,6.54.76,9.55-.91-3.72-.5-5.48-.89-5.69-3.46-.26-3.15,1.13-4.3,4.5-4.77-3.46-2.22-6.16.38-8.94-2.29l9.51-1.99c1.61,0,4.26,2.82,6.27-.65,2.59,2.29,5.85,1.7,9.59,2.22-2.43,3.64-5.63.97-8.63,2.36,1.55,1.07,3.7.88,4.2,2.91.33,1.32.54,4.47-1.5,4.84l-6.35,1.15,11.84.57c.44,1.2-.06,2.18-.56,2.19-.97.02-2.37-.66-4.4.74l5.31,2.5c.31,1.69-.87,2.08-1.37,1.96-.85-.19-2.32-1.24-3.75-.71ZM796.03,459.01c-.8-1.21-2.29-1.04-3.13-.45-.41.29-1.29.8-.42,1.64l3.51-.1c.34,0,.95-.64.04-1.1ZM788.16,461.94v.94h11.75v-.94h-11.75ZM789.1,464.76v.94h9.87v-.94h-9.87ZM797.58,471.95c-1.99-2.73-5.31-2.11-6.68.05,2.44.44,4.32.48,6.68-.05ZM790.04,474.14v.94h7.99v-.94h-7.99ZM790.04,476.96v.94h7.99v-.94h-7.99Z"/>
  <path class="cls-2" d="M660.15,464.51c.16.84.71,3.91,1.89,3.99,3.21.22,5.86,0,8.38-.45l.24-1.23-7.49-.63c-.23-.6-.3-1.24-.3-1.29,3.63-1.17,7.41-.71,11.28-.1-.41,1.14-.77,2.64-.38,3.12s2.42-.04,2.73,2.23l-15.38.32-.08,1.53,16.38.28c-.07,2.25-1.89,2.34-4.23,2.11,1.83,1.76,4,3.08,3.58,5.79-1.58.49-3.05-1.07-4.11-1.23l-11.49.92c-.64.05-.9-.97-.69-1.42.72-1.52,4.31-.43,4.47-4.01l-8.66-1c-1.42,2.9.1,6.04-1.24,7.04-.3.22-1.74,0-1.74-.38l.02-23.22c2.28-1.38,5.37-1.56,7.48-.09.52.75.11,2.98.5,4.29,1.79-.81,2.89-2.06,4.03-3.58,3.57-4.75,7.06.95,12.66,4.24.33,3.8-7.58-1.01-17.08,1.93l-.78.83ZM658.01,460.6c.54-.88.48-2.02,0-2.41-.3-.24-1.95.05-1.95.43l-.06,12.25c1.16.6,2.38-.35,2.5-1.1.59-3.75-3.13-4.86-.49-9.17ZM671.51,460.66c-1.07-1.99-2.42-2.63-3.11-2.45-.91.23-1.74,1.5-1.56,2.48l4.67-.03ZM660.5,463.25c-.29-.82-1.26-.46-1.04.34l1.04-.34ZM670.84,474.24l-3.64.26.2,2.76,3.64-.26-.2-2.76Z"/>
  <path class="cls-2" d="M859.57,229.88c4.64,2.05,9.33.42,13.99.44l35.16.08,2.03,4.96-63.32-1.21-7.11.66c-1.32-1.01-3.63-3.12-4.25-4.86l23.51-.08Z"/>
  <path class="cls-2" d="M799.75,432.56c-4.16-2.45-13.29,4.79-16.36-3.77-1.21-3.36.69-6.96,4.65-8.3,2.46-.83,6.1-.65,7.96-2.44.35-1.85-1.65-2.93-2.8-2.98-3.82-.17-5.85,3.54-7.86,2.24-1.29-.84-1.25-2.87.33-4.02,3.38-2.45,8.69-3.06,12.32-.61,4.6,3.1.42,12.41,3.44,15.25,1.17,1.11,2,2.01,1.62,3.42-.3,1.1-2.02,1.96-3.3,1.2ZM795.31,423.31c-2.39-1.07-7.23.96-7.43,2.87-.4,3.74,3.67,3.46,5.86,2.42,1.64-.78,3.38-4.47,1.57-5.29Z"/>
  <path class="cls-2" d="M732.16,422.22c0,6.16-5,11.15-11.16,11.15s-11.16-4.99-11.16-11.15,5-11.15,11.16-11.15,11.16,4.99,11.16,11.15ZM727.64,422.3c0-3.65-2.96-6.61-6.62-6.61s-6.62,2.96-6.62,6.61,2.96,6.61,6.62,6.61,6.62-2.96,6.62-6.61Z"/>
  <path class="cls-2" d="M628.87,432.88c-5.54.92-1.38-8.48-3.68-15.59-.68-2.09-3.8-2.16-5.45-1.32-1.47.75-3.11,2.19-3.13,4.66l-.11,10.83c-.01,1.15-1.25,1.26-1.77,1.43-.72.23-2.76-.13-2.74-1.31l.38-19.54c.41-1.19,3.92-.09,4.51,1.08,4.29-2.85,10.93-2.71,12.85,2.24,1.8,4.63.53,9.7.93,14.44.15,1.74-.71,2.91-1.8,3.09Z"/>
  <path class="cls-2" d="M655.59,414.5c.01-1.85.76-2.71,1.62-3.01,1.09-.38,2.94.06,3,1.75l.52,14.5,1.17,2.81c.55,1.31-.92,2.28-2.09,2.33s-2.57-.87-3.6-1.73c-2.49,1.35-5.29,2.67-8.04,1.99s-5.77-2.3-5.81-5.65l-.19-14.85c-.01-1.13,1.93-1.36,2.61-1.18,4.68,1.3-1.89,20.25,7.02,17.27,1.94-.65,3.72-2.07,3.74-4.49l.06-9.75Z"/>
  <path class="cls-2" d="M643.37,479.1l-15.68.14c-1.99.02-3.3-1.69-3.3-3.6l-.02-12.89c.47-.45,1.4-.63,1.73-.59.52.07,1.26.44,1.29,1.73l.34,11.96c.51,1.11,4.62,1.25,5.57.19l.45-19.29c.02-.76,2.57-.82,2.59.05l.5,19.24c.78,1.09,5.11.96,5.54-.16,1.63-4.27.17-8.98.72-13.21.09-.72,2.55-.66,2.55-.06l.15,13.37c.01,1.23-.64,3.1-2.43,3.12Z"/>
  <path class="cls-2" d="M828.12,432.89c-3.95-1.26-.19-9.63-2.56-15.7-.79-2.03-3.84-2.09-5.51-1.06-1.2.74-2.85,2.18-2.84,4.54v9.36c.02,1.87-.97,2.82-2.26,2.9-1.66.11-2.49-.88-2.44-2.84l.43-18.49,5.8.72c2.57-.98,5.09-1.44,7.75-.54,1.79.6,4.24,2.52,4.25,5.52l.06,14.19c0,1.21-1.83,1.67-2.68,1.4Z"/>
  <path class="cls-2" d="M900.47,432.88c-3.05-1.58-.14-8.99-2.02-15.3-.64-2.14-3.43-2.55-5.25-1.73-1.27.58-3.34,1.87-3.38,4.12l-.18,10.09c-.04,1.94-.79,2.96-2.35,2.95-1.3,0-2.34-1.22-2.3-3l.42-17.59c.04-1.88,3.65-.74,4.6.53,4.07-2.44,11.22-2.8,12.9,2.7,1.53,5,.64,10.78.51,15.87-.03,1.37-2.14,1.76-2.96,1.33Z"/>
  <path class="cls-2" d="M752.31,478.37c.74,3.42-7.98.92-12.55-9.22-2.99,8.28-11.86,13.15-12.64,10.09-.73-2.85,8.66-3.37,10.22-12.91l-9.4-.52c-.42-.24-.52-2.01-.13-2.39l9.72-.31.52-7.18c.05-.63,2.5-.71,2.61-.09l.3,7.22,8.67.09c.88,0,1.4.16,1.72.38.64.45.39,2.36-.6,2.4l-9.24.29c2.72,8.91,10.35,10.1,10.8,12.17Z"/>
  <path class="cls-2" d="M772.08,431.37c-4.11,3.1-10.01,2.29-13.25-.97-1.01-1.02-.85-2.4-.31-3.21,1.86-2.8,9.08,5.91,10.84-.06.97-3.29-8.42-3.41-9.92-7.39-.98-2.59-.68-5.76,1.74-7.23,3.13-1.9,7.4-1.53,10.4.22,1.4.82,1.7,2.54,1.1,3.5-1.43,2.27-8.83-3.59-9.1.67-.2,3.11,8.77,3.12,10.08,7.47.69,2.29.71,5.28-1.59,7.01Z"/>
  <path class="cls-2" d="M845.01,480.03c-.87-1.88,2.47-2.75,3.74-5.98-3.81.25-5.25-1.64-5.33-4.14s1.71-4.52,5.35-4.08c.58-1.9-.73-2.81-2.21-2.53l-7.68,1.44c-.94.18-1.98.12-2.25-.65-1.24-3.46,5.99-1.77,11.66-4.11.52-.42.5-2.85.54-3.56.04-.65,1.51-.79,2.53-.29-.68,8.12,9.91.99,8.37,7.01l-7.51.18c-1.76,1.3-.15,4.74.14,6.51,1.1,6.6-6.11,12.87-7.35,10.2ZM849.27,469.8c0-.91-.74-1.65-1.66-1.65s-1.66.74-1.66,1.65.74,1.65,1.66,1.65,1.66-.74,1.66-1.65Z"/>
  <path class="cls-2" d="M696.07,425.77c-.09,4.89,5.7,2.29,5.9,4.71.11,1.33-.46,2.18-2.17,2.45-3.4.54-7.89-.32-8.08-4.04l-.65-12.75c-.03-.63-1.96-.83-2.49-.9-.77-.09-1.8-2.35-.53-2.88l2.82-1.16c.91-.38.86-2.41.67-3.6-.3-1.91.91-2.96,2.18-2.95,3.31.03,1.78,4.2,2.46,6.07.61,1.67,5.45-.27,5.41,2.88-.02,1.39-.98,2.34-2.84,2.02-.6-.1-2.14.12-2.5.51l-.18,9.64Z"/>
  <path class="cls-2" d="M702,478.69c-.66,1.42-8.36.79-10.88-3.88-1.91-3.54-1.56-7.39.75-10.93-4.82.69-8.4,3.01-8.7.43-.14-1.14.45-1.74,1.81-2.04l17.65-3.81c1.2-.26,1.85.47,1.98,1.14.75,3.74-8.17-.38-11.38,7.22-.99,2.34-.86,4.83.83,6.88,2.84,3.45,9.72,1.18,7.95,4.99Z"/>
  <path class="cls-2" d="M763.03,473.49c-.97,4.77,9.47,1.52,11.27,1.92.69.16,1.08,2.11-.13,2.65-3.71,1.67-9.4,2.1-12.65-.76-3.52-3.09-.67-7.53,2.08-10.02,1.11-2.94-2.51-4.99-3.15-8.37-.13-.68,1.03-1.71,2.17-.99,2,1.26,2.88,4.23,4.16,7.17l5.53-2.95c.85-.45,1.98-.09,2.21.47,1.43,3.48-10.21,4.53-11.5,10.87Z"/>
  <path class="cls-2" d="M820.15,480.01c-1.08-.03-1.24-2.03-.65-2.37,1.87-1.09,10.08-1.93,8.35-6.45-2.01-5.24-11.82,4.93-12.77,2.47-1.55-4-.24-8.74.96-12.34,1.14.12,1.92.41,2.11.62-.28,2.79-1.32,4.72-.7,8.25,3.56-2.43,8.3-3.89,12.09-1.69,2.43,1.4,2.09,5.16.41,7.05-2.43,2.74-5.87,4.59-9.81,4.47Z"/>
  <path class="cls-2" d="M599.81,430.38c.03,1.88-1.09,2.73-2.11,2.85-1.25.14-2.72-.7-2.69-2.45l.24-18.19c.02-1.6,4.23-1.58,4.25.06l.31,17.73Z"/>
  <path class="cls-2" d="M873.18,429.85c.03,1.69-.77,2.82-1.87,3.03-1.89.36-3.19-.73-3.19-2.84l.03-15.96c0-1.86.97-2.59,2.27-2.64s2.5.84,2.53,2.62l.23,15.79Z"/>
  <path class="cls-2" d="M941.72,231.08c.49,1.49,2.57,2.74,2.37,5.08-5.97-1.57-13.07-.34-19.24-.2-1.45-1.34-1.1-3.27-1.66-5l18.53.11Z"/>
  <path class="cls-2" d="M854.17,423.89l-10.19-.03c-1.48,0-2.22-1.07-2.31-1.89-.17-1.58.9-2.56,2.82-2.55l9.51.05c1.52,0,2.38.59,2.62,1.62.29,1.22-.35,2.79-2.46,2.79Z"/>
  <circle class="cls-2" cx="870.47" cy="403.54" r="3.21"/>
  <path class="cls-2" d="M703.7,468.9c-1.44.89-2.63-.63-3.48-1.22-.61-.42-1.61-1.79-.2-2.54,1.59-.84,2.57-2.32,3.96-2.22,1.14.09,3.65,1.24,3.35,2.82-.2,1.02-2.56,2.48-3.64,3.15Z"/>
  <circle class="cls-2" cx="597.21" cy="403.54" r="3.2"/>
  <path class="cls-2" d="M866.37,479.54c.02-.98,2.28-.79,2.86-.75.78.06,1.42-1.86.47-2.84-.54-.56-1.72-1.1-2.61-.44-.63.46-.83,1.79-1.23,3.91-1.82-1.21-1.37-3.16-.31-4.47,1.24-1.51,3.33-1.43,4.59-.46,1.59,1.23,1.54,2.98,1.04,4.31-.7,1.85-4.08,2.71-4.8.74Z"/>
  <path class="cls-2" d="M824.27,459.52c.59,1.54-2.85,2.87-4.03,1.8-1.24-1.12-2.13-3.54-2.55-5.39,2.68-.31,5.68,1.25,6.58,3.59Z"/>
  <path class="cls-2" d="M718.18,479.26c.76,2.16-5,1.8-7.5-4.66,2.93-.52,6.38,1.45,7.5,4.66Z"/>
  <path class="cls-2" d="M747.65,461.62c-1.12.86-5-1.97-4.7-3.35.48-1.97,2.56-1.05,3.56-.3.84.63,3.06,2.17,1.13,3.65Z"/>
  <path class="cls-1" d="M960.06,231.73c.21,1.42.21,2.79.03,4.2-5.04,4.14-10.6,1.65-15.99.23.19-2.34-1.89-3.59-2.37-5.08l-2.64-8.08-3.07-23.87c-6.8,3.91-14.38,3.57-14.75,7.14-.89,8.51-.59,16.95,1.93,24.7.56,1.73.21,3.65,1.66,5l4.04,3.74c1.35,1.25,2.17,3.11,1.79,4.68-1.08,4.51-12.73,5.35-16.26,1.37-2.54-2.87-2.42-7.3-3.69-10.39l-2.03-4.96-6.25-27.21c-9.39-1.63-17.85-3.78-27.15-7.7-2.33,5.38-5.99,8.55-9.15,12.99-2.33,3.29-1.21,10.61,1.63,13.05,1.9,1.63,4.55,1.64,5.36,3.11,1.11,2.01,1.04,3.7.41,5.68-4.65-.02-9.35,1.61-13.99-.44-1.27-1.41-2.2-3.24-2.9-5.47l-4.68-15.04c-1.88-6.05,6.04-10.6.94-17.61l-13.03,18.69c-4.08,5.85-6.19,12.93-3.85,19.51.62,1.74,2.93,3.85,4.25,4.86.38,1.25.63,2.56.05,3.7-1.46,2.87-10.12,4.22-14.62.95-1.61-1.16-1.58-4.04-1.68-5.52-.08-1.23-.34-2.92-.33-4.14l.19-18.98c1.9-6.55,3.08-12.02,3.51-19.24l.77-13.14c-.93-10.71,2.37-20.91,8.34-29.5,2.19-3.15,2.11-5.66.58-9.13-1.77-4.01-1.28-9.71,1.33-13.51,4.93-7.2,15.11-9.1,22.16-4.42,4.4,2.92,5.81,7.58,3.53,12.88l27.47,1.1c3.84.15,8.63-1.69,11.52-3.96,2.41-1.89,2.11-6.52-.03-8.07-.13,2-2.58,4.76-3.57,3.88l-6.22-10.26c-1.69-2.78-2.68-7.05.38-9.08l15.38-10.18c1.68-1.11,5.03.16,6.81-.51,8.06-2.99,16.02-3.78,24.33-5.11,3.52-.56,5.7-1.51,9.87-.63l13,2.73c3.09.65,4.98,2.52,4.61,5.89l-1.54,14.34-5.69-4.17,3.02,14.59c1.28,6.2-1.51,11.97-4.08,17.57,1.12,5.32,1.32,10.44.53,15.85,1.59,7.8.67,15.36-2.81,22.31-2.4,4.79-3.25,9.78-3.82,15.06l-2.69,24.58c-.76,6.94,5.77,7.53,9.44,11Z"/>
  <path class="cls-2" d="M773.55,40.37c-.7,2.22-.58,4.08-.32,5.71,1.51,9.5,4.2,24.11-3.33,27.32-2.38,1.01-5.68.47-7.72-1.49l-12.4-11.89c-4.38-4.2-7.81-9.39-3.96-15.23,11.74-17.8,19.11-23.66,41.91-20.75,16.77,2.14,15.16,15.79,24.01,18.29l16.07,4.55c2.08.59,3.99,2.29,3.35,4.84-1.15,4.6-2.12,9.8-4.78,13.83-8.56,12.97-26.67,6.05-30.89,12.27-7.26,10.71,6.39,26.66.57,44.26l-3.67-3.03c1.29,11.55-.99,31.7-4.68,30.41-.7-.25-.87-1.84-2.33-3.23.13,7.93-4.81,13.31-8.56,19.94-7.56,13.39-6.87,54.96-.26,55.71,4.62.53,7.15,3.38,9.06,7.19l38.11.73c-.01,1.22.24,2.92.33,4.14l-38.63.07c-5.43.02-10.39,2.27-16,.61-3.49-1.04-7.32-1.24-10.53-.44,2.73,1.3,4.48,2.83,5.32,4.49s1.22,5.17-.85,6.09c-6.15,2.74-14.39,2.74-20.28-.58-3.47-1.95-4.06-6.29-5.18-10.41l-124.86.83c.53,2.19,1.48,3.81.8,5.78-1.39,4.06-12.35,4.89-18.83,2.27-2.88-1.16-3.46-4.71-4.35-7.69l-92.68,2.19c-4.7.11-9.42,2.01-14.25,1.11.74,3.35.4,6.66-3.04,7.65-3.75,1.09-7.77,1.2-11.68.63-4.53-.67-7.08-3.56-7.85-8.65l-107.84,4.07c-.68,1.77-.94,3.46-1.86,4.51-4.84,2.73-11.24,3.03-16.47.67l-3.73-4.15-90.05,5.03c.89,1.67,1.67,3.17,1.37,4.66-.92,4.61-10.91,5.39-16.88,3.16-2.44-.92-3.34-3.53-4.46-6.4l-119.8,10.55-3.4,2.31c-4.57,3.1-9.44-.32-14.07.03-27.21,2.07-53.67,6.52-80.62,10.5-1.72.25-2.53-.81-2.55-1.94-.03-1.46.94-2.2,2.66-2.44l77.27-10.49c-1.58-9.9-1.88-33.09-.07-36.28,4.56-8.05,7.94-15.79,5.46-25.44-3.11-12.11-4.68-24.78-2.54-37.36,1.35-7.92,5.26-14.6,9.03-21.83l-6.42-11.17c-.44-.76-.59-1.52-.75-2.41-.08-.45.17-1.11,1.05-1.09.4,0,.98-.41,1.27-.94-2.47-6.39-1.34-12.29,1.93-18.18,3.63-6.54,7.78-12.37,15.2-14.81l2.01,2.07c8.72-5.31,18.57-3.56,26.47,2.24,8.83,6.49,11.77,14.34,8.77,26.29,24.55-1.15,38.37-.34,61.63-10.87,3.44-1.56,5.46-5.94,6.8-9.11,3-7.14,6.13-13.59,9.87-20.17s8.78-11.08,13.64-16.41c5.43-5.96,14.66-24.82,16.57-15.54l2.03,9.84,8.79-10.23c.51-.59,1.31-.83,1.84-.73.74.13,1.64.84,1.58,2.17l-.71,13.43c5.69,2.67,11.61,5.94,13.59,11.86,1.28,3.82,2.8,6.24,6.8,7.62l15.88,5.5c-.19,12.15-9.8,19.55-20.92,20.36-6.16.45-9.8,4.52-10.87,10.05l-6.66,34.56c-2.07,9.26-5.18,17.56-10.09,25.79-2.68,15.62-3.84,31.18-2.9,47.04.24,4.01.96,7.92,2.63,11.51,4.13.76,7.49,2.23,8.85,6.74l70.32-3.91.75-28.16c.18-6.78,9.93-7.92,12.05-19.96,3.28-18.6-3.19-30.63,5.87-43.78,2.18-3.16,1.83-5.37-.36-8.29-11.01-14.69-15.47-33-10.95-50.75,2.11-8.3,6.49-17.64,12.42-16.22,4.18,1,3.56,7.31,2.17,13.89-3.5,16.6-2.62,33.66,10.64,45.19,11.64-3.18,22.89-4.34,34.8-4.78l28.9-1.05c5.87-.21,27.03-8.51,29.68-13.43l15.46-28.7c2.65-4.92,6.16-9.65,11.43-12.07,10.49-4.82,22.89-4.07,33.18.55,5.27,2.37,6.15,7.61,9.48,11.37,4.6,5.2,20.5,3.32,19.16,11.66-.73,4.54-1.55,9.61-4.06,13.61-4.79,7.63-14.17,10.25-22.96,8.83-3.72-.6-6.34-.08-8.31,3.16-5.8,9.54-8.94,20.25-9.56,31.6-.76,10.23-3.8,19.56-10.28,27.44-1.89,12.3-2.55,23.94-2.65,36.38.49,3.15-.08,8.17,2.57,10.34,2.6,2.13,6.49,2.71,7.55,7.21l92.04-1.99.65-30.65,8.41-10.6c3.33-6.02,3.53-13.09,2.89-19.4-5.98,9.52-15.74,18.79-14.99,10.54-4.65,3.96-9.8,7.4-17.09,7.64-.07-2.08.99-3.17,1.43-4.98-6.33,2.82-12.98,2.44-18.56-1.64l4.03-3.33c-6.97-.52-12.53-2.73-14.18-9.35,22.44-2.08,42.33-11.61,50.7-32.2,10.56-25.99,34.28-42.65,62.56-42.94l42.13-2.49c6.92-.41,12.72-2.98,19-5.53,7.33-2.98,14.43-6.64,18.12-13.87l8.1-15.84c2.43,4.14,5.77,5.9,8.62,8.77,4.72,4.77,12.06,15.89,19.65,11.47,5.24-3.06,6.72-9.25,5.86-15.08M512.57,73.31c-.67-.02-.79.6-.27,1l.27-1ZM513.3,74.19l-.13.8c4.72,3.66,7.76,9.9,8.37,16.11.36,3.76-2.55,6.81-3.22,10.02-.78,3.72-.12,7.11-2.15,10.71,11.77,3.08,23.72-2.44,23.23-12.71-2.44-1.94-4.96-4.82-5.41-8.53-3.01-2.09-9.6-2.16-11.68-5.99-2.37-4.38-3.95-9.38-9-10.41ZM347.12,92.61c.76-5.8,2.99-10.99,2.41-17.59-5.55,4.46-6.55,10.72-8.15,17.45,1.76.96,3.54.77,5.75.15ZM467.92,113.48c1.07,8.08,9.03,10.48,13.76,15.46,4.91,5.17-.53,14.33-5.46,17.39-3.84,2.39-4.81,6.84-5.3,10.71l-1.72,13.41c-1.14,8.86-9.21,14.56-18.48,13.62-5.39-.54-10.83-2.44-15.62-4.83-9.52-4.74-19.03-4.88-29.56-3.45-12.63-2.18-22-8.02-31.04,4.45-6.34,8.75-15.63,14.05-26.99,12.43-1.22,5.79-4.47,10.09-8.8,13.63-2.57,2.1-3.15,4.5-3.19,7.81l-.3,24.44c-.03,2.49,1.25,5,3.91,5.48s6.27.81,8.77-.45c3.86-1.94-5.65-5.6-5.33-8.75l1.36-13.1c.49-4.69,3.99-8.96,8.13-11.49,10.43-6.37,18.33-14.4,25.26-24.38,4.99-7.18,13-11.18,21.28-8.79l13.16,3.8c14.28,5.03,28.97,7.3,44.36,7.15,3.52,12.49,3.01,24.73,4.78,37.28.52,3.7,4.09,6.92,4.21,11.27.05,1.78,1.2,4.66,3,5.3,3.61,1.28,7.99,1.42,11.62-.15,1.67-5.87-7.8-3.95-8.38-13.59-.81-13.31.4-26.43,2.56-39.59.67-4.09,20.6-11.01,22.35-36.02.92-13.16,4.3-25.59,11.1-36.46-4.47.03-2.75-6.99-8.37-16.75-2.73-4.74-4.5-9.48-5.72-14.62-1.58,5.19,1.18,9.42,3.13,13.55,4.48,9.47,8.42,21.55,1.53,27.42-7.44,6.34-22.19-1.77-29.58-12.53l-.41.34ZM467.36,111.73c-.63.08-.78.85-.19,1.13l.19-1.13ZM119.89,118.05c1.37-3.76-2.69-4.99-4.92-4.87s-5.54,2.56-4.07,4.88c1.22,1.91,8.14,2.1,8.99-.01ZM87.72,121.94l-.28.97c-.32-.16,1.13,0,.28-.97ZM725.41,197.3c-3.06.31-3.34,2.01-4.75,3.08-2.04-6.53,4.67-18.12-1.87-20.06-10.77-3.19-23.05,2.39-27.7-5.46-.54-.91-2.18-2.23-3.57-.98-.02,1.28,1.11,3.42.32,4.96l-14.01-9.14c-.98-.64-2.46-.69-3.16-.24-2.13,1.35-3.87,15.4-21.16,25.4-2.86,1.65-5.3,3.58-6.1,7.21-1.24,5.61-1.23,12.03,1.25,17.34,1.06,2.28,10.11,1.44,10.63,10.35l80.6-.59c-.22-3.03-1.24-4.65-2.26-5.23-1.22-.68-2.9-.73-4.68-.61l.52-11.48c-1.85,1.16-2.55,2.4-4.35,2.65-1.72-6.04-.35-11.39.29-17.2ZM93.49,251.06c3.2,1.17,4.73,2.67,6.96,4.82l118.58-10.77-3.23-10.31-4.05-28.88c-.71-5.07-1.31-9.69-3.48-14.66-14.95.93-28.9-2-42.95-6.47-6.29-2-12.09-4-18.89-4.6-3.38,12.41-9.55,22.13-17.89,31.04-6.61,7.06-8.8,16.06-7.65,25.41.85,6.89,6.61,4.16,8.38,8.29.66,1.54.79,4.05-.76,4.92-3.35,1.88-7.53,1.38-11.34,1.11-3.09.14-5.41-1.49-6.29-4.36-2.99-9.81-4.22-19.69-4.59-29.94-10.5,8.83-14.4,21.19-12.8,34.38ZM459.67,233.47l-3.4-7.14c-.37-11.53-.99-22.65-3.29-33.97-16.08-.4-30.69-3.21-45.24-8.48-3.28-1.19-6.46-2.31-9.89-2.19-3.5,9.66-9.16,17.42-17.4,23.2-3.01,2.11-5.94,4.15-7.01,8.16-1.07,3.99-2,11.72,1.4,14.77,2.89,2.59,7.27,3.28,7,8.53l77.83-2.87ZM755.43,212.04l-3.02-21.06c-2.42,13.05-2.43,25.64.73,38.03,3.33.49,5.98.76,8.8,0M633.46,230.02c-4.05-10.53-7.03-20.61-9.18-32.28-14.65,5.68-19.84,16.83-18.01,32.41l27.19-.13ZM233.84,244.23l8.36-.63c-6.06-12.91-8.14-25.7-9.93-39.11M352.38,237.3l11.43-.58-2.44-7.58-3.17-17.5c-10.46,4.7-11.46,11.91-11.16,22.72.31,1.56,3.67,3.02,5.34,2.94ZM477.8,232.33c-.46-4.58-1.27-8.09-3.27-11.79.05,4.16,0,8.18,3.27,11.79Z"/>
  <path class="cls-2" d="M960.09,235.93c.18-1.41.18-2.77-.03-4.2l92.11,2.14c2.59-3.9,3.14-12.16-.61-14.97-10.13-7.59-16.12-17.31-15.29-30.21.55-8.59-.83-17.46-3.28-25.58-3.24-10.76-13.68-5.73-24.57-8.45-6.47-1.62-11.99-6.11-13-12.91-.28-1.87,2.51-3.19,4-3.77l17.65-6.83c4.34-1.68,5.59-9.34,13.04-11.53,19.63-5.76,28.94.8,40.94,15.46,3.09,3.78,3.15,8.39.86,12.36-5.42,9.39-15.17,20.22-22.82,16.84-6.67-2.95-5.08-11.96-2.89-19.85l2.89-10.39c.26-.95.35-1.81-1.35-2.5,0,9.03-7.99,17.03-5.94,27.1.76,3.72,2.9,7,5.72,8.26,8.66,3.89,17.95-5.23,24.61-14.16,2.75,6.99,7.89,11.52,14.81,13.65,10.93,3.37,22.33,4.32,33.9,3.71l31-1.62c11.88-.62,23.61.85,34.42,5.67,12.25,5.46,21.07,21.12,38.92,23.12,5.17.58,10.49-1.31,15.74.69-8.24,6.33-19.06,6.17-28.08,3.1l-17.06-9.05,1,15.57c.21,3.25,1.53,6.44,4.17,8.14,8.77,5.64,1.1,14.35,1.45,25.08l85.66,5.39c2.41.15,4.25-.5,5.44-1.86,2.56-2.91,1.91-13.67-2.3-17.28-3.36-2.87-6.62-4.99-9.19-8.37-.06,2.01-1.72,2.99-2.37,2.28-9.2-10.04-6.08-20.23-11.8-16.14-2.45-5.88-2.51-12.3-1.23-18.6l-3.46-.5,1.87-9.04c.5-2.44-.94-4.22.83-6.48l8.39-10.74c.43-1.28-2.63-2.52-3.75-2.86-7.21-2.21-11.18-8.95-9.16-16.15,6.16-1.74,12.05-.03,11.66-6.18-.56-8.87,5.07-15.19,13.63-17.42.2-2.84.62-8.2,3.31-8.65,2.75-.46,5.18,3.72,6.75,5.98,3.01-.92,3.27-5.94,6.02-6.34,3.83-.56,6.14,8.45,10.3,11.05s10.08,2.34,13.4,6.37c.26.69-1.25,1.93-2.09,2.19,5.39,2.47,8.66,5.52,11.83,9.71l-1.98,2.5c5.32,4.93,7.05,13.31,14.95,11.66l6.83-7.23c-1.89-.35-3.22-.15-4.59-1.42,3.9-6.42,11.24-9.19,18.51-9.44.67-1.36-.95-2.58-2.17-3.4,8.04-2.32,15.3.1,21.88,4.47l-.93-5c7.85,2.14,13.29,7.6,16.48,14.63.67-1.59,1.06-2.86,2.54-3.18,6.51,9.54,6.08,21.97-.22,31.71,6.5,6.86,11.09,13.88,11.15,22.97-.93-1.02-2.35-2.21-3.24-1.17,2.15,5.48,3.7,11.15,3.17,16.97-1.26.24-2.32-.35-3.54-.82,2.53,14.33-4.29,14.81-4.3,15.36l-.07,3.51c-8.28-3.79.42,11.52-6.52,27.25l90.63,12.01c1.74.23,2.37,1.06,2.42,2.36.04.92-.8,2.26-2.44,2.04l-93.83-12.36c-4.32,1.36-8.13,1.47-11.61-1.35l-68.48-6.04c-2.82,5.81-8.24,8.27-14.32,6.25-1.64-.55-2.87-1.88-2.6-3.53.18-1.1,1.11-2.02,2.52-3.7-2.83-.86-6.15-.8-8.91.11-3.75,1.23-6.24-1.31-9.56-1.53l-85.88-5.66c-4.77,5.27-16.25,4.92-16.84-.97l-103.73-4.56c-1.33,3.27-1.84,7.17-5.29,8.83-4,1.93-10.95,2.28-14.37-.48-2.24-1.8.02-6.45,5.68-7.95-2.65-2.43-4.32-.24-6.94,1.41-3.43,2.16-11.37,2.3-14.26-.28-2.3-2.06-1.91-2.96-5.44-3.06l-80.79-2.18ZM1161.18,238.55c1.65-3.88,3.94-4.47,7.34-5.19,3.03-1.5,4.6-8.85,1.26-10.49-5.72-2.8-11.25-4.46-15.22-10.1-16.64,2.39-32.28,6.26-48.11,11.38-7.6,2.46-14.98,3.65-22.84,4-.75,2.65-1.11,4.7-.78,7.04l78.35,3.35ZM1190.83,239c2.94-1.88,1.81-8.66.16-11.3-1.25-2.01-6.36-3.43-7.07-1.66l-5.35,13.3c4.27.23,8.66,1.96,12.26-.34ZM1387.54,254.98c2.86.27,4.47-.35,5.87-1.87,3.35-3.63.35-12.96-6.73-15.85-1.03,4.8-.83,9.58-4.22,13.11-2.59,2.7-9.79,2.82-12.28.28-2.28-2.33,1.29-4.49,2.59-5.35,2.93-1.95,2.35-5.53,1.64-8.73-.92-4.14-8.32-5.12-11.46-11.3l-6.95,3.31c-2.43,1.16-5.21,5.37-8.19,4.07-.49-.43-.69-2.49-1.76-2.29s-1.2,1.36-1.83,2.16c-3.95,5.05-12.67.92-13.64,2.82-.75,1.47-.11,5.86-1.21,6.28l-2.98,1.16c-1.2,1.63-1.52,3.99-1.77,6.26l62.91,5.92ZM1068.41,233.87c.64-2.63.21-4.92-1.37-7.04-1.42,2.12-1.22,4.68-1.41,7.16.02.68,2.56.84,2.79-.11ZM1309.69,247.5c.45-4.78.26-8.32-1.44-11.95l-3.81,11.97c1.74.22,3.2.42,5.25-.02Z"/>
</svg>